<svg width="55" height="54" viewBox="0 0 55 54" fill="none" xmlns="http://www.w3.org/2000/svg">
<circle cx="27.5" cy="27" r="27" fill="#FF64FF"/>
<path d="M26.8711 33.152C25.8151 34.576 24.2631 35.288 22.2151 35.288C20.1671 35.288 18.6071 34.576 17.5351 33.152C16.4791 31.712 15.9511 29.608 15.9511 26.84C15.9511 24.072 16.4791 21.976 17.5351 20.552C18.6071 19.112 20.1671 18.392 22.2151 18.392C24.2631 18.392 25.8151 19.112 26.8711 20.552C27.9431 21.976 28.4791 24.072 28.4791 26.84C28.4791 29.608 27.9431 31.712 26.8711 33.152ZM18.5671 26.84C18.5671 30.872 19.7831 32.888 22.2151 32.888C24.6471 32.888 25.8631 30.872 25.8631 26.84C25.8631 22.808 24.6471 20.792 22.2151 20.792C19.7831 20.792 18.5671 22.808 18.5671 26.84ZM33.8624 35V23.768H30.4064V21.464C31.8784 21.464 32.8624 21.264 33.3584 20.864C33.8544 20.448 34.1024 19.72 34.1024 18.68H36.5984V35H33.8624Z" fill="white"/>
</svg>
