<svg width="55" height="54" viewBox="0 0 55 54" fill="none" xmlns="http://www.w3.org/2000/svg">
<circle cx="27.5" cy="27" r="27" fill="#FF64FF"/>
<path d="M24.6914 33.152C23.6354 34.576 22.0834 35.288 20.0354 35.288C17.9874 35.288 16.4274 34.576 15.3554 33.152C14.2994 31.712 13.7714 29.608 13.7714 26.84C13.7714 24.072 14.2994 21.976 15.3554 20.552C16.4274 19.112 17.9874 18.392 20.0354 18.392C22.0834 18.392 23.6354 19.112 24.6914 20.552C25.7634 21.976 26.2994 24.072 26.2994 26.84C26.2994 29.608 25.7634 31.712 24.6914 33.152ZM16.3874 26.84C16.3874 30.872 17.6034 32.888 20.0354 32.888C22.4674 32.888 23.6834 30.872 23.6834 26.84C23.6834 22.808 22.4674 20.792 20.0354 20.792C17.6034 20.792 16.3874 22.808 16.3874 26.84ZM28.5867 35C28.5867 33.192 28.9067 31.712 29.5467 30.56C30.1867 29.392 31.2107 28.416 32.6187 27.632L35.0187 26.312C36.3787 25.56 37.0587 24.528 37.0587 23.216C37.0587 22.496 36.8347 21.912 36.3867 21.464C35.9387 21.016 35.3627 20.792 34.6587 20.792C33.7467 20.792 33.0427 21.088 32.5467 21.68C32.0507 22.272 31.8027 23.12 31.8027 24.224H28.9467C28.9467 22.448 29.4587 21.032 30.4827 19.976C31.5227 18.92 32.9147 18.392 34.6587 18.392C36.3067 18.392 37.6027 18.816 38.5467 19.664C39.5067 20.496 39.9867 21.632 39.9867 23.072C39.9867 24.064 39.7067 25 39.1467 25.88C38.5867 26.76 37.8027 27.488 36.7947 28.064L34.4427 29.408C33.5467 29.92 32.9227 30.384 32.5707 30.8C32.2347 31.216 31.9947 31.792 31.8507 32.528H39.9387V35H28.5867Z" fill="white"/>
</svg>
