<svg width="55" height="54" viewBox="0 0 55 54" fill="none" xmlns="http://www.w3.org/2000/svg">
<circle cx="27.5" cy="27" r="27" fill="#FF64FF"/>
<path d="M24.7852 33.152C23.7292 34.576 22.1772 35.288 20.1292 35.288C18.0812 35.288 16.5212 34.576 15.4492 33.152C14.3932 31.712 13.8652 29.608 13.8652 26.84C13.8652 24.072 14.3932 21.976 15.4492 20.552C16.5212 19.112 18.0812 18.392 20.1292 18.392C22.1772 18.392 23.7292 19.112 24.7852 20.552C25.8572 21.976 26.3932 24.072 26.3932 26.84C26.3932 29.608 25.8572 31.712 24.7852 33.152ZM16.4812 26.84C16.4812 30.872 17.6972 32.888 20.1292 32.888C22.5612 32.888 23.7772 30.872 23.7772 26.84C23.7772 22.808 22.5612 20.792 20.1292 20.792C17.6972 20.792 16.4812 22.808 16.4812 26.84ZM34.3685 35.288C32.4645 35.288 30.9765 34.784 29.9045 33.776C28.8485 32.768 28.3205 31.36 28.3205 29.552H31.1285C31.1285 30.64 31.4085 31.48 31.9685 32.072C32.5285 32.664 33.3285 32.96 34.3685 32.96C35.2165 32.96 35.9045 32.72 36.4325 32.24C36.9605 31.76 37.2245 31.128 37.2245 30.344C37.2245 28.552 36.2005 27.656 34.1525 27.656H33.0005V25.28H34.1765C35.9205 25.28 36.7925 24.48 36.7925 22.88C36.7925 22.224 36.5525 21.696 36.0725 21.296C35.6085 20.88 35.0085 20.672 34.2725 20.672C33.3925 20.672 32.6965 20.928 32.1845 21.44C31.6885 21.936 31.4405 22.624 31.4405 23.504H28.7285C28.7285 21.936 29.2245 20.696 30.2165 19.784C31.2245 18.856 32.5765 18.392 34.2725 18.392C35.8725 18.392 37.1605 18.808 38.1365 19.64C39.1125 20.456 39.6005 21.536 39.6005 22.88C39.6005 24.64 38.6805 25.816 36.8405 26.408C37.8005 26.584 38.5685 27.024 39.1445 27.728C39.7205 28.432 40.0085 29.296 40.0085 30.32C40.0085 31.776 39.4805 32.968 38.4245 33.896C37.3845 34.824 36.0325 35.288 34.3685 35.288Z" fill="white"/>
</svg>
