<svg width="388" height="195" viewBox="0 0 388 195" fill="none" xmlns="http://www.w3.org/2000/svg">
<rect x="50.3472" y="6.427" width="332.653" height="122.556" rx="23.3441" fill="url(#paint0_linear_617_452)" fill-opacity="0.25"/>
<g filter="url(#filter0_d_617_452)">
<rect x="20" y="20" width="348" height="155" rx="15.6385" fill="white"/>
</g>
<path d="M39.861 48.2909L42.8948 40.2996H45.5221L40.7836 51.8564H38.9383L34.1373 40.2996H36.8114L39.861 48.2909ZM53.6111 47.3995C53.6111 47.6601 53.5851 47.9833 53.5329 48.3691H47.1368C47.4496 49.5784 48.2784 50.1831 49.6233 50.1831C50.6137 50.1831 51.5312 49.8964 52.3757 49.323L53.2514 50.8712C52.1672 51.6531 50.9265 52.0441 49.5295 52.0441C48.0386 52.0441 46.8918 51.6114 46.089 50.7461C45.2967 49.8912 44.9005 48.8382 44.9005 47.5871C44.9005 46.2839 45.3123 45.2153 46.1359 44.3812C46.9595 43.5368 48.0282 43.1145 49.3418 43.1145C50.5825 43.1145 51.6042 43.5003 52.407 44.2718C53.2097 45.0433 53.6111 46.0858 53.6111 47.3995ZM49.3418 44.9442C48.7893 44.9442 48.3149 45.1058 47.9187 45.429C47.533 45.7418 47.2723 46.1744 47.1368 46.727H51.4687C51.3644 46.1744 51.1246 45.7418 50.7493 45.429C50.374 45.1058 49.9048 44.9442 49.3418 44.9442ZM57.3327 51.8564H55.1277V43.3334H57.2858V44.522C57.5152 44.0945 57.8697 43.7505 58.3492 43.4898C58.8288 43.2292 59.3657 43.0989 59.96 43.0989C60.8879 43.0989 61.675 43.4064 62.3214 44.0215C62.9678 44.6367 63.291 45.5124 63.291 46.6488V51.8564H61.086V47.2431C61.086 46.5758 60.9244 46.0598 60.6012 45.6949C60.278 45.3195 59.8401 45.1319 59.2876 45.1319C58.7037 45.1319 58.2293 45.3352 57.8644 45.7418C57.51 46.138 57.3327 46.654 57.3327 47.29V51.8564ZM67.6788 41.0189C67.6788 41.4047 67.5485 41.7279 67.2879 41.9885C67.0272 42.2492 66.704 42.3795 66.3183 42.3795C65.9325 42.3795 65.6093 42.2492 65.3487 41.9885C65.0881 41.7279 64.9577 41.4047 64.9577 41.0189C64.9577 40.6332 65.0881 40.3152 65.3487 40.065C65.6093 39.8044 65.9325 39.674 66.3183 39.674C66.704 39.674 67.0272 39.8044 67.2879 40.065C67.5485 40.3152 67.6788 40.6332 67.6788 41.0189ZM67.413 43.3334V51.8564H65.208V43.3334H67.413ZM75.8665 44.35V43.3334H77.962V51.8564H75.8665V50.8712C75.1367 51.6636 74.2296 52.0597 73.1454 52.0597C71.9151 52.0597 70.9038 51.6323 70.1115 50.7774C69.3191 49.9225 68.923 48.8486 68.923 47.5559C68.923 46.2735 69.3243 45.2153 70.1271 44.3812C70.9299 43.5368 71.936 43.1145 73.1454 43.1145C74.2088 43.1145 75.1158 43.5263 75.8665 44.35ZM75.8977 47.5871C75.8977 46.9199 75.6684 46.3413 75.2096 45.8513C74.7613 45.3717 74.1931 45.1319 73.505 45.1319C72.8065 45.1319 72.2331 45.3717 71.7848 45.8513C71.3469 46.3308 71.128 46.9095 71.128 47.5871C71.128 48.2752 71.3521 48.8591 71.8004 49.3386C72.2488 49.8182 72.817 50.058 73.505 50.058C74.1931 50.058 74.7613 49.8182 75.2096 49.3386C75.6684 48.8486 75.8977 48.2648 75.8977 47.5871ZM90.8302 45.5228C91.5287 45.7001 92.0657 46.0598 92.441 46.6019C92.8267 47.1336 93.0196 47.7644 93.0196 48.4942C93.0196 49.4533 92.686 50.2509 92.0187 50.8869C91.3515 51.5332 90.4653 51.8564 89.3602 51.8564H84.09V40.2996H89.1256C90.1578 40.2996 90.9605 40.5863 91.5339 41.1597C92.1178 41.7435 92.4097 42.416 92.4097 43.1771C92.4097 43.6879 92.2637 44.1675 91.9718 44.6158C91.6799 45.0537 91.2994 45.356 90.8302 45.5228ZM88.7346 42.3169H86.3732V44.8347H88.6408C89.0995 44.8347 89.4592 44.7096 89.7199 44.4594C89.9805 44.2092 90.1108 43.9016 90.1108 43.5368C90.1108 43.1927 89.9857 42.906 89.7355 42.6766C89.4853 42.4368 89.1517 42.3169 88.7346 42.3169ZM86.3732 49.8234H88.9067C89.4384 49.8234 89.8554 49.6775 90.1578 49.3856C90.4705 49.0936 90.6269 48.734 90.6269 48.3065C90.6269 47.8686 90.4757 47.5037 90.1734 47.2118C89.871 46.9199 89.4488 46.7739 88.9067 46.7739H86.3732V49.8234ZM101.298 51.0589C100.61 51.7261 99.6563 52.0597 98.4365 52.0597C97.2167 52.0597 96.2575 51.7261 95.559 51.0589C94.8709 50.3812 94.5269 49.4481 94.5269 48.2596V43.3334H96.7319V48.2596C96.7319 48.8017 96.8831 49.2344 97.1854 49.5576C97.4878 49.8808 97.9048 50.0424 98.4365 50.0424C98.9682 50.0424 99.3853 49.8808 99.6876 49.5576C99.9899 49.2344 100.141 48.8017 100.141 48.2596V43.3334H102.346V48.2596C102.346 49.4585 101.997 50.3916 101.298 51.0589ZM107.058 52.0754C105.578 52.0754 104.405 51.528 103.539 50.4333L104.712 49.0415C105.015 49.4064 105.374 49.6983 105.791 49.9173C106.219 50.1258 106.646 50.23 107.074 50.23C107.407 50.23 107.684 50.1518 107.903 49.9955C108.132 49.8391 108.247 49.641 108.247 49.4012C108.247 49.0989 108.043 48.8538 107.637 48.6662C107.512 48.6141 107.173 48.4837 106.62 48.2752C106.13 48.098 105.765 47.9468 105.526 47.8217C104.546 47.3526 104.056 46.6175 104.056 45.6167C104.056 44.8765 104.347 44.2613 104.931 43.7713C105.505 43.2917 106.276 43.052 107.246 43.052C108.455 43.052 109.451 43.4586 110.233 44.2718L109.138 45.6949C108.544 45.1319 107.892 44.8504 107.183 44.8504C106.902 44.8504 106.667 44.9234 106.479 45.0693C106.302 45.2049 106.214 45.3717 106.214 45.5698C106.214 45.9242 106.464 46.1849 106.964 46.3517C108.08 46.7687 108.763 47.045 109.013 47.1805C109.972 47.681 110.452 48.4003 110.452 49.3386C110.452 50.1414 110.139 50.7982 109.513 51.3091C108.909 51.82 108.09 52.0754 107.058 52.0754ZM114.472 41.0189C114.472 41.4047 114.342 41.7279 114.081 41.9885C113.821 42.2492 113.497 42.3795 113.112 42.3795C112.726 42.3795 112.403 42.2492 112.142 41.9885C111.881 41.7279 111.751 41.4047 111.751 41.0189C111.751 40.6332 111.881 40.3152 112.142 40.065C112.403 39.8044 112.726 39.674 113.112 39.674C113.497 39.674 113.821 39.8044 114.081 40.065C114.342 40.3152 114.472 40.6332 114.472 41.0189ZM114.206 43.3334V51.8564H112.001V43.3334H114.206ZM118.375 51.8564H116.17V43.3334H118.328V44.522C118.557 44.0945 118.912 43.7505 119.391 43.4898C119.871 43.2292 120.408 43.0989 121.002 43.0989C121.93 43.0989 122.717 43.4064 123.364 44.0215C124.01 44.6367 124.333 45.5124 124.333 46.6488V51.8564H122.128V47.2431C122.128 46.5758 121.967 46.0598 121.643 45.6949C121.32 45.3195 120.882 45.1319 120.33 45.1319C119.746 45.1319 119.272 45.3352 118.907 45.7418C118.552 46.138 118.375 46.654 118.375 47.29V51.8564ZM134.492 47.3995C134.492 47.6601 134.466 47.9833 134.413 48.3691H128.017C128.33 49.5784 129.159 50.1831 130.504 50.1831C131.494 50.1831 132.412 49.8964 133.256 49.323L134.132 50.8712C133.048 51.6531 131.807 52.0441 130.41 52.0441C128.919 52.0441 127.772 51.6114 126.969 50.7461C126.177 49.8912 125.781 48.8382 125.781 47.5871C125.781 46.2839 126.193 45.2153 127.016 44.3812C127.84 43.5368 128.909 43.1145 130.222 43.1145C131.463 43.1145 132.485 43.5003 133.287 44.2718C134.09 45.0433 134.492 46.0858 134.492 47.3995ZM130.222 44.9442C129.67 44.9442 129.195 45.1058 128.799 45.429C128.413 45.7418 128.153 46.1744 128.017 46.727H132.349C132.245 46.1744 132.005 45.7418 131.63 45.429C131.254 45.1058 130.785 44.9442 130.222 44.9442ZM138.809 52.0754C137.328 52.0754 136.155 51.528 135.29 50.4333L136.463 49.0415C136.765 49.4064 137.125 49.6983 137.542 49.9173C137.969 50.1258 138.397 50.23 138.824 50.23C139.158 50.23 139.434 50.1518 139.653 49.9955C139.882 49.8391 139.997 49.641 139.997 49.4012C139.997 49.0989 139.794 48.8538 139.387 48.6662C139.262 48.6141 138.923 48.4837 138.371 48.2752C137.881 48.098 137.516 47.9468 137.276 47.8217C136.296 47.3526 135.806 46.6175 135.806 45.6167C135.806 44.8765 136.098 44.2613 136.682 43.7713C137.255 43.2917 138.027 43.052 138.996 43.052C140.206 43.052 141.201 43.4586 141.983 44.2718L140.889 45.6949C140.294 45.1319 139.643 44.8504 138.934 44.8504C138.652 44.8504 138.418 44.9234 138.23 45.0693C138.053 45.2049 137.964 45.3717 137.964 45.5698C137.964 45.9242 138.214 46.1849 138.715 46.3517C139.83 46.7687 140.513 47.045 140.763 47.1805C141.723 47.681 142.202 48.4003 142.202 49.3386C142.202 50.1414 141.889 50.7982 141.264 51.3091C140.659 51.82 139.841 52.0754 138.809 52.0754ZM146.46 52.0754C144.979 52.0754 143.807 51.528 142.941 50.4333L144.114 49.0415C144.416 49.4064 144.776 49.6983 145.193 49.9173C145.621 50.1258 146.048 50.23 146.476 50.23C146.809 50.23 147.085 50.1518 147.304 49.9955C147.534 49.8391 147.648 49.641 147.648 49.4012C147.648 49.0989 147.445 48.8538 147.038 48.6662C146.913 48.6141 146.575 48.4837 146.022 48.2752C145.532 48.098 145.167 47.9468 144.927 47.8217C143.947 47.3526 143.457 46.6175 143.457 45.6167C143.457 44.8765 143.749 44.2613 144.333 43.7713C144.906 43.2917 145.678 43.052 146.648 43.052C147.857 43.052 148.853 43.4586 149.634 44.2718L148.54 45.6949C147.946 45.1319 147.294 44.8504 146.585 44.8504C146.303 44.8504 146.069 44.9234 145.881 45.0693C145.704 45.2049 145.615 45.3717 145.615 45.5698C145.615 45.9242 145.866 46.1849 146.366 46.3517C147.482 46.7687 148.164 47.045 148.415 47.1805C149.374 47.681 149.853 48.4003 149.853 49.3386C149.853 50.1414 149.541 50.7982 148.915 51.3091C148.31 51.82 147.492 52.0754 146.46 52.0754ZM157.832 51.8564H155.517V40.2996H157.832V44.9129H162.68V40.2996H164.994V51.8564H162.68V47.1492H157.832V51.8564ZM173.84 51.0589C173.152 51.7261 172.198 52.0597 170.979 52.0597C169.759 52.0597 168.8 51.7261 168.101 51.0589C167.413 50.3812 167.069 49.4481 167.069 48.2596V43.3334H169.274V48.2596C169.274 48.8017 169.425 49.2344 169.727 49.5576C170.03 49.8808 170.447 50.0424 170.979 50.0424C171.51 50.0424 171.927 49.8808 172.23 49.5576C172.532 49.2344 172.683 48.8017 172.683 48.2596V43.3334H174.888V48.2596C174.888 49.4585 174.539 50.3916 173.84 51.0589ZM181.585 43.1145C182.795 43.1145 183.806 43.5472 184.619 44.4125C185.433 45.2674 185.839 46.3308 185.839 47.6028C185.839 48.8747 185.433 49.9381 184.619 50.793C183.806 51.6375 182.795 52.0597 181.585 52.0597C180.512 52.0597 179.625 51.6375 178.927 50.793V51.8564H176.784V39.9712H178.989V44.3187C179.698 43.5159 180.564 43.1145 181.585 43.1145ZM179.552 45.8669C179.115 46.336 178.896 46.9095 178.896 47.5871C178.896 48.2648 179.115 48.8486 179.552 49.3386C179.99 49.8078 180.553 50.0424 181.241 50.0424C181.929 50.0424 182.492 49.8078 182.93 49.3386C183.368 48.8591 183.587 48.2752 183.587 47.5871C183.587 46.899 183.368 46.3204 182.93 45.8513C182.492 45.3821 181.929 45.1475 181.241 45.1475C180.553 45.1475 179.99 45.3873 179.552 45.8669Z" fill="#103861"/>
<path d="M276.063 51.5664V47.7037H275.156V46.5464H276.063V45.4205H275.156V44.2632H276.063V40.4005H278.519L279.738 44.2632H281.162V40.4005H282.897V44.2632H283.789V45.4205H282.897V46.5464H283.789V47.7037H282.897V51.5664H280.427L279.175 47.7037H277.799V51.5664H276.063ZM277.799 46.5464H278.831L278.487 45.4205H277.768L277.799 46.5464ZM281.208 49.1268H281.287L281.224 47.7037H280.802L281.208 49.1268ZM277.737 44.2632H278.175L277.721 42.7619H277.659L277.737 44.2632ZM280.473 46.5464H281.193L281.162 45.4205H280.114L280.473 46.5464ZM290.001 47.2658L287.968 49.4396H292.269V51.5664H284.731V49.6429L288.328 45.874C288.766 45.4153 289.011 45.1546 289.063 45.0921C289.199 44.9357 289.355 44.6907 289.532 44.357C289.71 44.0339 289.798 43.7367 289.798 43.4657C289.798 43.0278 289.647 42.6733 289.345 42.4022C289.042 42.1207 288.662 41.98 288.203 41.98C287.39 41.98 286.525 42.4074 285.607 43.2623L284.34 41.6047C285.539 40.4057 286.889 39.8062 288.391 39.8062C289.496 39.8062 290.398 40.1399 291.096 40.8071C291.805 41.4639 292.16 42.3084 292.16 43.3405C292.16 44.4561 291.44 45.7645 290.001 47.2658ZM298.401 51.7541C297.368 51.7541 296.493 51.4726 295.773 50.9096C294.408 49.8357 293.725 48.1259 293.725 45.7802C293.725 44.6646 293.886 43.6742 294.209 42.8088C294.543 41.9018 295.075 41.1772 295.805 40.6351C296.534 40.0825 297.4 39.8062 298.401 39.8062C299.026 39.8062 299.6 39.9105 300.121 40.119C300.642 40.3275 301.08 40.6194 301.434 40.9948C301.799 41.3597 302.107 41.7975 302.357 42.3084C302.607 42.8088 302.79 43.351 302.905 43.9348C303.019 44.5186 303.077 45.1338 303.077 45.7802C303.077 46.4265 303.019 47.0417 302.905 47.6255C302.79 48.2093 302.607 48.7567 302.357 49.2675C302.107 49.768 301.799 50.2059 301.434 50.5812C301.08 50.9461 300.642 51.2328 300.121 51.4413C299.6 51.6498 299.026 51.7541 298.401 51.7541ZM300.778 45.7802C300.778 44.6646 300.58 43.7524 300.183 43.0434C299.787 42.3345 299.193 41.98 298.401 41.98C297.619 41.98 297.03 42.3345 296.633 43.0434C296.237 43.7524 296.039 44.6646 296.039 45.7802C296.039 46.9374 296.237 47.8601 296.633 48.5482C297.04 49.2363 297.629 49.5803 298.401 49.5803C299.172 49.5803 299.761 49.2363 300.168 48.5482C300.574 47.8601 300.778 46.9374 300.778 45.7802ZM309.167 51.7541C308.135 51.7541 307.259 51.4726 306.54 50.9096C305.174 49.8357 304.491 48.1259 304.491 45.7802C304.491 44.6646 304.653 43.6742 304.976 42.8088C305.31 41.9018 305.842 41.1772 306.571 40.6351C307.301 40.0825 308.166 39.8062 309.167 39.8062C309.793 39.8062 310.366 39.9105 310.888 40.119C311.409 40.3275 311.847 40.6194 312.201 40.9948C312.566 41.3597 312.874 41.7975 313.124 42.3084C313.374 42.8088 313.557 43.351 313.671 43.9348C313.786 44.5186 313.843 45.1338 313.843 45.7802C313.843 46.4265 313.786 47.0417 313.671 47.6255C313.557 48.2093 313.374 48.7567 313.124 49.2675C312.874 49.768 312.566 50.2059 312.201 50.5812C311.847 50.9461 311.409 51.2328 310.888 51.4413C310.366 51.6498 309.793 51.7541 309.167 51.7541ZM311.544 45.7802C311.544 44.6646 311.346 43.7524 310.95 43.0434C310.554 42.3345 309.96 41.98 309.167 41.98C308.385 41.98 307.796 42.3345 307.4 43.0434C307.004 43.7524 306.806 44.6646 306.806 45.7802C306.806 46.9374 307.004 47.8601 307.4 48.5482C307.807 49.2363 308.396 49.5803 309.167 49.5803C309.939 49.5803 310.528 49.2363 310.935 48.5482C311.341 47.8601 311.544 46.9374 311.544 45.7802ZM316.168 52.7205H314.723L319.227 43.8253H320.672L316.168 52.7205ZM323.008 51.5664H321.619V44.6323H323.008V47.4003H325.916V44.6323H327.305V51.5664H325.916V48.7421H323.008V51.5664ZM334.141 51.5664H332.518L331.054 49.0423H330.228V51.5664H328.84V44.6323H331.495C332.264 44.6323 332.852 44.845 333.259 45.2703C333.666 45.6957 333.869 46.2149 333.869 46.8279C333.869 47.2908 333.747 47.7068 333.503 48.0759C333.265 48.4387 332.918 48.7014 332.461 48.8641L334.141 51.5664ZM331.486 45.9178H330.228V47.7944H331.364C331.714 47.7944 331.98 47.7068 332.161 47.5317C332.349 47.3565 332.443 47.1282 332.443 46.8467C332.443 46.5777 332.355 46.3556 332.18 46.1805C332.011 46.0053 331.78 45.9178 331.486 45.9178Z" fill="#103861"/>
<path d="M36.2328 74.4475V68.5643H34.2061V67.5134H39.3574V68.5643H37.3306V74.4475H36.2328ZM39.0956 71.9141C39.0956 71.1822 39.3458 70.5566 39.8462 70.0374C40.3529 69.5182 40.9941 69.2586 41.7697 69.2586C42.5454 69.2586 43.1835 69.5182 43.6839 70.0374C44.1906 70.5504 44.4439 71.1759 44.4439 71.9141C44.4439 72.6647 44.1906 73.2965 43.6839 73.8095C43.1897 74.3224 42.5517 74.5789 41.7697 74.5789C40.9941 74.5789 40.3529 74.3224 39.8462 73.8095C39.3458 73.2903 39.0956 72.6585 39.0956 71.9141ZM43.4024 71.9141C43.4024 71.4512 43.2429 71.0539 42.9239 70.7224C42.6173 70.3846 42.2326 70.2157 41.7697 70.2157C41.3131 70.2157 40.9253 70.3846 40.6062 70.7224C40.2935 71.0539 40.1371 71.4512 40.1371 71.9141C40.1371 72.3832 40.2935 72.7836 40.6062 73.1151C40.9253 73.4466 41.3131 73.6124 41.7697 73.6124C42.2264 73.6124 42.6111 73.4466 42.9239 73.1151C43.2429 72.7836 43.4024 72.3832 43.4024 71.9141ZM48.4566 73.3403L48.8132 74.1473C48.4378 74.4287 47.9718 74.5695 47.4151 74.5695C46.8709 74.5695 46.458 74.4037 46.1765 74.0722C45.895 73.7406 45.7543 73.2621 45.7543 72.6366V70.272H44.8816V69.39H45.7636V67.5978H46.7864V69.39H48.5317V70.272H46.7864V72.6553C46.7864 73.2996 47.046 73.6218 47.5652 73.6218C47.8404 73.6218 48.1376 73.528 48.4566 73.3403ZM53.389 70.0937V69.39H54.3836V74.4475H53.389V73.7532C52.9323 74.2974 52.3568 74.5695 51.6625 74.5695C50.9306 74.5695 50.3269 74.313 49.8515 73.8001C49.3761 73.2871 49.1384 72.6491 49.1384 71.8859C49.1384 71.129 49.3761 70.5035 49.8515 70.0093C50.3269 69.5151 50.9306 69.268 51.6625 69.268C52.3568 69.268 52.9323 69.5433 53.389 70.0937ZM51.8032 73.6218C52.2724 73.6218 52.6633 73.456 52.9761 73.1245C53.2826 72.7992 53.4359 72.3957 53.4359 71.9141C53.4359 71.4387 53.2826 71.0383 52.9761 70.713C52.6633 70.3815 52.2724 70.2157 51.8032 70.2157C51.3216 70.2157 50.9306 70.3815 50.6303 70.713C50.3301 71.0383 50.1799 71.4418 50.1799 71.9235C50.1799 72.4051 50.3301 72.8086 50.6303 73.1339C50.9306 73.4592 51.3216 73.6218 51.8032 73.6218ZM56.7476 67.3351V74.4475H55.7155V67.3351H56.7476ZM63.3285 73.3403L63.685 74.1473C63.3097 74.4287 62.8437 74.5695 62.2869 74.5695C61.7427 74.5695 61.3299 74.4037 61.0484 74.0722C60.7669 73.7406 60.6261 73.2621 60.6261 72.6366V70.272H59.7535V69.39H60.6355V67.5978H61.6583V69.39H63.4035V70.272H61.6583V72.6553C61.6583 73.2996 61.9179 73.6218 62.4371 73.6218C62.7123 73.6218 63.0094 73.528 63.3285 73.3403ZM64.9281 68.7238C64.7279 68.7238 64.559 68.6581 64.4214 68.5268C64.2838 68.3891 64.215 68.2202 64.215 68.0201C64.215 67.8262 64.2838 67.6635 64.4214 67.5322C64.559 67.4008 64.7279 67.3351 64.9281 67.3351C65.122 67.3351 65.2846 67.4008 65.416 67.5322C65.5474 67.6635 65.613 67.8262 65.613 68.0201C65.613 68.2202 65.5474 68.3891 65.416 68.5268C65.2846 68.6581 65.122 68.7238 64.9281 68.7238ZM65.4254 69.39V74.4475H64.3932V69.39H65.4254ZM72.6872 69.2493C73.294 69.2493 73.7819 69.4463 74.151 69.8404C74.5263 70.222 74.714 70.7506 74.714 71.4261V74.4475H73.6819V71.595C73.6819 71.1572 73.5786 70.8194 73.3722 70.5817C73.1658 70.3377 72.8843 70.2157 72.5277 70.2157C72.1524 70.2157 71.8459 70.344 71.6082 70.6004C71.3767 70.8569 71.261 71.1978 71.261 71.6232V74.4475H70.2289V71.6138C70.2289 71.1822 70.1225 70.8413 69.9098 70.591C69.7034 70.3408 69.4219 70.2157 69.0654 70.2157C68.69 70.2157 68.3835 70.3471 68.1458 70.6098C67.9081 70.8663 67.7893 71.2103 67.7893 71.642V74.4475H66.7571V69.39H67.7705V70.1219C67.9206 69.8529 68.1302 69.6402 68.3992 69.4838C68.6681 69.3275 68.9684 69.2493 69.2999 69.2493C69.644 69.2555 69.9568 69.34 70.2383 69.5026C70.5197 69.6652 70.7262 69.8904 70.8575 70.1782C71.0327 69.8967 71.2829 69.6715 71.6082 69.5026C71.9397 69.3337 72.2994 69.2493 72.6872 69.2493ZM80.7511 71.8202C80.7511 71.9829 80.7386 72.1486 80.7136 72.3175H76.7633C76.8383 72.7241 77.0166 73.0463 77.2981 73.284C77.5858 73.5217 77.9674 73.6406 78.4428 73.6406C78.7306 73.6406 79.0308 73.5905 79.3436 73.4904C79.6626 73.3903 79.9348 73.259 80.1599 73.0963L80.5916 73.8564C79.9598 74.3255 79.231 74.5601 78.4053 74.5601C77.517 74.5601 76.8415 74.3005 76.3786 73.7813C75.9219 73.2621 75.6936 72.6366 75.6936 71.9047C75.6936 71.1415 75.9313 70.5129 76.4067 70.0187C76.8884 69.5182 77.5108 69.268 78.2739 69.268C79.0058 69.268 79.6001 69.4964 80.0567 69.953C80.5196 70.4159 80.7511 71.0383 80.7511 71.8202ZM78.2739 70.1594C77.8861 70.1594 77.5546 70.2814 77.2793 70.5254C77.0103 70.7631 76.8383 71.079 76.7633 71.4731H79.7096C79.6658 71.079 79.5094 70.7631 79.2404 70.5254C78.9777 70.2814 78.6555 70.1594 78.2739 70.1594ZM85.586 74.5695C85.1857 74.5695 84.8135 74.4788 84.4694 74.2974C84.1254 74.116 83.8502 73.8532 83.6437 73.5092L84.3099 72.9087C84.4601 73.1526 84.6508 73.3434 84.8823 73.481C85.12 73.6124 85.3608 73.6781 85.6048 73.6781C85.8488 73.6781 86.0489 73.6187 86.2053 73.4998C86.3617 73.3747 86.4399 73.2246 86.4399 73.0494C86.4399 72.7992 86.296 72.6053 86.0083 72.4677C85.9332 72.4239 85.7299 72.3394 85.3984 72.2143C85.0606 72.0705 84.8479 71.9735 84.7603 71.9235C84.2223 71.642 83.9534 71.226 83.9534 70.6755C83.9534 70.2564 84.1098 69.9092 84.4225 69.634C84.7478 69.3587 85.1669 69.2211 85.6799 69.2211C86.3992 69.2211 86.9528 69.4807 87.3407 69.9999L86.7402 70.638C86.4399 70.2689 86.0708 70.0844 85.6329 70.0844C85.4265 70.0844 85.2607 70.1375 85.1356 70.2439C85.0168 70.3502 84.9574 70.4816 84.9574 70.638C84.9574 70.8882 85.0981 71.0727 85.3796 71.1916L85.8957 71.4074C86.2272 71.545 86.4649 71.6513 86.6088 71.7264C87.1843 72.0267 87.472 72.452 87.472 73.0025C87.472 73.4466 87.2969 73.8188 86.9466 74.1191C86.5963 74.4194 86.1428 74.5695 85.586 74.5695ZM91.2419 69.268C91.9613 69.268 92.5587 69.5245 93.0341 70.0374C93.5158 70.5566 93.7566 71.1853 93.7566 71.9235C93.7566 72.6553 93.5158 73.2809 93.0341 73.8001C92.5587 74.313 91.9582 74.5695 91.2325 74.5695C90.5194 74.5695 89.9439 74.2943 89.506 73.7438V76.5306H88.4739V69.39H89.506V70.1219C89.9627 69.5527 90.5413 69.268 91.2419 69.268ZM92.7151 71.9141C92.7151 71.4387 92.5649 71.0383 92.2647 70.713C91.9644 70.3815 91.5735 70.2157 91.0918 70.2157C90.6101 70.2157 90.2192 70.3815 89.9189 70.713C89.6249 71.0446 89.4779 71.4449 89.4779 71.9141C89.4779 72.3957 89.6249 72.8023 89.9189 73.1339C90.2192 73.4592 90.6101 73.6218 91.0918 73.6218C91.5735 73.6218 91.9644 73.4592 92.2647 73.1339C92.5649 72.8086 92.7151 72.402 92.7151 71.9141ZM99.554 71.8202C99.554 71.9829 99.5415 72.1486 99.5164 72.3175H95.5661C95.6412 72.7241 95.8195 73.0463 96.101 73.284C96.3887 73.5217 96.7703 73.6406 97.2457 73.6406C97.5335 73.6406 97.8337 73.5905 98.1465 73.4904C98.4655 73.3903 98.7376 73.259 98.9628 73.0963L99.3945 73.8564C98.7627 74.3255 98.0339 74.5601 97.2082 74.5601C96.3199 74.5601 95.6443 74.3005 95.1814 73.7813C94.7248 73.2621 94.4965 72.6366 94.4965 71.9047C94.4965 71.1415 94.7342 70.5129 95.2096 70.0187C95.6913 69.5182 96.3137 69.268 97.0768 69.268C97.8087 69.268 98.403 69.4964 98.8596 69.953C99.3225 70.4159 99.554 71.0383 99.554 71.8202ZM97.0768 70.1594C96.689 70.1594 96.3575 70.2814 96.0822 70.5254C95.8132 70.7631 95.6412 71.079 95.5661 71.4731H98.5124C98.4687 71.079 98.3123 70.7631 98.0433 70.5254C97.7806 70.2814 97.4584 70.1594 97.0768 70.1594ZM101.601 74.4475H100.569V69.39H101.583V70.1031C101.733 69.8404 101.949 69.634 102.23 69.4838C102.512 69.3337 102.831 69.2586 103.187 69.2586C103.744 69.2586 104.213 69.4401 104.595 69.8029C104.983 70.1719 105.176 70.6943 105.176 71.3698V74.4475H104.135V71.6607C104.135 71.2041 104.025 70.8506 103.806 70.6004C103.588 70.344 103.294 70.2157 102.924 70.2157C102.537 70.2157 102.218 70.3533 101.967 70.6286C101.723 70.8976 101.601 71.2479 101.601 71.6795V74.4475ZM109.447 73.3403L109.803 74.1473C109.428 74.4287 108.962 74.5695 108.405 74.5695C107.861 74.5695 107.448 74.4037 107.167 74.0722C106.885 73.7406 106.745 73.2621 106.745 72.6366V70.272H105.872V69.39H106.754V67.5978H107.777V69.39H109.522V70.272H107.777V72.6553C107.777 73.2996 108.036 73.6218 108.555 73.6218C108.831 73.6218 109.128 73.528 109.447 73.3403ZM111.084 71.1634C110.896 71.1634 110.737 71.1009 110.605 70.9758C110.48 70.8506 110.418 70.6943 110.418 70.5066C110.418 70.3252 110.48 70.1719 110.605 70.0468C110.737 69.9217 110.896 69.8592 111.084 69.8592C111.265 69.8592 111.419 69.9217 111.544 70.0468C111.669 70.1719 111.731 70.3252 111.731 70.5066C111.731 70.6943 111.669 70.8506 111.544 70.9758C111.419 71.1009 111.265 71.1634 111.084 71.1634ZM111.084 74.5976C110.896 74.5976 110.737 74.5351 110.605 74.41C110.48 74.2849 110.418 74.1285 110.418 73.9408C110.418 73.7594 110.48 73.6062 110.605 73.481C110.737 73.3559 110.896 73.2934 111.084 73.2934C111.265 73.2934 111.419 73.3559 111.544 73.481C111.669 73.6062 111.731 73.7594 111.731 73.9408C111.731 74.1285 111.669 74.2849 111.544 74.41C111.419 74.5351 111.265 74.5976 111.084 74.5976Z" fill="#303030"/>
<path d="M34.8445 132.066H37.2372C37.9941 132.066 38.5664 132.282 38.9543 132.713C39.3484 133.139 39.5454 133.655 39.5454 134.262C39.5454 134.862 39.3421 135.375 38.9355 135.8C38.5352 136.219 37.9378 136.429 37.1433 136.429H35.9235V139H34.8445V132.066ZM35.9235 135.434H37.1715C37.5718 135.434 37.8846 135.322 38.1098 135.097C38.335 134.865 38.4476 134.581 38.4476 134.243C38.4476 133.905 38.3444 133.627 38.138 133.408C37.9315 133.189 37.6469 133.079 37.2841 133.079H35.9235V135.434ZM44.316 134.646V133.943H45.3106V139H44.316V138.306C43.8594 138.85 43.2839 139.122 42.5895 139.122C41.8576 139.122 41.254 138.866 40.7786 138.353C40.3032 137.84 40.0655 137.202 40.0655 136.438C40.0655 135.682 40.3032 135.056 40.7786 134.562C41.254 134.068 41.8576 133.821 42.5895 133.821C43.2839 133.821 43.8594 134.096 44.316 134.646ZM42.7303 138.174C43.1994 138.174 43.5904 138.009 43.9031 137.677C44.2097 137.352 44.3629 136.948 44.3629 136.467C44.3629 135.991 44.2097 135.591 43.9031 135.266C43.5904 134.934 43.1994 134.768 42.7303 134.768C42.2486 134.768 41.8576 134.934 41.5574 135.266C41.2571 135.591 41.107 135.994 41.107 136.476C41.107 136.958 41.2571 137.361 41.5574 137.686C41.8576 138.012 42.2486 138.174 42.7303 138.174ZM48.7631 137.593L50.058 133.943H51.1933L49.1009 139.46C48.8757 140.054 48.613 140.483 48.3127 140.745C48.0124 141.014 47.6465 141.149 47.2149 141.149C46.8583 141.149 46.5706 141.077 46.3516 140.933L46.5018 140.042C46.7457 140.148 46.9553 140.201 47.1304 140.201C47.537 140.201 47.8686 139.913 48.125 139.338L48.2845 138.962L46.0889 133.943H47.2806L48.7631 137.593ZM57.9148 133.802C58.5215 133.802 59.0095 133.999 59.3785 134.393C59.7539 134.774 59.9415 135.303 59.9415 135.979V139H58.9094V136.148C58.9094 135.71 58.8062 135.372 58.5997 135.134C58.3933 134.89 58.1118 134.768 57.7553 134.768C57.3799 134.768 57.0734 134.896 56.8357 135.153C56.6043 135.409 56.4885 135.75 56.4885 136.176V139H55.4564V136.166C55.4564 135.735 55.3501 135.394 55.1374 135.144C54.9309 134.893 54.6494 134.768 54.2929 134.768C53.9176 134.768 53.6111 134.9 53.3733 135.162C53.1356 135.419 53.0168 135.763 53.0168 136.194V139H51.9846V133.943H52.998V134.674C53.1482 134.405 53.3577 134.193 53.6267 134.036C53.8957 133.88 54.1959 133.802 54.5275 133.802C54.8715 133.808 55.1843 133.892 55.4658 134.055C55.7473 134.218 55.9537 134.443 56.0851 134.731C56.2602 134.449 56.5104 134.224 56.8357 134.055C57.1673 133.886 57.5269 133.802 57.9148 133.802ZM65.9786 136.373C65.9786 136.535 65.9661 136.701 65.9411 136.87H61.9908C62.0658 137.277 62.2441 137.599 62.5256 137.836C62.8134 138.074 63.195 138.193 63.6704 138.193C63.9581 138.193 64.2584 138.143 64.5711 138.043C64.8902 137.943 65.1623 137.811 65.3875 137.649L65.8191 138.409C65.1873 138.878 64.4585 139.113 63.6328 139.113C62.7446 139.113 62.069 138.853 61.6061 138.334C61.1494 137.815 60.9211 137.189 60.9211 136.457C60.9211 135.694 61.1588 135.065 61.6342 134.571C62.1159 134.071 62.7383 133.821 63.5015 133.821C64.2333 133.821 64.8276 134.049 65.2843 134.505C65.7472 134.968 65.9786 135.591 65.9786 136.373ZM63.5015 134.712C63.1136 134.712 62.7821 134.834 62.5069 135.078C62.2379 135.316 62.0658 135.631 61.9908 136.026H64.9371C64.8933 135.631 64.7369 135.316 64.4679 135.078C64.2052 134.834 63.883 134.712 63.5015 134.712ZM68.0261 139H66.994V133.943H68.0073V134.656C68.1575 134.393 68.3733 134.186 68.6548 134.036C68.9363 133.886 69.2553 133.811 69.6119 133.811C70.1686 133.811 70.6377 133.993 71.0193 134.355C71.4072 134.724 71.6011 135.247 71.6011 135.922V139H70.5595V136.213C70.5595 135.757 70.4501 135.403 70.2311 135.153C70.0122 134.896 69.7182 134.768 69.3491 134.768C68.9613 134.768 68.6423 134.906 68.392 135.181C68.1481 135.45 68.0261 135.8 68.0261 136.232V139ZM75.8715 137.893L76.228 138.7C75.8527 138.981 75.3867 139.122 74.83 139.122C74.2857 139.122 73.8729 138.956 73.5914 138.625C73.3099 138.293 73.1692 137.815 73.1692 137.189V134.825H72.2965V133.943H73.1785V132.15H74.2013V133.943H75.9466V134.825H74.2013V137.208C74.2013 137.852 74.4609 138.174 74.9801 138.174C75.2553 138.174 75.5525 138.08 75.8715 137.893ZM80.4931 139H79.4234V132.066H80.0146L82.9233 136.316L85.8133 132.066H86.4232V139H85.3348V134.562L83.0735 137.865H82.7544L80.4931 134.562V139ZM92.6344 136.373C92.6344 136.535 92.6218 136.701 92.5968 136.87H88.6465C88.7216 137.277 88.8999 137.599 89.1814 137.836C89.4691 138.074 89.8507 138.193 90.3261 138.193C90.6139 138.193 90.9141 138.143 91.2269 138.043C91.5459 137.943 91.818 137.811 92.0432 137.649L92.4748 138.409C91.843 138.878 91.1143 139.113 90.2886 139.113C89.4003 139.113 88.7247 138.853 88.2618 138.334C87.8052 137.815 87.5769 137.189 87.5769 136.457C87.5769 135.694 87.8146 135.065 88.29 134.571C88.7716 134.071 89.394 133.821 90.1572 133.821C90.8891 133.821 91.4834 134.049 91.94 134.505C92.4029 134.968 92.6344 135.591 92.6344 136.373ZM90.1572 134.712C89.7694 134.712 89.4378 134.834 89.1626 135.078C88.8936 135.316 88.7216 135.631 88.6465 136.026H91.5928C91.549 135.631 91.3927 135.316 91.1237 135.078C90.8609 134.834 90.5388 134.712 90.1572 134.712ZM96.6261 137.893L96.9827 138.7C96.6074 138.981 96.1413 139.122 95.5846 139.122C95.0404 139.122 94.6275 138.956 94.346 138.625C94.0645 138.293 93.9238 137.815 93.9238 137.189V134.825H93.0512V133.943H93.9332V132.15H94.9559V133.943H96.7012V134.825H94.9559V137.208C94.9559 137.852 95.2155 138.174 95.7347 138.174C96.01 138.174 96.3071 138.08 96.6261 137.893ZM98.7137 139H97.6815V131.888H98.6855V134.581C98.8356 134.343 99.0514 134.155 99.3329 134.018C99.6207 133.88 99.9397 133.811 100.29 133.811C100.847 133.811 101.316 133.993 101.697 134.355C102.079 134.718 102.27 135.24 102.27 135.922V139H101.238V136.213C101.238 135.757 101.128 135.403 100.909 135.153C100.69 134.896 100.396 134.768 100.027 134.768C99.6395 134.768 99.3236 134.903 99.0796 135.172C98.8356 135.441 98.7137 135.791 98.7137 136.223V139ZM103.246 136.467C103.246 135.735 103.496 135.109 103.996 134.59C104.503 134.071 105.144 133.811 105.92 133.811C106.696 133.811 107.334 134.071 107.834 134.59C108.341 135.103 108.594 135.728 108.594 136.467C108.594 137.217 108.341 137.849 107.834 138.362C107.34 138.875 106.702 139.131 105.92 139.131C105.144 139.131 104.503 138.875 103.996 138.362C103.496 137.843 103.246 137.211 103.246 136.467ZM107.553 136.467C107.553 136.004 107.393 135.606 107.074 135.275C106.767 134.937 106.383 134.768 105.92 134.768C105.463 134.768 105.075 134.937 104.756 135.275C104.444 135.606 104.287 136.004 104.287 136.467C104.287 136.936 104.444 137.336 104.756 137.668C105.075 137.999 105.463 138.165 105.92 138.165C106.377 138.165 106.761 137.999 107.074 137.668C107.393 137.336 107.553 136.936 107.553 136.467ZM113.543 134.646V131.888H114.585V139H113.562V138.296C113.124 138.847 112.558 139.122 111.864 139.122C111.132 139.122 110.528 138.869 110.053 138.362C109.571 137.843 109.33 137.211 109.33 136.467C109.33 135.728 109.571 135.103 110.053 134.59C110.528 134.077 111.128 133.821 111.854 133.821C112.523 133.821 113.086 134.096 113.543 134.646ZM113.618 136.467C113.618 135.991 113.468 135.591 113.168 135.266C112.868 134.934 112.477 134.768 111.995 134.768C111.513 134.768 111.122 134.934 110.822 135.266C110.522 135.591 110.372 135.991 110.372 136.467C110.372 136.954 110.522 137.361 110.822 137.686C111.122 138.012 111.513 138.174 111.995 138.174C112.477 138.174 112.868 138.012 113.168 137.686C113.468 137.361 113.618 136.954 113.618 136.467ZM116.498 135.716C116.31 135.716 116.151 135.653 116.019 135.528C115.894 135.403 115.832 135.247 115.832 135.059C115.832 134.878 115.894 134.724 116.019 134.599C116.151 134.474 116.31 134.412 116.498 134.412C116.679 134.412 116.833 134.474 116.958 134.599C117.083 134.724 117.145 134.878 117.145 135.059C117.145 135.247 117.083 135.403 116.958 135.528C116.833 135.653 116.679 135.716 116.498 135.716ZM116.498 139.15C116.31 139.15 116.151 139.088 116.019 138.962C115.894 138.837 115.832 138.681 115.832 138.493C115.832 138.312 115.894 138.159 116.019 138.034C116.151 137.908 116.31 137.846 116.498 137.846C116.679 137.846 116.833 137.908 116.958 138.034C117.083 138.159 117.145 138.312 117.145 138.493C117.145 138.681 117.083 138.837 116.958 138.962C116.833 139.088 116.679 139.15 116.498 139.15Z" fill="#303030"/>
<path d="M59.9784 158.103C58.9713 158.103 58.1268 157.772 57.445 157.109C56.7569 156.439 56.4129 155.589 56.4129 154.556C56.4129 153.505 56.7632 152.642 57.4638 151.967C58.1644 151.285 59.012 150.944 60.0066 150.944C60.6259 150.944 61.2045 151.082 61.7425 151.357C62.2742 151.626 62.6902 151.985 62.9904 152.436L62.221 153.13C61.6518 152.373 60.923 151.995 60.0347 151.995C59.3341 151.995 58.7399 152.239 58.2519 152.727C57.7703 153.221 57.5294 153.831 57.5294 154.556C57.5294 155.288 57.7672 155.889 58.2426 156.358C58.7242 156.827 59.3185 157.062 60.0254 157.062C60.9449 157.062 61.6893 156.686 62.2585 155.936L63.028 156.611C62.6964 157.068 62.2617 157.431 61.7237 157.7C61.1857 157.969 60.604 158.103 59.9784 158.103ZM67.8554 153.646V152.943H68.85V158H67.8554V157.306C67.3988 157.85 66.8233 158.122 66.1289 158.122C65.397 158.122 64.7934 157.866 64.318 157.353C63.8426 156.84 63.6049 156.202 63.6049 155.438C63.6049 154.682 63.8426 154.056 64.318 153.562C64.7934 153.068 65.397 152.821 66.1289 152.821C66.8233 152.821 67.3988 153.096 67.8554 153.646ZM66.2697 157.174C66.7388 157.174 67.1298 157.009 67.4426 156.677C67.7491 156.352 67.9023 155.948 67.9023 155.467C67.9023 154.991 67.7491 154.591 67.4426 154.266C67.1298 153.934 66.7388 153.768 66.2697 153.768C65.788 153.768 65.397 153.934 65.0968 154.266C64.7965 154.591 64.6464 154.994 64.6464 155.476C64.6464 155.958 64.7965 156.361 65.0968 156.686C65.397 157.012 65.788 157.174 66.2697 157.174ZM71.6832 158.122C71.2829 158.122 70.9107 158.031 70.5666 157.85C70.2226 157.668 69.9473 157.406 69.7409 157.062L70.4071 156.461C70.5572 156.705 70.748 156.896 70.9795 157.034C71.2172 157.165 71.458 157.231 71.702 157.231C71.9459 157.231 72.1461 157.171 72.3025 157.052C72.4589 156.927 72.5371 156.777 72.5371 156.602C72.5371 156.352 72.3932 156.158 72.1055 156.02C72.0304 155.976 71.8271 155.892 71.4956 155.767C71.1578 155.623 70.9451 155.526 70.8575 155.476C70.3195 155.194 70.0506 154.778 70.0506 154.228C70.0506 153.809 70.2069 153.462 70.5197 153.186C70.845 152.911 71.2641 152.774 71.777 152.774C72.4964 152.774 73.05 153.033 73.4379 153.552L72.8373 154.19C72.5371 153.821 72.168 153.637 71.7301 153.637C71.5237 153.637 71.3579 153.69 71.2328 153.796C71.114 153.903 71.0545 154.034 71.0545 154.19C71.0545 154.441 71.1953 154.625 71.4768 154.744L71.9929 154.96C72.3244 155.097 72.5621 155.204 72.706 155.279C73.2815 155.579 73.5692 156.005 73.5692 156.555C73.5692 156.999 73.3941 157.371 73.0438 157.672C72.6935 157.972 72.2399 158.122 71.6832 158.122ZM75.6032 158H74.5711V150.888H75.5751V153.581C75.7252 153.343 75.941 153.155 76.2225 153.018C76.5103 152.88 76.8293 152.811 77.1796 152.811C77.7363 152.811 78.2055 152.993 78.5871 153.355C78.9686 153.718 79.1594 154.24 79.1594 154.922V158H78.1273V155.213C78.1273 154.757 78.0178 154.403 77.7989 154.153C77.5799 153.896 77.2859 153.768 76.9169 153.768C76.529 153.768 76.2131 153.903 75.9692 154.172C75.7252 154.441 75.6032 154.791 75.6032 155.223V158Z" fill="#303030"/>
<path d="M36.389 91.9501H43.1578C45.299 91.9501 46.9182 92.5607 48.0154 93.7817C49.1303 94.985 49.6877 96.445 49.6877 98.1615C49.6877 99.8604 49.1126 101.311 47.9623 102.515C46.8298 103.7 45.1398 104.293 42.8924 104.293H39.4416V111.566H36.389V91.9501ZM39.4416 101.48H42.972C44.1045 101.48 44.9894 101.161 45.6264 100.524C46.2635 99.8692 46.582 99.064 46.582 98.1084C46.582 97.1528 46.29 96.3653 45.7061 95.746C45.1221 95.1266 44.3169 94.8169 43.2905 94.8169H39.4416V101.48ZM63.1834 99.2498V97.259H65.9971V111.566H63.1834V109.602C61.8916 111.142 60.2635 111.911 58.2993 111.911C56.2288 111.911 54.5211 111.186 53.1762 109.735C51.8313 108.284 51.1588 106.479 51.1588 104.32C51.1588 102.179 51.8313 100.409 53.1762 99.0109C54.5211 97.6129 56.2288 96.9139 58.2993 96.9139C60.2635 96.9139 61.8916 97.6926 63.1834 99.2498ZM58.6974 109.231C60.0247 109.231 61.1307 108.762 62.0155 107.824C62.8826 106.903 63.3161 105.762 63.3161 104.399C63.3161 103.055 62.8826 101.922 62.0155 101.002C61.1307 100.064 60.0247 99.5949 58.6974 99.5949C57.3348 99.5949 56.2288 100.064 55.3794 101.002C54.53 101.922 54.1053 103.063 54.1053 104.426C54.1053 105.789 54.53 106.93 55.3794 107.85C56.2288 108.77 57.3348 109.231 58.6974 109.231ZM75.764 107.585L79.4271 97.259H82.639L76.7196 112.867C76.0825 114.548 75.3393 115.76 74.4899 116.504C73.6404 117.265 72.6052 117.645 71.3842 117.645C70.3755 117.645 69.5615 117.442 68.9421 117.035L69.3668 114.513C70.057 114.814 70.6498 114.964 71.1453 114.964C72.2955 114.964 73.2334 114.15 73.959 112.522L74.4102 111.46L68.1989 97.259H71.57L75.764 107.585ZM102.64 100.842C103.807 101.161 104.719 101.78 105.374 102.701C106.028 103.621 106.356 104.691 106.356 105.912C106.356 107.434 105.807 108.762 104.71 109.894C103.613 111.009 102.117 111.566 100.224 111.566H91.8625V91.9501H99.8524C101.569 91.9501 102.905 92.4368 103.861 93.4101C104.834 94.3834 105.32 95.5248 105.32 96.8343C105.32 97.7191 105.073 98.5331 104.577 99.2764C104.099 100.02 103.454 100.542 102.64 100.842ZM99.4011 94.7373H94.8886V99.8073H99.2949C100.18 99.8073 100.888 99.5507 101.418 99.0375C101.949 98.5243 102.215 97.9049 102.215 97.1794C102.215 96.4892 101.958 95.9141 101.445 95.454C100.932 94.9762 100.251 94.7373 99.4011 94.7373ZM94.8886 108.779H99.6931C100.737 108.779 101.578 108.478 102.215 107.877C102.852 107.275 103.17 106.541 103.17 105.674C103.17 104.771 102.852 104.019 102.215 103.417C101.595 102.816 100.728 102.515 99.6135 102.515H94.8886V108.779ZM120.523 99.2498V97.259H123.337V111.566H120.523V109.602C119.232 111.142 117.603 111.911 115.639 111.911C113.569 111.911 111.861 111.186 110.516 109.735C109.171 108.284 108.499 106.479 108.499 104.32C108.499 102.179 109.171 100.409 110.516 99.0109C111.861 97.6129 113.569 96.9139 115.639 96.9139C117.603 96.9139 119.232 97.6926 120.523 99.2498ZM116.037 109.231C117.365 109.231 118.471 108.762 119.355 107.824C120.223 106.903 120.656 105.762 120.656 104.399C120.656 103.055 120.223 101.922 119.355 101.002C118.471 100.064 117.365 99.5949 116.037 99.5949C114.675 99.5949 113.569 100.064 112.719 101.002C111.87 101.922 111.445 103.063 111.445 104.426C111.445 105.789 111.87 106.93 112.719 107.85C113.569 108.77 114.675 109.231 116.037 109.231ZM131.352 111.911C130.219 111.911 129.166 111.655 128.193 111.142C127.22 110.629 126.441 109.885 125.857 108.912L127.742 107.213C128.167 107.903 128.706 108.443 129.361 108.832C130.034 109.204 130.715 109.39 131.405 109.39C132.095 109.39 132.662 109.222 133.104 108.885C133.546 108.532 133.768 108.107 133.768 107.611C133.768 106.903 133.361 106.355 132.546 105.966C132.334 105.842 131.759 105.603 130.821 105.249C129.865 104.842 129.264 104.568 129.016 104.426C127.494 103.63 126.733 102.453 126.733 100.896C126.733 99.7099 127.176 98.7278 128.06 97.9492C128.981 97.1705 130.166 96.7812 131.617 96.7812C133.652 96.7812 135.219 97.5156 136.316 98.9844L134.617 100.789C133.768 99.7453 132.723 99.2233 131.485 99.2233C130.901 99.2233 130.432 99.3737 130.078 99.6745C129.742 99.9754 129.574 100.347 129.574 100.789C129.574 101.497 129.972 102.019 130.768 102.356L132.228 102.966C133.166 103.355 133.838 103.656 134.245 103.869C135.873 104.718 136.687 105.921 136.687 107.479C136.687 108.735 136.192 109.788 135.201 110.637C134.21 111.487 132.927 111.911 131.352 111.911ZM152.98 104.134C152.98 104.594 152.945 105.063 152.874 105.541H141.699C141.911 106.691 142.416 107.602 143.212 108.275C144.026 108.947 145.105 109.284 146.45 109.284C147.264 109.284 148.114 109.142 148.999 108.859C149.901 108.576 150.671 108.204 151.308 107.744L152.529 109.894C150.742 111.221 148.68 111.885 146.344 111.885C143.831 111.885 141.92 111.151 140.611 109.682C139.319 108.213 138.673 106.443 138.673 104.373C138.673 102.214 139.345 100.435 140.69 99.0375C142.053 97.6218 143.814 96.9139 145.973 96.9139C148.043 96.9139 149.724 97.5598 151.016 98.8517C152.325 100.161 152.98 101.922 152.98 104.134ZM145.973 99.4356C144.875 99.4356 143.937 99.7807 143.159 100.471C142.398 101.143 141.911 102.037 141.699 103.152H150.034C149.91 102.037 149.468 101.143 148.707 100.471C147.963 99.7807 147.052 99.4356 145.973 99.4356ZM157.498 102.276C156.967 102.276 156.516 102.099 156.145 101.745C155.791 101.391 155.614 100.949 155.614 100.418C155.614 99.9046 155.791 99.471 156.145 99.1171C156.516 98.7632 156.967 98.5862 157.498 98.5862C158.012 98.5862 158.445 98.7632 158.799 99.1171C159.153 99.471 159.33 99.9046 159.33 100.418C159.33 100.949 159.153 101.391 158.799 101.745C158.445 102.099 158.012 102.276 157.498 102.276ZM157.498 111.991C156.967 111.991 156.516 111.814 156.145 111.46C155.791 111.106 155.614 110.664 155.614 110.133C155.614 109.62 155.791 109.186 156.145 108.832C156.516 108.478 156.967 108.301 157.498 108.301C158.012 108.301 158.445 108.478 158.799 108.832C159.153 109.186 159.33 109.62 159.33 110.133C159.33 110.664 159.153 111.106 158.799 111.46C158.445 111.814 158.012 111.991 157.498 111.991ZM169.913 111.566V104.745H167.843V103.046H169.913V100.869H167.843V99.1702H169.913V92.6137H172.674L175.195 99.1702H178.328V92.6137H180.425V99.1702H182.495V100.869H180.425V103.046H182.495V104.745H180.425V111.566H177.637L175.116 104.745H171.983V111.566H169.913ZM171.983 103.046H174.479L173.682 100.869H171.93L171.983 103.046ZM178.328 107.824H178.434L178.354 104.745H177.239L178.328 107.824ZM171.93 99.1702H173.045L171.93 95.8787H171.824L171.93 99.1702ZM176.602 103.046H178.381L178.328 100.869H175.806L176.602 103.046ZM182.821 96.675L188.528 91.9501H190.89V111.566H187.864V96.0645L184.466 98.8251L182.821 96.675ZM205.901 111.009C204.856 111.593 203.671 111.885 202.344 111.885C201.016 111.885 199.831 111.593 198.787 111.009C196.982 109.965 195.725 108.107 195.017 105.435C194.752 104.214 194.619 102.984 194.619 101.745C194.619 100.489 194.752 99.2675 195.017 98.0819C195.283 96.8962 195.734 95.8079 196.371 94.8169C197.026 93.8259 197.831 93.0473 198.787 92.481C199.813 91.8971 200.999 91.6051 202.344 91.6051C203.671 91.6051 204.856 91.8971 205.901 92.481C207.759 93.5074 209.006 95.3655 209.643 98.0553C210.28 100.515 210.28 102.975 209.643 105.435C209.006 108.124 207.759 109.983 205.901 111.009ZM202.344 109.018C203.919 109.018 205.086 108.346 205.847 107.001C206.626 105.638 207.015 103.886 207.015 101.745C207.015 99.6215 206.626 97.8784 205.847 96.5158C205.069 95.1532 203.901 94.4719 202.344 94.4719C200.786 94.4719 199.618 95.1532 198.84 96.5158C198.079 97.8607 197.698 99.6038 197.698 101.745C197.663 103.869 198.035 105.612 198.813 106.974C199.609 108.319 200.786 109 202.344 109.018ZM223.994 111.009C222.95 111.593 221.764 111.885 220.437 111.885C219.11 111.885 217.924 111.593 216.88 111.009C215.075 109.965 213.819 108.107 213.111 105.435C212.846 104.214 212.713 102.984 212.713 101.745C212.713 100.489 212.846 99.2675 213.111 98.0819C213.376 96.8962 213.828 95.8079 214.465 94.8169C215.12 93.8259 215.925 93.0473 216.88 92.481C217.907 91.8971 219.092 91.6051 220.437 91.6051C221.764 91.6051 222.95 91.8971 223.994 92.481C225.852 93.5074 227.1 95.3655 227.737 98.0553C228.374 100.515 228.374 102.975 227.737 105.435C227.1 108.124 225.852 109.983 223.994 111.009ZM220.437 109.018C222.012 109.018 223.18 108.346 223.941 107.001C224.72 105.638 225.109 103.886 225.109 101.745C225.109 99.6215 224.72 97.8784 223.941 96.5158C223.162 95.1532 221.995 94.4719 220.437 94.4719C218.88 94.4719 217.712 95.1532 216.933 96.5158C216.172 97.8607 215.792 99.6038 215.792 101.745C215.757 103.869 216.128 105.612 216.907 106.974C217.703 108.319 218.88 109 220.437 109.018ZM242.088 111.009C241.044 111.593 239.858 111.885 238.531 111.885C237.204 111.885 236.018 111.593 234.974 111.009C233.169 109.965 231.913 108.107 231.205 105.435C230.939 104.214 230.807 102.984 230.807 101.745C230.807 100.489 230.939 99.2675 231.205 98.0819C231.47 96.8962 231.921 95.8079 232.558 94.8169C233.213 93.8259 234.018 93.0473 234.974 92.481C236 91.8971 237.186 91.6051 238.531 91.6051C239.858 91.6051 241.044 91.8971 242.088 92.481C243.946 93.5074 245.194 95.3655 245.831 98.0553C246.468 100.515 246.468 102.975 245.831 105.435C245.194 108.124 243.946 109.983 242.088 111.009ZM238.531 109.018C240.106 109.018 241.274 108.346 242.035 107.001C242.813 105.638 243.203 103.886 243.203 101.745C243.203 99.6215 242.813 97.8784 242.035 96.5158C241.256 95.1532 240.088 94.4719 238.531 94.4719C236.974 94.4719 235.806 95.1532 235.027 96.5158C234.266 97.8607 233.886 99.6038 233.886 101.745C233.85 103.869 234.222 105.612 235.001 106.974C235.797 108.319 236.974 109 238.531 109.018Z" fill="#00ABE7"/>
<path d="M122.73 70.0625C123.394 70.0625 123.947 70.2752 124.391 70.7006C124.835 71.1259 125.057 71.6702 125.057 72.3332C125.057 73.0213 124.823 73.5843 124.354 74.0222C123.897 74.4601 123.297 74.679 122.552 74.679C121.726 74.679 120.976 74.4069 120.3 73.8627L120.779 73.0182C121.367 73.4623 121.945 73.6844 122.515 73.6844C122.94 73.6844 123.29 73.5562 123.566 73.2997C123.835 73.0495 123.969 72.7304 123.969 72.3426C123.969 71.9735 123.838 71.6608 123.575 71.4043C123.318 71.1541 122.987 71.029 122.58 71.029C122.092 71.029 121.68 71.201 121.342 71.545L120.666 71.0947L121.051 67.6323H124.588V68.6081H121.877L121.67 70.2971C121.989 70.1407 122.343 70.0625 122.73 70.0625ZM127.123 74.5664H126.091V67.454H127.095V70.147C127.245 69.9093 127.461 69.7216 127.742 69.584C128.03 69.4464 128.349 69.3775 128.699 69.3775C129.256 69.3775 129.725 69.559 130.107 69.9218C130.488 70.2846 130.679 70.8069 130.679 71.4887V74.5664H129.647V71.7796C129.647 71.323 129.538 70.9695 129.319 70.7193C129.1 70.4629 128.806 70.3346 128.437 70.3346C128.049 70.3346 127.733 70.4691 127.489 70.7381C127.245 71.0071 127.123 71.3574 127.123 71.789V74.5664ZM131.655 72.033C131.655 71.3011 131.905 70.6755 132.406 70.1563C132.912 69.6371 133.554 69.3775 134.329 69.3775C135.105 69.3775 135.743 69.6371 136.243 70.1563C136.75 70.6693 137.003 71.2948 137.003 72.033C137.003 72.7836 136.75 73.4154 136.243 73.9284C135.749 74.4413 135.111 74.6978 134.329 74.6978C133.554 74.6978 132.912 74.4413 132.406 73.9284C131.905 73.4092 131.655 72.7774 131.655 72.033ZM135.962 72.033C135.962 71.5701 135.802 71.1728 135.483 70.8413C135.177 70.5035 134.792 70.3346 134.329 70.3346C133.873 70.3346 133.485 70.5035 133.166 70.8413C132.853 71.1728 132.697 71.5701 132.697 72.033C132.697 72.5021 132.853 72.9025 133.166 73.234C133.485 73.5655 133.873 73.7313 134.329 73.7313C134.786 73.7313 135.171 73.5655 135.483 73.234C135.802 72.9025 135.962 72.5021 135.962 72.033ZM140.188 74.6884C139.513 74.6884 138.975 74.4913 138.574 74.0973C138.174 73.7032 137.974 73.1683 137.974 72.4927V69.5089H139.006V72.4834C139.006 72.8649 139.109 73.1683 139.316 73.3935C139.528 73.6187 139.819 73.7313 140.188 73.7313C140.564 73.7313 140.855 73.6218 141.061 73.4029C141.267 73.184 141.371 72.8774 141.371 72.4834V69.5089H142.412V72.4927C142.412 73.1808 142.215 73.7188 141.821 74.1066C141.427 74.4945 140.883 74.6884 140.188 74.6884ZM144.707 74.5664H143.675V69.5089H144.66V70.2314C144.96 69.6622 145.439 69.3775 146.096 69.3775C146.309 69.3775 146.509 69.4057 146.696 69.462L146.603 70.466C146.434 70.4034 146.249 70.3722 146.049 70.3722C145.642 70.3722 145.317 70.5098 145.073 70.785C144.829 71.0602 144.707 71.4575 144.707 71.9767V74.5664ZM148.851 74.6884C148.45 74.6884 148.078 74.5977 147.734 74.4163C147.39 74.2349 147.115 73.9721 146.908 73.6281L147.575 73.0276C147.725 73.2715 147.916 73.4623 148.147 73.5999C148.385 73.7313 148.626 73.797 148.869 73.797C149.113 73.797 149.314 73.7376 149.47 73.6187C149.626 73.4936 149.705 73.3435 149.705 73.1683C149.705 72.9181 149.561 72.7242 149.273 72.5866C149.198 72.5428 148.995 72.4583 148.663 72.3332C148.325 72.1894 148.113 72.0924 148.025 72.0423C147.487 71.7609 147.218 71.3449 147.218 70.7944C147.218 70.3753 147.374 70.0281 147.687 69.7529C148.013 69.4776 148.432 69.34 148.945 69.34C149.664 69.34 150.218 69.5996 150.605 70.1188L150.005 70.7569C149.705 70.3878 149.336 70.2033 148.898 70.2033C148.691 70.2033 148.525 70.2564 148.4 70.3628C148.281 70.4691 148.222 70.6005 148.222 70.7569C148.222 71.0071 148.363 71.1916 148.644 71.3105L149.16 71.5263C149.492 71.6639 149.73 71.7702 149.873 71.8453C150.449 72.1456 150.737 72.5709 150.737 73.1214C150.737 73.5655 150.562 73.9377 150.211 74.238C149.861 74.5383 149.407 74.6884 148.851 74.6884Z" fill="#303030"/>
<defs>
<filter id="filter0_d_617_452" x="0.451847" y="0.451847" width="387.096" height="194.096" filterUnits="userSpaceOnUse" color-interpolation-filters="sRGB">
<feFlood flood-opacity="0" result="BackgroundImageFix"/>
<feColorMatrix in="SourceAlpha" type="matrix" values="0 0 0 0 0 0 0 0 0 0 0 0 0 0 0 0 0 0 127 0" result="hardAlpha"/>
<feOffset/>
<feGaussianBlur stdDeviation="9.77408"/>
<feComposite in2="hardAlpha" operator="out"/>
<feColorMatrix type="matrix" values="0 0 0 0 0.470208 0 0 0 0 0.498431 0 0 0 0 0.508333 0 0 0 0.2 0"/>
<feBlend mode="normal" in2="BackgroundImageFix" result="effect1_dropShadow_617_452"/>
<feBlend mode="normal" in="SourceGraphic" in2="effect1_dropShadow_617_452" result="shape"/>
</filter>
<linearGradient id="paint0_linear_617_452" x1="216.674" y1="6.427" x2="216.674" y2="128.983" gradientUnits="userSpaceOnUse">
<stop stop-color="#C275F9" stop-opacity="0.98"/>
<stop offset="1" stop-color="#00ABE7" stop-opacity="0"/>
</linearGradient>
</defs>
</svg>
