<svg width="102" height="47" viewBox="0 0 102 47" fill="none" xmlns="http://www.w3.org/2000/svg">
<path d="M10.7037 26.7259C11.9736 26.6999 13.2343 26.95 14.4011 27.4592C15.5679 27.9685 16.6138 28.7253 17.4686 29.6786C19.2798 31.6127 20.1854 34.0179 20.1854 36.8944C20.1854 39.7708 19.2762 42.1723 17.4577 44.099C16.5908 45.0309 15.5407 45.7674 14.3753 46.2608C13.2098 46.7543 11.9552 46.9935 10.6928 46.9631C9.55364 46.9839 8.42528 46.736 7.39655 46.239C6.36783 45.742 5.46683 45.0094 4.76449 44.099V46.5055H0V19.6135H4.91724V29.4498C5.62214 28.5885 6.50711 27.8972 7.50797 27.426C8.50883 26.9549 9.60048 26.7157 10.7037 26.7259ZM4.70629 36.8464C4.67642 38.3064 5.19676 39.7229 6.1611 40.8067C6.63929 41.3307 7.22289 41.7443 7.87237 42.0194C8.52184 42.2945 9.22201 42.4247 9.92541 42.4012C10.6288 42.4247 11.329 42.2945 11.9784 42.0194C12.6279 41.7443 13.2115 41.3307 13.6897 40.8067C14.6619 39.7277 15.1834 38.3079 15.1445 36.8464C15.186 35.3943 14.6635 33.9839 13.6897 32.9192C13.2115 32.3952 12.6279 31.9816 11.9784 31.7065C11.329 31.4314 10.6288 31.3012 9.92541 31.3248C9.22284 31.3062 8.52462 31.442 7.87864 31.723C7.23265 32.0039 6.65419 32.4234 6.18292 32.9525C5.20479 34.0026 4.6742 35.4017 4.70629 36.8464Z" fill="#00ABE7"/>
<path d="M38.105 29.5272V27.2204H42.7785V46.5054H38.105V44.2909C37.3453 45.1572 36.4096 45.846 35.3623 46.3099C34.3149 46.7738 33.1809 47.0017 32.0384 46.9778C30.7721 47.0163 29.5126 46.7771 28.3457 46.2764C27.1789 45.7758 26.1322 45.0255 25.2772 44.0768C23.5096 42.1427 22.6259 39.7141 22.6259 36.7909C22.6259 33.8677 23.5206 31.4736 25.31 29.6084C26.1678 28.6746 27.2111 27.9361 28.371 27.4418C29.5308 26.9474 30.7808 26.7084 32.0384 26.7406C33.1883 26.7304 34.3266 26.9744 35.3743 27.4556C36.4219 27.9368 37.3537 28.6437 38.105 29.5272ZM38.1777 36.8537C38.1954 35.3907 37.6439 33.9796 36.6429 32.9266C36.1451 32.411 35.5509 32.0014 34.8952 31.7217C34.2395 31.4421 33.5353 31.2981 32.824 31.2981C32.1128 31.2981 31.4086 31.4421 30.7529 31.7217C30.0971 32.0014 29.503 32.411 29.0052 32.9266C28.0567 34.0168 27.5363 35.423 27.543 36.8773C27.5497 38.3317 28.083 39.7328 29.0415 40.814C29.5359 41.329 30.127 41.7382 30.7797 42.0177C31.4325 42.2971 32.1338 42.4411 32.8422 42.4411C33.5507 42.4411 34.252 42.2971 34.9047 42.0177C35.5575 41.7382 36.1485 41.329 36.6429 40.814C37.654 39.7503 38.2096 38.3241 38.1886 36.8463L38.1777 36.8537Z" fill="#00ABE7"/>
<path d="M53.5513 47C50.2489 47 47.6339 45.7611 45.7063 43.2833L48.3213 40.1349C48.985 40.9537 49.8101 41.6225 50.7436 42.0985C51.6191 42.5701 52.5929 42.8231 53.5841 42.8367C54.2454 42.8614 54.8978 42.6755 55.4499 42.3052C55.6776 42.165 55.866 41.9678 55.9972 41.7326C56.1284 41.4974 56.1979 41.232 56.1991 40.9617C56.1991 40.2789 55.7481 39.7215 54.8425 39.2971C54.5636 39.179 53.8083 38.8849 52.5766 38.415C51.7424 38.1229 50.9263 37.7803 50.1325 37.3889C47.9503 36.3259 46.8592 34.6625 46.8592 32.3988C46.8474 31.5975 47.0174 30.8043 47.3561 30.0804C47.6947 29.3566 48.193 28.7215 48.8123 28.2244C50.0901 27.1245 51.8092 26.5745 53.9696 26.5745C56.6658 26.5745 58.8856 27.4948 60.629 29.3353L58.1922 32.5649C56.8634 31.2927 55.4086 30.6554 53.8277 30.653C53.2726 30.6301 52.7263 30.7993 52.2784 31.1328C52.093 31.26 51.9406 31.4308 51.8342 31.6307C51.7278 31.8306 51.6706 32.0535 51.6674 32.2807C51.6674 33.0853 52.2275 33.6721 53.3404 34.0523C55.8281 34.9947 57.3508 35.6197 57.9085 35.9273C60.047 37.0567 61.1163 38.6832 61.1163 40.8067C61.1346 41.6639 60.955 42.5136 60.5919 43.2877C60.2288 44.0619 59.6922 44.7392 59.025 45.2653C57.6769 46.4218 55.8524 47 53.5513 47Z" fill="#00ABE7"/>
<path d="M82.8693 36.4219C82.8579 37.1556 82.8008 37.8879 82.6983 38.6143H68.4376C69.1359 41.348 70.9835 42.7161 73.9804 42.7186C76.1736 42.723 78.3153 42.044 80.116 40.7735L82.0691 44.2761C79.6573 46.0438 76.7478 46.9745 73.7731 46.9299C70.4489 46.9299 67.892 45.9457 66.1026 43.9772C64.3327 42.0384 63.381 39.4735 63.4513 36.8316C63.4513 33.8789 64.369 31.4613 66.2045 29.579C68.04 27.6966 70.4234 26.7406 73.3548 26.7111C76.119 26.7111 78.3957 27.5846 80.1852 29.3317C81.9746 31.0787 82.8693 33.4421 82.8693 36.4219ZM73.3548 30.8671C72.2088 30.8355 71.089 31.2174 70.1943 31.9448C69.2993 32.7022 68.6797 33.7416 68.434 34.8976H78.0902C77.9141 33.7526 77.3462 32.7072 76.4863 31.9448C75.6066 31.2106 74.4932 30.8274 73.3548 30.8671Z" fill="#00ABE7"/>
<path d="M85.8298 0V3.98987H82.8839L82.8693 0H0V16.6128H4.91724V3.98987H97.0864V46.5054H102V0H85.8298Z" fill="url(#paint0_linear_37_262)"/>
<defs>
<linearGradient id="paint0_linear_37_262" x1="80.0506" y1="59.3645" x2="33.6965" y2="-19.7427" gradientUnits="userSpaceOnUse">
<stop offset="0.13" stop-color="#FF64FF"/>
<stop offset="0.26" stop-color="#C275F9" stop-opacity="0.98"/>
<stop offset="0.41" stop-color="#8885F4" stop-opacity="0.95"/>
<stop offset="0.55" stop-color="#5793EF" stop-opacity="0.93"/>
<stop offset="0.69" stop-color="#319DEC" stop-opacity="0.92"/>
<stop offset="0.81" stop-color="#16A5E9" stop-opacity="0.91"/>
<stop offset="0.92" stop-color="#06A9E8" stop-opacity="0.9"/>
<stop offset="1" stop-color="#00ABE7" stop-opacity="0.9"/>
</linearGradient>
</defs>
</svg>
