<svg width="32" height="32" viewBox="0 0 32 32" fill="none" xmlns="http://www.w3.org/2000/svg">
<path fill-rule="evenodd" clip-rule="evenodd" d="M16 1.33325C7.89998 1.33325 1.33331 7.89992 1.33331 15.9999C1.33331 24.0999 7.89998 30.6666 16 30.6666C24.1 30.6666 30.6666 24.0999 30.6666 15.9999C30.6666 7.89992 24.1 1.33325 16 1.33325ZM17.3333 21.3333C17.3333 21.6869 17.1928 22.026 16.9428 22.2761C16.6927 22.5261 16.3536 22.6666 16 22.6666C15.6464 22.6666 15.3072 22.5261 15.0572 22.2761C14.8071 22.026 14.6666 21.6869 14.6666 21.3333V17.3333H10.6666C10.313 17.3333 9.97389 17.1928 9.72384 16.9427C9.47379 16.6927 9.33331 16.3535 9.33331 15.9999C9.33331 15.6463 9.47379 15.3072 9.72384 15.0571C9.97389 14.8071 10.313 14.6666 10.6666 14.6666H14.6666V10.6666C14.6666 10.313 14.8071 9.97383 15.0572 9.72378C15.3072 9.47373 15.6464 9.33325 16 9.33325C16.3536 9.33325 16.6927 9.47373 16.9428 9.72378C17.1928 9.97383 17.3333 10.313 17.3333 10.6666V14.6666H21.3333C21.6869 14.6666 22.0261 14.8071 22.2761 15.0571C22.5262 15.3072 22.6666 15.6463 22.6666 15.9999C22.6666 16.3535 22.5262 16.6927 22.2761 16.9427C22.0261 17.1928 21.6869 17.3333 21.3333 17.3333H17.3333V21.3333Z" fill="#103861"/>
</svg>
