<svg width="414" height="353" viewBox="0 0 414 353" fill="none" xmlns="http://www.w3.org/2000/svg">
<rect x="-95.8962" y="73.3507" width="1062.9" height="83.1601" transform="rotate(4.38961 -95.8962 73.3507)" fill="#D8ABF9" fill-opacity="0.7"/>
<g opacity="0.1">
<path d="M-23.7675 106.862C-24.2569 106.824 -24.5279 107.148 -24.5805 107.833L-26.3386 130.737C-26.3912 131.422 -26.1728 131.783 -25.6834 131.821L-24.7658 131.891L-24.794 132.258L-35.2915 131.453L-35.2633 131.086L-34.3457 131.156C-33.8544 131.169 -33.5815 130.821 -33.5271 130.111L-32.679 119.063L-38.2214 118.638L-39.0751 129.759C-39.1258 130.42 -38.9074 130.781 -38.4199 130.843L-37.5023 130.914L-37.5305 131.281L-48.0279 130.475L-47.9998 130.108L-47.0822 130.178C-46.5928 130.216 -46.3199 129.868 -46.2635 129.133L-44.5166 106.377C-44.4603 105.643 -44.6768 105.257 -45.1662 105.219L-46.0838 105.149L-46.0556 104.782L-35.5582 105.588L-35.5863 105.955L-36.5039 105.884C-36.9952 105.871 -37.2662 106.195 -37.3169 106.856L-38.1707 117.977L-32.6283 118.402L-31.7802 107.354C-31.7257 106.645 -31.9422 106.259 -32.4298 106.197L-33.3474 106.126L-33.3192 105.759L-22.8217 106.565L-22.8499 106.932L-23.7675 106.862ZM-11.2416 114.358C-9.35739 114.503 -7.62938 115.079 -6.05754 116.085C-4.48381 117.068 -3.27614 118.33 -2.43453 119.871C-1.56845 121.414 -1.20209 123.055 -1.33545 124.792C-1.47257 126.578 -2.0257 128.173 -2.99484 129.575C-3.96398 130.978 -5.28893 132.045 -6.96967 132.777C-8.65041 133.51 -10.5674 133.794 -12.7208 133.628C-14.8986 133.461 -16.7621 132.887 -18.3114 131.907C-19.8606 130.926 -21.008 129.681 -21.7537 128.172C-22.4729 126.64 -22.7631 124.969 -22.6241 123.158C-22.4888 121.396 -21.9244 119.815 -20.9308 118.414C-19.9127 117.016 -18.5633 115.95 -16.8825 115.218C-15.2018 114.485 -13.3215 114.199 -11.2416 114.358ZM-11.6311 132.9C-10.9948 132.948 -10.4519 132.449 -10.0022 131.4C-9.55063 130.327 -9.25722 128.91 -9.12198 127.148C-9.04121 126.096 -9.03103 125.001 -9.09145 123.864C-9.16699 122.283 -9.36297 120.828 -9.6794 119.499C-9.99583 118.171 -10.3941 117.106 -10.8742 116.306C-11.3298 115.508 -11.8146 115.09 -12.3284 115.05C-12.9647 115.001 -13.5085 115.513 -13.9601 116.586C-14.4117 117.659 -14.7051 119.077 -14.8403 120.839C-14.9192 121.866 -14.9294 122.961 -14.8709 124.122C-14.7953 125.703 -14.5994 127.158 -14.2829 128.487C-13.942 129.818 -13.5438 130.882 -13.0881 131.68C-12.6306 132.454 -12.1449 132.86 -11.6311 132.9ZM31.8243 118.513L30.87 118.44C30.3787 118.427 30.0221 118.744 29.8001 119.392L24.6864 134.063C24.6149 134.353 24.5754 134.547 24.5679 134.645C24.5416 134.987 24.5953 135.25 24.729 135.432C24.889 135.592 25.0659 135.692 25.2598 135.731L25.8471 135.777L25.929 136.152L24.2773 136.025L21.5245 135.814L19.9462 135.693C18.9712 135.569 18.205 135.288 17.6478 134.852C17.0906 134.415 16.7112 133.586 16.5096 132.365L15.0797 124.538L12.0968 133.097C12.0366 133.24 11.9961 133.446 11.9755 133.715C11.951 134.033 12.0179 134.284 12.176 134.469C12.3342 134.653 12.4989 134.752 12.6702 134.765L13.2575 134.81L13.3394 135.186L11.651 135.056L8.93485 134.848L7.31986 134.724C6.36742 134.626 5.61259 134.359 5.05537 133.922C4.5245 133.463 4.14603 132.622 3.91997 131.398L1.3061 117.352C1.14599 116.552 0.833464 116.134 0.36854 116.099L-0.549072 116.028L-0.63101 115.653L9.86648 116.459L9.94841 116.834L9.0308 116.764C8.66376 116.736 8.46521 116.917 8.43515 117.309C8.42764 117.407 8.44084 117.555 8.47475 117.755L11.3656 133.483L14.8678 123.451C14.2669 120.378 13.9447 118.642 13.9014 118.245C13.7864 117.498 13.472 117.105 12.9582 117.065L12.0406 116.995L11.9586 116.619L22.4928 117.428L22.5381 117.801L21.6204 117.73C21.276 117.728 21.0887 117.923 21.0587 118.315C21.0455 118.486 21.0474 118.621 21.0644 118.721L23.9552 134.45L29.2072 119.42C29.2749 119.179 29.3125 119.01 29.32 118.912C29.3482 118.545 29.1919 118.336 28.8512 118.285L27.9336 118.215L28.0352 117.853L31.9259 118.152L31.8243 118.513ZM46.3235 118.63C45.4181 118.56 44.6718 118.183 44.0844 117.498C43.4989 116.788 43.2409 115.981 43.3104 115.075C43.3799 114.17 43.7572 113.424 44.4422 112.836C45.1291 112.224 45.9253 111.953 46.8307 112.023C47.736 112.092 48.4815 112.482 49.067 113.191C49.6788 113.878 49.95 114.674 49.8805 115.58C49.811 116.485 49.4205 117.243 48.7091 117.853C48.0241 118.44 47.2289 118.699 46.3235 118.63ZM48.2801 136.428C48.2275 137.113 48.445 137.487 48.9325 137.549L49.8501 137.619L49.8219 137.986L39.3244 137.18L39.3526 136.813L40.2702 136.884C40.7596 136.921 41.0325 136.573 41.0889 135.839L42.044 123.396C42.0835 122.882 41.9526 122.503 41.6514 122.258C41.3502 122.014 40.9662 121.886 40.4994 121.875L40.5219 121.581C41.7943 121.679 43.2964 121.511 45.028 121.078C46.7596 120.644 48.2276 120.117 49.4322 119.496L49.5649 119.691L48.2801 136.428ZM63.4768 120.574L63.4458 120.978L61.3904 120.82L60.1225 137.337C60.0699 138.022 60.2751 138.395 60.7382 138.455L61.6925 138.528L61.6643 138.895L55.6843 138.399C54.7318 138.302 54.026 138.038 53.5666 137.609C53.1336 137.157 52.9631 136.332 53.0552 135.133L54.0892 121.662C54.1306 121.124 53.9997 120.745 53.6966 120.525C53.418 120.306 53.1074 120.184 52.7648 120.158L51.9573 120.096L51.9883 119.692C54.0927 119.854 55.9617 119.394 57.5953 118.313C59.2553 117.21 60.6451 115.458 61.7647 113.058L61.9708 113.259L61.4214 120.416L63.4768 120.574ZM104.731 124.11L103.777 124.037C103.286 124.024 102.929 124.341 102.707 124.988L97.5936 139.66C97.5221 139.949 97.4826 140.143 97.4751 140.241C97.4488 140.584 97.5025 140.846 97.6361 141.029C97.7962 141.189 97.9731 141.289 98.167 141.328L98.7543 141.373L98.8362 141.749L97.1845 141.622L94.4317 141.411L92.8534 141.289C91.8783 141.165 91.1122 140.885 90.555 140.448C89.9978 140.012 89.6184 139.183 89.4168 137.961L87.9869 130.135L85.0039 138.693C84.9437 138.836 84.9033 139.042 84.8826 139.311C84.8582 139.63 84.9251 139.881 85.0832 140.065C85.2413 140.25 85.4061 140.348 85.5773 140.362L86.1646 140.407L86.2466 140.782L84.5581 140.653L81.842 140.444L80.227 140.32C79.2746 140.222 78.5198 139.955 77.9625 139.519C77.4317 139.059 77.0532 138.218 76.8271 136.995L74.2133 122.949C74.0531 122.149 73.7406 121.731 73.2757 121.695L72.3581 121.625L72.2762 121.249L82.7736 122.055L82.8556 122.431L81.938 122.36C81.5709 122.332 81.3724 122.514 81.3423 122.905C81.3348 123.003 81.348 123.152 81.3819 123.351L84.2727 139.08L87.775 129.048C87.174 125.974 86.8519 124.239 86.8085 123.842C86.6936 123.095 86.3792 122.701 85.8653 122.662L84.9477 122.591L84.8658 122.216L95.4 123.024L95.4452 123.397L94.5276 123.327C94.1831 123.325 93.9959 123.52 93.9658 123.911C93.9527 124.083 93.9546 124.218 93.9716 124.318L96.8624 140.046L102.114 125.017C102.182 124.776 102.22 124.606 102.227 124.508C102.255 124.141 102.099 123.933 101.758 123.882L100.841 123.811L100.942 123.45L104.833 123.749L104.731 124.11ZM114.787 124.033C116.671 124.177 118.399 124.753 119.971 125.76C121.544 126.742 122.752 128.004 123.594 129.545C124.46 131.089 124.826 132.729 124.693 134.466C124.556 136.253 124.003 137.847 123.033 139.249C122.064 140.652 120.739 141.719 119.059 142.452C117.378 143.184 115.461 143.468 113.308 143.303C111.13 143.135 109.266 142.562 107.717 141.581C106.168 140.601 105.02 139.356 104.275 137.846C103.555 136.314 103.265 134.643 103.404 132.832C103.539 131.07 104.104 129.489 105.098 128.089C106.116 126.69 107.465 125.624 109.146 124.892C110.827 124.159 112.707 123.873 114.787 124.033ZM114.397 142.574C115.033 142.623 115.576 142.123 116.026 141.074C116.478 140.002 116.771 138.584 116.906 136.822C116.987 135.77 116.997 134.676 116.937 133.539C116.861 131.958 116.665 130.503 116.349 129.174C116.032 127.845 115.634 126.781 115.154 125.981C114.698 125.183 114.214 124.764 113.7 124.725C113.064 124.676 112.52 125.188 112.068 126.261C111.617 127.334 111.323 128.751 111.188 130.513C111.109 131.541 111.099 132.635 111.157 133.797C111.233 135.378 111.429 136.833 111.745 138.161C112.086 139.492 112.485 140.556 112.94 141.354C113.398 142.128 113.883 142.535 114.397 142.574ZM140.577 126.714C141.709 126.407 142.715 126.287 143.596 126.355C144.746 126.443 145.691 126.799 146.43 127.422C147.195 128.047 147.657 128.919 147.817 130.039C147.861 130.436 147.869 130.806 147.843 131.148C147.753 132.323 147.264 133.233 146.378 133.879C145.493 134.5 144.513 134.769 143.436 134.687C142.506 134.615 141.707 134.283 141.039 133.691C140.372 133.073 140.006 132.233 139.94 131.169C139.823 129.487 139.361 128.614 138.553 128.552C138.088 128.517 137.569 128.711 136.995 129.134C136.421 129.558 135.891 130.046 135.406 130.6L134.451 143.043C134.398 143.728 134.615 144.101 135.103 144.163L136.02 144.234L135.992 144.601L125.495 143.795L125.523 143.428L126.441 143.498C126.93 143.536 127.203 143.188 127.259 142.454L128.214 130.011C128.288 129.057 127.896 128.546 127.04 128.481L126.633 128.486L126.656 128.193C130.979 127.663 133.961 126.969 135.603 126.111L135.735 126.305L135.456 129.939C136.021 129.318 136.77 128.698 137.703 128.081C138.637 127.463 139.595 127.008 140.577 126.714ZM170.242 147.23L165.911 146.898C164.32 146.775 163.112 146.326 162.285 145.549C161.483 144.773 160.961 143.884 160.718 142.881C160.475 141.877 160.301 140.621 160.195 139.112C160.125 138.097 160.026 137.302 159.898 136.726C159.795 136.152 159.584 135.692 159.266 135.348C158.974 134.981 158.531 134.812 157.938 134.84L157.175 144.787C157.122 145.472 157.34 145.846 157.827 145.908L158.745 145.978L158.717 146.345L148.219 145.539L148.247 145.172L149.165 145.243C149.654 145.28 149.927 144.932 149.984 144.198L151.714 121.662C151.787 120.707 151.408 120.198 150.576 120.134L150.169 120.14L150.192 119.846C154.517 119.292 157.487 118.597 159.102 117.761L159.235 117.956L157.969 134.436C159.024 134.493 160.063 134.252 161.089 133.716C162.117 133.155 162.968 132.482 163.644 131.697C164.32 130.912 164.68 130.226 164.725 129.638C164.746 129.369 164.676 129.155 164.516 128.995C164.358 128.81 164.12 128.706 163.802 128.681L163.324 128.645L163.355 128.241L168.384 128.627L168.353 129.031L167.435 128.96C167.044 128.93 166.664 129.073 166.295 129.39C165.952 129.683 165.496 130.177 164.926 130.872C164.706 131.175 164.326 131.626 163.788 132.225C162.665 133.394 161.486 134.153 160.254 134.501C162.309 134.659 163.87 135.16 164.938 136.005C166.005 136.85 166.707 137.802 167.045 138.862C167.382 139.922 167.638 141.234 167.813 142.798C167.954 144.162 168.149 145.162 168.395 145.796C168.666 146.432 169.181 146.779 169.94 146.838L170.242 147.23ZM180.671 134.333C181.224 134.818 182.204 135.521 183.61 136.442C185.084 137.441 186.285 138.308 187.213 139.044C188.143 139.755 188.93 140.567 189.574 141.478C190.218 142.388 190.503 143.321 190.43 144.275C190.325 145.326 189.79 146.195 188.827 146.884C187.887 147.575 186.669 148.06 185.171 148.339C183.697 148.62 182.103 148.694 180.391 148.563C177.919 148.373 175.934 147.938 174.436 147.257C172.939 146.551 172.127 145.59 171.999 144.374C171.972 144.077 171.965 143.855 171.976 143.708C172.046 142.803 172.396 142.091 173.026 141.573C173.683 141.033 174.476 140.799 175.406 140.87C176.36 140.943 177.078 141.22 177.558 141.7C178.04 142.155 178.259 142.664 178.216 143.227C178.174 143.765 177.933 144.19 177.49 144.5C177.101 144.766 176.892 145.082 176.864 145.449C176.822 145.988 177.115 146.502 177.742 146.993C178.371 147.46 179.21 147.746 180.261 147.851C181.091 147.94 181.842 147.776 182.514 147.36C183.187 146.919 183.55 146.369 183.6 145.708C183.651 145.047 183.357 144.385 182.719 143.72C182.218 143.19 181.628 142.701 180.949 142.255C180.271 141.785 179.448 141.279 178.481 140.737C177.184 139.997 176.139 139.339 175.346 138.761C174.578 138.185 173.942 137.496 173.438 136.694C172.933 135.893 172.721 134.966 172.802 133.913C172.877 132.935 173.361 132.086 174.253 131.367C175.171 130.625 176.333 130.074 177.739 129.714C179.17 129.356 180.644 129.236 182.161 129.352C183.678 129.469 185.25 129.823 186.879 130.416C187.792 130.708 188.419 130.866 188.762 130.893C189.153 130.923 189.515 130.864 189.846 130.718L190.123 130.96L188.669 134.024L187.521 136.483L187.154 136.455C187.129 134.853 186.746 133.433 186.004 132.195C185.264 130.932 184.111 130.24 182.545 130.12C181.786 130.062 181.121 130.232 180.549 130.631C179.977 131.031 179.666 131.548 179.617 132.184C179.559 132.943 179.91 133.659 180.671 134.333Z" fill="#303030"/>
<path d="M208.264 148.118L209.133 136.793L215.572 137.287L215.47 138.614L210.503 138.232L210.189 142.325L215.156 142.707L215.054 144.033L210.087 143.652L209.736 148.231L208.264 148.118ZM218.176 140.091C217.842 140.065 217.575 139.936 217.376 139.704C217.177 139.471 217.089 139.193 217.114 138.87C217.139 138.546 217.268 138.285 217.5 138.086C217.733 137.876 218.017 137.784 218.351 137.809C218.675 137.834 218.936 137.968 219.134 138.211C219.333 138.444 219.42 138.721 219.395 139.045C219.371 139.369 219.242 139.63 219.01 139.829C218.778 140.028 218.5 140.115 218.176 140.091ZM216.794 148.772L217.366 141.314L218.774 141.422L218.201 148.881L216.794 148.772ZM220.633 149.067L221.205 141.609L222.613 141.717L222.507 143.092C222.75 142.622 223.103 142.264 223.566 142.018C224.041 141.772 224.596 141.674 225.233 141.723C227.088 141.865 227.937 142.956 227.781 144.994L227.428 149.589L226.02 149.481L226.326 145.501C226.39 144.66 226.287 144.028 226.016 143.605C225.755 143.184 225.296 142.948 224.638 142.898C223.958 142.845 223.418 143.026 223.018 143.44C222.628 143.855 222.403 144.451 222.343 145.228L222.04 149.175L220.633 149.067ZM236.377 138.884L237.785 138.992L236.916 150.317L235.524 150.21L235.625 148.9C235.353 149.335 234.963 149.674 234.456 149.917C233.95 150.149 233.417 150.244 232.856 150.201C231.702 150.112 230.824 149.676 230.222 148.892C229.632 148.109 229.38 147.146 229.468 146.002C229.555 144.87 229.961 143.957 230.687 143.264C231.424 142.572 232.358 142.27 233.491 142.357C234.073 142.401 234.586 142.576 235.029 142.882C235.472 143.187 235.794 143.58 235.996 144.062L236.056 143.286L236.04 143.285L236.377 138.884ZM233.147 148.954C233.934 149.014 234.569 148.808 235.05 148.335C235.543 147.852 235.817 147.238 235.875 146.494C235.933 145.739 235.754 145.091 235.34 144.549C234.938 143.997 234.343 143.691 233.556 143.631C232.801 143.573 232.177 143.78 231.685 144.252C231.194 144.714 230.919 145.333 230.859 146.109C230.8 146.886 230.977 147.54 231.392 148.07C231.807 148.601 232.392 148.896 233.147 148.954ZM245.098 150.945L242.92 143.276L244.457 143.394L245.836 148.968L248.065 143.671L249.57 143.786L250.964 149.361L253.178 144.063L254.731 144.182L251.392 151.428L250.194 151.336L248.676 145.459L246.295 151.037L245.098 150.945ZM258.408 152.162C257.222 152.071 256.307 151.627 255.663 150.829C255.02 150.02 254.741 149.055 254.827 147.933C254.913 146.811 255.336 145.905 256.094 145.215C256.852 144.524 257.824 144.225 259.011 144.316C260.186 144.406 261.096 144.855 261.739 145.664C262.394 146.463 262.678 147.418 262.593 148.529C262.507 149.651 262.079 150.562 261.309 151.262C260.551 151.952 259.584 152.253 258.408 152.162ZM256.734 150.016C257.149 150.547 257.74 150.842 258.505 150.9C259.271 150.959 259.894 150.757 260.375 150.295C260.856 149.822 261.126 149.197 261.186 148.421C261.244 147.655 261.072 147.007 260.668 146.477C260.264 145.936 259.68 145.636 258.914 145.578C258.148 145.519 257.519 145.725 257.027 146.198C256.547 146.66 256.277 147.279 256.218 148.056C256.159 148.822 256.331 149.475 256.734 150.016ZM264.129 152.406L264.702 144.948L266.109 145.056L265.979 146.755C266.164 146.172 266.474 145.746 266.907 145.475C267.341 145.194 267.806 145.072 268.302 145.11C268.593 145.133 268.818 145.171 268.977 145.227L268.877 146.521C268.718 146.477 268.487 146.443 268.185 146.419C267.484 146.366 266.923 146.605 266.503 147.137C266.093 147.669 265.855 148.372 265.787 149.246L265.537 152.514L264.129 152.406ZM277.067 145.897L273.166 149.227L276.495 153.355L274.634 153.213L271.652 149.452L271.382 152.963L269.975 152.855L270.844 141.53L272.252 141.638L271.694 148.902L275.255 145.758L277.067 145.897ZM280.083 153.826C279.145 153.754 278.408 153.464 277.871 152.957C277.347 152.439 277.111 151.84 277.163 151.161L278.554 151.268C278.525 151.645 278.663 151.97 278.968 152.243C279.273 152.505 279.695 152.657 280.235 152.699C280.655 152.731 280.997 152.659 281.26 152.484C281.523 152.309 281.667 152.055 281.693 151.72C281.734 151.192 281.516 150.849 281.04 150.694L279.089 150.023C278.044 149.65 277.561 148.94 277.642 147.894C277.689 147.279 277.987 146.792 278.535 146.433C279.084 146.063 279.774 145.909 280.605 145.973C281.511 146.043 282.195 146.307 282.659 146.766C283.135 147.214 283.347 147.773 283.296 148.442L281.904 148.335C281.932 147.979 281.818 147.688 281.564 147.463C281.311 147.226 280.942 147.089 280.457 147.052C280.068 147.022 279.738 147.089 279.465 147.253C279.203 147.406 279.061 147.634 279.038 147.936C278.999 148.443 279.25 148.782 279.79 148.954L281.611 149.614C282.128 149.795 282.519 150.075 282.783 150.453C283.047 150.831 283.162 151.247 283.127 151.7C283.072 152.412 282.775 152.964 282.235 153.357C281.696 153.738 280.978 153.895 280.083 153.826ZM289.603 146.664C290.671 146.746 291.511 147.179 292.123 147.964C292.737 148.738 292.999 149.707 292.909 150.872C292.821 152.016 292.404 152.928 291.658 153.608C290.911 154.288 289.998 154.587 288.92 154.504C288.348 154.461 287.83 154.285 287.365 153.978C286.912 153.672 286.584 153.278 286.382 152.796L286.017 157.553L284.609 157.445L285.446 146.54L286.854 146.648L286.753 147.959C287.026 147.513 287.416 147.174 287.922 146.942C288.439 146.71 288.999 146.618 289.603 146.664ZM288.823 153.228C289.545 153.283 290.158 153.081 290.659 152.62C291.161 152.159 291.442 151.541 291.502 150.764C291.561 149.988 291.378 149.334 290.952 148.802C290.528 148.259 289.954 147.96 289.231 147.905C288.487 147.848 287.859 148.049 287.346 148.509C286.844 148.969 286.563 149.593 286.502 150.381C286.443 151.157 286.626 151.811 287.052 152.343C287.488 152.876 288.078 153.17 288.823 153.228ZM297.508 155.164C296.354 155.075 295.476 154.639 294.874 153.855C294.283 153.072 294.032 152.109 294.12 150.965C294.207 149.833 294.613 148.92 295.339 148.227C296.075 147.535 297.01 147.233 298.143 147.319C298.725 147.364 299.238 147.539 299.681 147.844C300.124 148.15 300.446 148.543 300.648 149.025L300.749 147.715L302.14 147.822L301.567 155.28L300.176 155.173L300.277 153.863C300.005 154.298 299.615 154.637 299.108 154.88C298.602 155.112 298.069 155.207 297.508 155.164ZM297.799 153.917C298.586 153.977 299.221 153.771 299.702 153.298C300.194 152.815 300.469 152.201 300.526 151.457C300.584 150.702 300.406 150.054 299.992 149.512C299.59 148.96 298.995 148.654 298.207 148.594C297.452 148.536 296.829 148.743 296.337 149.215C295.846 149.677 295.571 150.295 295.511 151.072C295.451 151.849 295.629 152.502 296.044 153.033C296.459 153.564 297.044 153.859 297.799 153.917ZM307.083 155.899C305.95 155.812 305.077 155.387 304.463 154.623C303.85 153.85 303.588 152.875 303.678 151.699C303.769 150.523 304.175 149.605 304.899 148.945C305.623 148.273 306.551 147.981 307.684 148.068C308.687 148.145 309.476 148.461 310.052 149.015C310.629 149.558 310.928 150.254 310.95 151.102L309.542 150.994C309.425 149.976 308.773 149.421 307.587 149.33C306.864 149.275 306.28 149.468 305.834 149.912C305.388 150.344 305.134 150.975 305.07 151.806C305.006 152.636 305.161 153.305 305.534 153.811C305.909 154.306 306.457 154.581 307.18 154.637C308.355 154.727 309.083 154.295 309.362 153.34L310.77 153.448C310.62 154.272 310.218 154.908 309.566 155.357C308.913 155.795 308.086 155.976 307.083 155.899ZM319.428 152.469C319.412 152.674 319.374 152.953 319.315 153.306L313.539 152.863C313.495 153.575 313.668 154.153 314.057 154.595C314.447 155.026 314.998 155.269 315.71 155.324C316.702 155.4 317.388 155.084 317.768 154.375L319.176 154.483C318.993 155.164 318.573 155.696 317.914 156.079C317.255 156.463 316.489 156.621 315.615 156.554C314.472 156.466 313.588 156.045 312.962 155.292C312.348 154.529 312.087 153.543 312.18 152.335C312.271 151.149 312.678 150.225 313.401 149.565C314.125 148.904 315.042 148.617 316.153 148.702C317.21 148.783 318.037 149.172 318.635 149.869C319.243 150.567 319.507 151.433 319.428 152.469ZM313.622 151.779L318.055 152.119C318.106 151.461 317.951 150.929 317.592 150.521C317.243 150.115 316.729 149.885 316.05 149.833C315.381 149.782 314.827 149.935 314.387 150.292C313.958 150.649 313.703 151.145 313.622 151.779ZM330.932 150.032L332.34 150.14L331.756 157.744C331.666 158.92 331.257 159.789 330.531 160.351C329.885 160.844 329.05 161.051 328.025 160.973C326.947 160.89 326.125 160.566 325.561 160.002C325.047 159.496 324.816 158.833 324.868 158.013L326.291 158.122C326.268 159.14 326.87 159.696 328.1 159.79C329.481 159.896 330.233 159.146 330.356 157.539L330.463 156.147C329.888 157.134 328.986 157.58 327.756 157.486C326.818 157.414 326.133 157.074 325.703 156.465C325.273 155.847 325.095 155.046 325.171 154.065L325.512 149.616L326.92 149.724L326.601 153.882C326.545 154.604 326.643 155.171 326.893 155.58C327.156 155.98 327.632 156.207 328.322 156.26C329.002 156.312 329.543 156.109 329.947 155.652C330.352 155.184 330.582 154.589 330.638 153.866L330.932 150.032ZM337.47 158.231C336.283 158.14 335.368 157.696 334.724 156.898C334.081 156.089 333.802 155.124 333.888 154.002C333.975 152.88 334.397 151.974 335.155 151.284C335.913 150.593 336.885 150.294 338.072 150.385C339.248 150.475 340.157 150.924 340.8 151.733C341.455 152.532 341.74 153.487 341.654 154.598C341.568 155.72 341.14 156.631 340.37 157.331C339.612 158.021 338.645 158.322 337.47 158.231ZM335.795 156.085C336.21 156.616 336.801 156.911 337.566 156.969C338.332 157.028 338.955 156.826 339.436 156.364C339.917 155.891 340.187 155.266 340.247 154.49C340.305 153.724 340.133 153.076 339.729 152.546C339.325 152.005 338.741 151.705 337.975 151.647C337.209 151.588 336.58 151.794 336.088 152.267C335.608 152.729 335.338 153.348 335.279 154.125C335.22 154.891 335.392 155.544 335.795 156.085ZM345.926 158.88C345.063 158.814 344.392 158.502 343.914 157.945C343.448 157.377 343.253 156.598 343.329 155.605L343.682 151.011L345.089 151.119L344.763 155.374C344.651 156.83 345.199 157.604 346.407 157.697C347.119 157.751 347.665 157.566 348.045 157.139C348.436 156.703 348.657 156.155 348.708 155.497L349.021 151.42L350.428 151.528L349.856 158.987L348.448 158.879L348.553 157.52C348.311 157.979 347.959 158.331 347.495 158.578C347.042 158.825 346.519 158.926 345.926 158.88ZM356.367 159.487L357.236 148.161L358.644 148.27L357.775 159.595L356.367 159.487ZM361.589 151.099C361.254 151.074 360.988 150.945 360.789 150.713C360.589 150.48 360.502 150.202 360.527 149.879C360.552 149.555 360.68 149.294 360.913 149.095C361.146 148.885 361.43 148.793 361.764 148.818C362.087 148.843 362.348 148.977 362.547 149.22C362.746 149.452 362.833 149.73 362.808 150.054C362.783 150.377 362.655 150.639 362.423 150.838C362.19 151.037 361.912 151.124 361.589 151.099ZM360.206 159.781L360.779 152.323L362.186 152.431L361.614 159.889L360.206 159.781ZM371.138 153.118L367.237 156.448L370.566 160.577L368.705 160.434L365.723 156.673L365.453 160.184L364.046 160.076L364.915 148.751L366.322 148.859L365.765 156.123L369.326 152.979L371.138 153.118ZM378.376 156.994C378.36 157.199 378.323 157.478 378.263 157.831L372.487 157.388C372.443 158.101 372.616 158.678 373.005 159.12C373.395 159.552 373.946 159.795 374.658 159.849C375.65 159.925 376.336 159.609 376.716 158.901L378.124 159.009C377.941 159.689 377.521 160.221 376.862 160.604C376.203 160.988 375.437 161.146 374.564 161.079C373.42 160.991 372.536 160.57 371.91 159.817C371.296 159.054 371.035 158.068 371.128 156.86C371.219 155.674 371.626 154.75 372.35 154.09C373.073 153.429 373.99 153.142 375.101 153.227C376.158 153.308 376.985 153.697 377.583 154.394C378.191 155.092 378.456 155.958 378.376 156.994ZM372.57 156.304L377.003 156.644C377.054 155.986 376.899 155.454 376.54 155.046C376.192 154.64 375.678 154.411 374.998 154.358C374.329 154.307 373.775 154.46 373.335 154.817C372.907 155.174 372.652 155.67 372.57 156.304ZM379.913 163.247C379.698 163.23 379.515 163.2 379.367 163.156L379.419 162.477C379.547 162.508 379.746 162.534 380.015 162.555C380.457 162.589 380.773 162.429 380.963 162.075C381.121 161.859 381.213 161.573 381.241 161.217C381.087 161.379 380.86 161.448 380.558 161.425C380.245 161.401 379.994 161.279 379.805 161.058C379.615 160.837 379.534 160.56 379.559 160.225C379.585 159.891 379.714 159.624 379.946 159.425C380.189 159.227 380.478 159.14 380.812 159.166C381.201 159.196 381.528 159.384 381.794 159.73C382.072 160.066 382.189 160.53 382.143 161.124C382.091 161.803 381.865 162.339 381.466 162.732C381.078 163.125 380.56 163.297 379.913 163.247ZM393.185 154.615C394.253 154.697 395.093 155.131 395.705 155.915C396.319 156.689 396.581 157.659 396.491 158.824C396.403 159.967 395.986 160.879 395.24 161.559C394.493 162.24 393.58 162.539 392.502 162.456C391.93 162.412 391.412 162.236 390.947 161.93C390.494 161.623 390.166 161.229 389.964 160.747L389.599 165.504L388.191 165.396L389.028 154.491L390.436 154.6L390.335 155.91C390.608 155.464 390.998 155.125 391.504 154.893C392.021 154.661 392.581 154.569 393.185 154.615ZM392.405 161.179C393.127 161.234 393.74 161.032 394.241 160.571C394.743 160.111 395.024 159.492 395.084 158.716C395.143 157.939 394.96 157.285 394.535 156.753C394.11 156.211 393.536 155.912 392.813 155.856C392.069 155.799 391.441 156 390.928 156.46C390.426 156.921 390.145 157.544 390.084 158.332C390.025 159.108 390.208 159.763 390.634 160.294C391.07 160.827 391.66 161.122 392.405 161.179ZM401.09 163.115C399.936 163.026 399.058 162.59 398.456 161.806C397.865 161.023 397.614 160.06 397.702 158.917C397.789 157.784 398.195 156.871 398.921 156.178C399.657 155.486 400.592 155.184 401.725 155.271C402.307 155.315 402.82 155.49 403.263 155.796C403.706 156.101 404.028 156.495 404.23 156.977L404.331 155.666L405.722 155.773L405.149 163.231L403.758 163.125L403.859 161.814C403.587 162.249 403.197 162.588 402.69 162.831C402.184 163.063 401.651 163.158 401.09 163.115ZM401.381 161.868C402.168 161.928 402.803 161.722 403.284 161.249C403.776 160.766 404.051 160.153 404.108 159.408C404.166 158.653 403.988 158.005 403.574 157.463C403.172 156.912 402.577 156.606 401.79 156.545C401.034 156.487 400.411 156.694 399.919 157.166C399.428 157.628 399.153 158.247 399.093 159.023C399.033 159.8 399.211 160.454 399.626 160.985C400.041 161.516 400.626 161.81 401.381 161.868ZM413.485 156.369L414.892 156.477L414.309 164.081C414.219 165.257 413.81 166.126 413.083 166.688C412.438 167.181 411.603 167.388 410.578 167.31C409.5 167.227 408.678 166.903 408.114 166.339C407.599 165.833 407.368 165.17 407.42 164.35L408.844 164.459C408.82 165.477 409.423 166.033 410.653 166.127C412.033 166.233 412.785 165.483 412.909 163.876L413.015 162.484C412.441 163.471 411.538 163.917 410.309 163.823C409.371 163.751 408.686 163.411 408.255 162.803C407.825 162.184 407.648 161.383 407.724 160.402L408.065 155.953L409.473 156.061L409.153 160.219C409.098 160.941 409.196 161.508 409.446 161.917C409.708 162.317 410.185 162.544 410.875 162.597C411.554 162.649 412.096 162.446 412.5 161.989C412.905 161.521 413.135 160.926 413.191 160.203L413.485 156.369ZM425.574 157.102C426.642 157.184 427.482 157.617 428.095 158.402C428.708 159.176 428.97 160.145 428.88 161.31C428.793 162.453 428.375 163.365 427.629 164.046C426.882 164.726 425.97 165.025 424.891 164.942C424.319 164.898 423.801 164.723 423.337 164.416C422.883 164.11 422.555 163.716 422.353 163.234L421.988 167.99L420.581 167.882L421.418 156.978L422.825 157.086L422.725 158.396C422.997 157.951 423.387 157.612 423.893 157.379C424.41 157.148 424.97 157.055 425.574 157.102ZM424.794 163.665C425.516 163.721 426.129 163.518 426.631 163.058C427.132 162.597 427.413 161.978 427.473 161.202C427.532 160.425 427.349 159.771 426.924 159.239C426.499 158.697 425.925 158.398 425.202 158.342C424.458 158.285 423.83 158.487 423.317 158.946C422.815 159.407 422.534 160.031 422.474 160.818C422.414 161.595 422.597 162.249 423.023 162.781C423.459 163.313 424.05 163.608 424.794 163.665ZM437.34 161.52C437.324 161.725 437.287 162.004 437.227 162.358L431.451 161.914C431.407 162.627 431.58 163.204 431.969 163.646C432.359 164.078 432.91 164.321 433.622 164.375C434.614 164.452 435.3 164.135 435.68 163.427L437.088 163.535C436.905 164.215 436.485 164.747 435.826 165.13C435.167 165.514 434.401 165.672 433.528 165.605C432.384 165.517 431.5 165.097 430.874 164.344C430.26 163.58 429.999 162.595 430.092 161.387C430.183 160.2 430.59 159.277 431.314 158.616C432.037 157.956 432.954 157.668 434.065 157.753C435.122 157.834 435.949 158.223 436.547 158.92C437.155 159.618 437.42 160.485 437.34 161.52ZM431.534 160.83L435.967 161.17C436.018 160.513 435.863 159.98 435.504 159.573C435.156 159.166 434.642 158.937 433.962 158.885C433.293 158.833 432.739 158.986 432.299 159.343C431.871 159.701 431.616 160.196 431.534 160.83ZM438.841 165.818L439.413 158.359L440.821 158.467L440.69 160.166C440.876 159.584 441.186 159.157 441.619 158.886C442.053 158.605 442.518 158.484 443.014 158.522C443.305 158.544 443.53 158.583 443.688 158.639L443.589 159.933C443.43 159.888 443.199 159.854 442.897 159.831C442.196 159.777 441.635 160.016 441.214 160.548C440.805 161.081 440.566 161.784 440.499 162.658L440.248 165.926L438.841 165.818ZM448.779 166.58L449.351 159.122L450.759 159.23L450.654 160.589C450.839 160.158 451.137 159.812 451.548 159.551C451.959 159.279 452.445 159.164 453.006 159.207C454.29 159.306 455.047 159.901 455.278 160.993C455.486 160.542 455.817 160.183 456.272 159.914C456.727 159.645 457.234 159.532 457.795 159.575C459.586 159.712 460.406 160.757 460.256 162.709L459.894 167.434L458.486 167.326L458.827 162.876C458.929 161.55 458.441 160.845 457.362 160.762C456.144 160.669 455.469 161.474 455.338 163.178L455.04 167.061L453.632 166.953L453.966 162.601C454.073 161.21 453.593 160.473 452.525 160.391C451.942 160.346 451.473 160.527 451.116 160.934C450.76 161.33 450.55 161.954 450.484 162.806L450.186 166.689L448.779 166.58ZM463.622 158.932C463.288 158.906 463.021 158.777 462.822 158.545C462.623 158.313 462.536 158.035 462.561 157.711C462.586 157.388 462.714 157.126 462.946 156.927C463.179 156.717 463.463 156.625 463.798 156.651C464.121 156.676 464.382 156.809 464.58 157.053C464.78 157.285 464.867 157.563 464.842 157.886C464.817 158.21 464.688 158.471 464.456 158.67C464.224 158.87 463.946 158.957 463.622 158.932ZM462.24 167.614L462.812 160.155L464.22 160.263L463.647 167.722L462.24 167.614ZM466.079 167.909L466.652 160.45L468.059 160.558L467.954 161.933C468.196 161.464 468.549 161.106 469.013 160.859C469.487 160.614 470.043 160.515 470.679 160.564C472.534 160.706 473.383 161.797 473.227 163.835L472.874 168.43L471.467 168.322L471.772 164.342C471.837 163.501 471.733 162.869 471.462 162.447C471.202 162.025 470.742 161.789 470.084 161.739C469.405 161.687 468.865 161.868 468.464 162.282C468.074 162.697 467.849 163.292 467.79 164.069L467.487 168.017L466.079 167.909ZM477.963 169.016C477.1 168.95 476.429 168.638 475.951 168.08C475.485 167.513 475.29 166.733 475.366 165.741L475.719 161.146L477.126 161.254L476.8 165.509C476.688 166.965 477.236 167.74 478.444 167.832C479.156 167.887 479.702 167.701 480.082 167.275C480.473 166.838 480.694 166.291 480.745 165.633L481.058 161.556L482.465 161.664L481.893 169.122L480.485 169.014L480.59 167.655C480.348 168.114 479.996 168.467 479.532 168.713C479.079 168.961 478.556 169.062 477.963 169.016ZM487.525 168.367C487.913 168.397 488.228 168.394 488.47 168.358L488.374 169.604C488.045 169.654 487.627 169.66 487.12 169.621C486.893 169.604 486.694 169.578 486.523 169.543C486.363 169.509 486.174 169.435 485.955 169.32C485.736 169.206 485.557 169.057 485.419 168.872C485.283 168.677 485.173 168.414 485.09 168.082C485.007 167.74 484.984 167.336 485.02 166.873L485.312 163.07L483.969 162.967L484.059 161.786L485.402 161.889L485.584 159.527L486.991 159.635L486.81 161.997L488.686 162.142L488.596 163.323L486.719 163.179L486.451 166.673C486.4 167.331 486.464 167.77 486.643 167.99C486.821 168.21 487.115 168.335 487.525 168.367ZM496.92 166.094C496.905 166.298 496.867 166.578 496.807 166.931L491.031 166.488C490.987 167.2 491.16 167.778 491.549 168.22C491.939 168.651 492.49 168.894 493.202 168.949C494.194 169.025 494.881 168.709 495.26 168L496.668 168.108C496.486 168.789 496.065 169.321 495.406 169.704C494.748 170.087 493.981 170.246 493.108 170.179C491.964 170.091 491.08 169.67 490.454 168.917C489.84 168.154 489.58 167.168 489.672 165.96C489.763 164.774 490.171 163.85 490.894 163.19C491.617 162.529 492.534 162.242 493.645 162.327C494.702 162.408 495.53 162.797 496.127 163.494C496.735 164.192 497 165.058 496.92 166.094ZM491.115 165.404L495.548 165.744C495.598 165.086 495.444 164.553 495.084 164.146C494.736 163.74 494.222 163.51 493.542 163.458C492.874 163.407 492.319 163.56 491.88 163.916C491.451 164.274 491.196 164.77 491.115 165.404ZM498.457 172.347C498.242 172.33 498.06 172.3 497.911 172.256L497.963 171.577C498.091 171.608 498.29 171.634 498.559 171.655C499.002 171.689 499.318 171.529 499.508 171.174C499.665 170.959 499.758 170.673 499.785 170.317C499.632 170.479 499.404 170.548 499.102 170.525C498.789 170.501 498.538 170.378 498.349 170.158C498.16 169.937 498.078 169.66 498.104 169.325C498.129 168.991 498.258 168.724 498.49 168.525C498.734 168.327 499.022 168.24 499.357 168.266C499.745 168.296 500.072 168.484 500.339 168.83C500.617 169.166 500.733 169.63 500.687 170.223C500.635 170.903 500.41 171.439 500.011 171.831C499.622 172.225 499.105 172.397 498.457 172.347ZM513.936 167.4C513.921 167.605 513.883 167.884 513.823 168.237L508.047 167.794C508.004 168.507 508.176 169.084 508.565 169.526C508.955 169.958 509.506 170.201 510.218 170.255C511.211 170.331 511.897 170.015 512.277 169.307L513.684 169.415C513.502 170.095 513.081 170.627 512.422 171.01C511.764 171.394 510.998 171.552 510.124 171.485C508.981 171.397 508.096 170.977 507.47 170.223C506.856 169.46 506.596 168.475 506.688 167.266C506.779 166.08 507.187 165.157 507.91 164.496C508.633 163.835 509.551 163.548 510.662 163.633C511.719 163.714 512.546 164.103 513.143 164.8C513.752 165.498 514.016 166.364 513.936 167.4ZM508.131 166.71L512.564 167.05C512.614 166.392 512.46 165.86 512.1 165.452C511.752 165.046 511.238 164.817 510.558 164.764C509.89 164.713 509.335 164.866 508.896 165.223C508.467 165.58 508.212 166.076 508.131 166.71ZM518.639 172.138C517.485 172.05 516.607 171.614 516.005 170.83C515.414 170.047 515.163 169.083 515.251 167.94C515.337 166.808 515.744 165.895 516.47 165.202C517.206 164.51 518.141 164.207 519.273 164.294C519.856 164.339 520.369 164.514 520.812 164.819C521.255 165.124 521.577 165.518 521.779 166L521.879 164.69L523.271 164.796L522.698 172.255L521.307 172.148L521.408 170.837C521.135 171.272 520.746 171.611 520.239 171.854C519.733 172.087 519.2 172.181 518.639 172.138ZM518.93 170.891C519.717 170.952 520.351 170.746 520.833 170.273C521.325 169.79 521.6 169.176 521.657 168.432C521.715 167.677 521.537 167.028 521.123 166.487C520.721 165.935 520.126 165.629 519.338 165.569C518.583 165.511 517.96 165.718 517.468 166.19C516.977 166.651 516.702 167.27 516.642 168.047C516.582 168.823 516.76 169.477 517.175 170.008C517.59 170.539 518.175 170.833 518.93 170.891ZM527.615 172.827C526.677 172.755 525.939 172.466 525.403 171.958C524.879 171.44 524.643 170.842 524.695 170.162L526.086 170.269C526.057 170.647 526.195 170.972 526.5 171.245C526.805 171.507 527.227 171.659 527.767 171.7C528.187 171.732 528.529 171.661 528.792 171.486C529.055 171.311 529.199 171.056 529.225 170.722C529.266 170.193 529.048 169.851 528.572 169.695L526.621 169.024C525.576 168.651 525.093 167.942 525.174 166.895C525.221 166.281 525.519 165.793 526.067 165.434C526.616 165.064 527.306 164.911 528.136 164.975C529.042 165.044 529.727 165.308 530.191 165.767C530.667 166.216 530.879 166.775 530.827 167.443L529.436 167.336C529.463 166.981 529.35 166.69 529.096 166.464C528.843 166.228 528.474 166.091 527.989 166.054C527.6 166.024 527.27 166.091 526.997 166.254C526.735 166.408 526.593 166.635 526.57 166.937C526.531 167.444 526.782 167.784 527.322 167.955L529.143 168.616C529.66 168.797 530.051 169.076 530.315 169.454C530.579 169.833 530.694 170.248 530.659 170.701C530.604 171.413 530.307 171.965 529.767 172.358C529.227 172.74 528.51 172.896 527.615 172.827ZM538.317 165.951L539.725 166.059L539.141 173.663C539.051 174.839 538.642 175.708 537.916 176.271C537.27 176.764 536.435 176.971 535.411 176.892C534.332 176.81 533.511 176.486 532.946 175.922C532.432 175.416 532.201 174.753 532.253 173.932L533.677 174.041C533.653 175.059 534.256 175.616 535.485 175.71C536.866 175.816 537.618 175.065 537.741 173.458L537.848 172.067C537.273 173.054 536.371 173.5 535.141 173.405C534.203 173.333 533.518 172.993 533.088 172.385C532.658 171.766 532.481 170.966 532.556 169.985L532.897 165.535L534.305 165.643L533.986 169.801C533.93 170.524 534.028 171.09 534.279 171.5C534.541 171.9 535.017 172.126 535.707 172.179C536.387 172.231 536.929 172.029 537.333 171.572C537.737 171.104 537.968 170.508 538.023 169.786L538.317 165.951ZM550.407 166.684C551.474 166.766 552.315 167.199 552.927 167.984C553.54 168.758 553.802 169.728 553.713 170.893C553.625 172.036 553.208 172.948 552.461 173.628C551.715 174.309 550.802 174.607 549.723 174.525C549.152 174.481 548.634 174.305 548.169 173.998C547.715 173.692 547.387 173.298 547.186 172.816L546.82 177.573L545.413 177.465L546.25 166.56L547.658 166.668L547.557 167.979C547.83 167.533 548.219 167.194 548.725 166.962C549.242 166.73 549.803 166.638 550.407 166.684ZM549.626 173.248C550.349 173.303 550.961 173.101 551.463 172.64C551.965 172.18 552.246 171.561 552.305 170.784C552.365 170.008 552.182 169.354 551.756 168.822C551.331 168.279 550.757 167.98 550.035 167.925C549.291 167.868 548.662 168.069 548.149 168.529C547.648 168.989 547.366 169.613 547.306 170.401C547.246 171.177 547.429 171.831 547.855 172.363C548.292 172.896 548.882 173.191 549.626 173.248ZM562.173 171.103C562.157 171.307 562.119 171.587 562.059 171.94L556.284 171.497C556.24 172.209 556.412 172.787 556.802 173.229C557.192 173.66 557.743 173.903 558.454 173.958C559.447 174.034 560.133 173.718 560.513 173.009L561.92 173.117C561.738 173.798 561.317 174.33 560.659 174.713C560 175.096 559.234 175.255 558.36 175.188C557.217 175.1 556.332 174.679 555.707 173.926C555.092 173.163 554.832 172.177 554.925 170.969C555.016 169.783 555.423 168.859 556.146 168.199C556.87 167.538 557.787 167.251 558.898 167.336C559.955 167.417 560.782 167.806 561.379 168.503C561.988 169.201 562.252 170.067 562.173 171.103ZM556.367 170.413L560.8 170.753C560.85 170.095 560.696 169.562 560.337 169.155C559.988 168.749 559.474 168.519 558.795 168.467C558.126 168.416 557.572 168.569 557.132 168.925C556.703 169.283 556.448 169.779 556.367 170.413ZM566.875 175.841C565.721 175.753 564.843 175.316 564.241 174.532C563.65 173.749 563.399 172.786 563.487 171.643C563.574 170.51 563.98 169.598 564.706 168.905C565.442 168.213 566.377 167.91 567.51 167.997C568.092 168.042 568.605 168.217 569.048 168.522C569.491 168.827 569.813 169.221 570.015 169.703L570.116 168.392L571.507 168.499L570.934 175.958L569.543 175.851L569.644 174.54C569.372 174.975 568.982 175.314 568.475 175.557C567.969 175.79 567.436 175.884 566.875 175.841ZM567.166 174.594C567.953 174.655 568.587 174.448 569.069 173.975C569.561 173.492 569.836 172.879 569.893 172.135C569.951 171.38 569.773 170.731 569.359 170.19C568.957 169.638 568.362 169.332 567.574 169.271C566.819 169.213 566.196 169.42 565.704 169.893C565.213 170.354 564.938 170.973 564.878 171.75C564.818 172.526 564.996 173.18 565.411 173.711C565.826 174.242 566.411 174.536 567.166 174.594ZM575.851 176.53C574.913 176.458 574.176 176.168 573.64 175.661C573.115 175.143 572.879 174.544 572.931 173.865L574.322 173.972C574.294 174.349 574.431 174.675 574.736 174.947C575.041 175.21 575.464 175.361 576.003 175.403C576.423 175.435 576.765 175.364 577.028 175.188C577.291 175.013 577.436 174.759 577.461 174.424C577.502 173.896 577.284 173.554 576.808 173.398L574.857 172.727C573.812 172.354 573.329 171.644 573.41 170.598C573.457 169.983 573.755 169.496 574.303 169.137C574.852 168.767 575.542 168.614 576.373 168.677C577.279 168.747 577.964 169.011 578.427 169.47C578.903 169.919 579.115 170.477 579.064 171.146L577.672 171.039C577.7 170.683 577.586 170.392 577.332 170.167C577.079 169.93 576.71 169.794 576.225 169.756C575.836 169.727 575.506 169.793 575.233 169.957C574.972 170.11 574.829 170.338 574.806 170.64C574.767 171.147 575.018 171.486 575.558 171.658L577.379 172.319C577.896 172.499 578.287 172.779 578.551 173.157C578.815 173.536 578.93 173.951 578.895 174.404C578.84 175.116 578.543 175.668 578.003 176.061C577.464 176.442 576.746 176.599 575.851 176.53ZM586.553 169.654L587.961 169.762L587.377 177.366C587.287 178.542 586.879 179.411 586.152 179.974C585.506 180.467 584.671 180.674 583.647 180.595C582.568 180.512 581.747 180.189 581.183 179.625C580.668 179.119 580.437 178.455 580.489 177.635L581.913 177.744C581.889 178.762 582.492 179.318 583.721 179.413C585.102 179.519 585.854 178.768 585.977 177.161L586.084 175.77C585.509 176.756 584.607 177.202 583.377 177.108C582.439 177.036 581.755 176.696 581.324 176.088C580.894 175.469 580.717 174.669 580.792 173.687L581.134 169.238L582.541 169.346L582.222 173.504C582.166 174.227 582.264 174.793 582.515 175.203C582.777 175.603 583.253 175.829 583.943 175.882C584.623 175.934 585.165 175.732 585.569 175.274C585.974 174.806 586.204 174.211 586.259 173.489L586.553 169.654Z" fill="#303030"/>
</g>
<rect x="-84.8523" y="161.252" width="1062.9" height="83.1601" transform="rotate(-4 -84.8523 161.252)" fill="#94DDFF"/>
<path d="M-8.60606 183.881C-9.0957 183.915 -9.31655 184.275 -9.26861 184.96L-7.66624 207.875C-7.6183 208.561 -7.34952 208.886 -6.85988 208.852L-5.94181 208.788L-5.91613 209.155L-16.4189 209.89L-16.4445 209.522L-15.5265 209.458C-15.0385 209.399 -14.8194 209.015 -14.869 208.305L-15.642 197.252L-21.1871 197.639L-20.4091 208.766C-20.3628 209.427 -20.094 209.753 -19.6027 209.743L-18.6846 209.679L-18.6589 210.046L-29.1617 210.781L-29.1873 210.413L-28.2693 210.349C-27.7796 210.315 -27.5605 209.931 -27.6119 209.196L-29.204 186.428C-29.2553 185.694 -29.5258 185.343 -30.0155 185.378L-30.9335 185.442L-30.9592 185.075L-20.4565 184.34L-20.4308 184.707L-21.3489 184.772C-21.8368 184.83 -22.0576 185.19 -22.0114 185.851L-21.2334 196.978L-15.6882 196.591L-16.4611 185.537C-16.5108 184.827 -16.7813 184.477 -17.2726 184.487L-18.1907 184.551L-18.2164 184.184L-7.71367 183.449L-7.68799 183.816L-8.60606 183.881ZM4.8796 189.469C6.76471 189.338 8.55822 189.655 10.2601 190.422C11.9603 191.164 13.3392 192.236 14.3967 193.638C15.4787 195.038 16.0805 196.608 16.202 198.346C16.327 200.133 16.0124 201.791 15.2582 203.32C14.5041 204.849 13.3491 206.098 11.7932 207.068C10.2373 208.038 8.38216 208.598 6.22776 208.749C4.04887 208.901 2.12157 208.605 0.445845 207.862C-1.22988 207.118 -2.54667 206.053 -3.50454 204.669C-4.43964 203.258 -4.97053 201.647 -5.09722 199.835C-5.22048 198.073 -4.89279 196.426 -4.11416 194.896C-3.31105 193.363 -2.13155 192.112 -0.575662 191.142C0.980223 190.173 2.79865 189.615 4.8796 189.469ZM7.1995 207.869C7.83603 207.824 8.30024 207.251 8.59215 206.148C8.88234 205.021 8.9658 203.576 8.84254 201.813C8.76893 200.76 8.6193 199.676 8.39366 198.56C8.08824 197.007 7.68207 195.596 7.17515 194.328C6.66822 193.059 6.11893 192.064 5.52725 191.343C4.96006 190.62 4.41941 190.276 3.90529 190.312C3.26876 190.357 2.8054 190.943 2.51521 192.07C2.22502 193.198 2.14156 194.643 2.26482 196.405C2.33672 197.434 2.48634 198.518 2.7137 199.658C3.01912 201.211 3.42529 202.622 3.93221 203.891C4.46362 205.157 5.01292 206.152 5.58011 206.875C6.14558 207.574 6.68538 207.905 7.1995 207.869ZM48.0908 187.296L47.136 187.363C46.6481 187.422 46.3416 187.788 46.2164 188.461L43.2981 203.721C43.2696 204.018 43.2589 204.216 43.2657 204.314C43.2897 204.656 43.3811 204.908 43.54 205.069C43.7216 205.204 43.9112 205.277 44.1088 205.288L44.6964 205.247L44.8322 205.606L43.1797 205.722L40.4255 205.915L38.8464 206.025C37.8637 206.045 37.0649 205.879 36.4499 205.528C35.8349 205.178 35.3386 204.413 34.961 203.234L32.4045 195.7L30.7021 204.602C30.6635 204.752 30.6535 204.962 30.6724 205.231C30.6946 205.55 30.7974 205.788 30.9808 205.948C31.1641 206.107 31.3415 206.181 31.5129 206.169L32.1004 206.128L32.2363 206.487L30.547 206.605L27.8295 206.795L26.2137 206.908C25.2572 206.951 24.4715 206.797 23.8565 206.446C23.2644 206.069 22.7672 205.292 22.365 204.115L17.7298 190.6C17.4547 189.832 17.0845 189.465 16.6194 189.497L15.7013 189.561L15.5655 189.202L26.0682 188.467L26.204 188.827L25.286 188.891C24.9187 188.917 24.7488 189.125 24.7762 189.517C24.7831 189.615 24.8178 189.76 24.8805 189.953L30.0352 205.091L32.0363 194.656C30.9933 191.703 30.4214 190.033 30.3206 189.646C30.0979 188.924 29.7294 188.58 29.2153 188.616L28.2972 188.681L28.1614 188.321L38.7008 187.584L38.8 187.946L37.8819 188.01C37.5409 188.059 37.384 188.279 37.4114 188.671C37.4234 188.842 37.4451 188.976 37.4764 189.072L42.6311 204.21L45.634 188.575C45.6658 188.327 45.6783 188.154 45.6715 188.056C45.6458 187.689 45.4607 187.505 45.1163 187.504L44.1982 187.569L44.246 187.196L48.1386 186.924L48.0908 187.296ZM62.4518 185.296C61.546 185.359 60.7526 185.095 60.0715 184.503C59.3888 183.886 59.0157 183.125 58.9524 182.219C58.8891 181.314 59.1534 180.52 59.7454 179.839C60.3357 179.134 61.0838 178.749 61.9896 178.686C62.8954 178.622 63.6897 178.899 64.3725 179.516C65.078 180.106 65.4624 180.854 65.5258 181.76C65.5891 182.666 65.3134 183.472 64.6986 184.179C64.1066 184.86 63.3577 185.233 62.4518 185.296ZM66.9843 202.618C67.0323 203.304 67.3019 203.642 67.7933 203.632L68.7113 203.568L68.737 203.935L58.2343 204.669L58.2086 204.302L59.1267 204.238C59.6163 204.204 59.8355 203.819 59.7841 203.085L58.9136 190.636C58.8776 190.122 58.6928 189.766 58.3592 189.568C58.0255 189.369 57.6269 189.299 57.1635 189.356L57.1429 189.062C58.416 188.973 59.8775 188.588 61.5273 187.907C63.1772 187.226 64.5526 186.49 65.6536 185.699L65.8134 185.873L66.9843 202.618ZM79.7053 184.717L79.7335 185.121L77.6771 185.264L78.8326 201.79C78.8805 202.475 79.1379 202.814 79.6048 202.806L80.5596 202.739L80.5853 203.106L74.5969 203.488C73.6404 203.531 72.9036 203.373 72.3866 203.015C71.8923 202.632 71.6033 201.84 71.5194 200.641L70.577 187.163C70.5393 186.625 70.3545 186.269 70.0225 186.095C69.7151 185.92 69.3899 185.844 69.0472 185.868L68.2393 185.924L68.211 185.52C70.3165 185.373 72.0984 184.646 73.5569 183.338C75.0382 182.005 76.1575 180.069 76.9149 177.531L77.1481 177.7L77.6488 184.861L79.7053 184.717ZM121.034 182.196L120.08 182.263C119.592 182.321 119.285 182.687 119.16 183.36L116.242 198.62C116.213 198.918 116.202 199.115 116.209 199.213C116.233 199.556 116.325 199.808 116.484 199.969C116.665 200.104 116.855 200.177 117.052 200.187L117.64 200.146L117.776 200.506L116.123 200.621L113.369 200.814L111.79 200.924C110.807 200.944 110.008 200.778 109.393 200.428C108.778 200.077 108.282 199.312 107.904 198.133L105.348 190.599L103.646 199.501C103.607 199.651 103.597 199.861 103.616 200.131C103.638 200.449 103.741 200.688 103.924 200.847C104.108 201.006 104.285 201.08 104.456 201.068L105.044 201.027L105.18 201.387L103.491 201.505L100.773 201.695L99.1573 201.808C98.2008 201.85 97.415 201.696 96.8001 201.345C96.2079 200.968 95.7107 200.191 95.3086 199.014L90.6733 185.5C90.3982 184.732 90.0281 184.364 89.5629 184.396L88.6448 184.461L88.509 184.101L99.0117 183.367L99.1476 183.726L98.2295 183.79C97.8623 183.816 97.6924 184.025 97.7197 184.416C97.7266 184.514 97.7613 184.66 97.824 184.852L102.979 199.991L104.98 189.555C103.937 186.602 103.365 184.932 103.264 184.545C103.041 183.823 102.673 183.48 102.159 183.516L101.241 183.58L101.105 183.22L111.644 182.483L111.743 182.845L110.825 182.91C110.484 182.958 110.328 183.178 110.355 183.57C110.367 183.741 110.389 183.875 110.42 183.971L115.575 199.11L118.578 183.475C118.609 183.226 118.622 183.053 118.615 182.955C118.589 182.588 118.404 182.404 118.06 182.404L117.142 182.468L117.19 182.096L121.082 181.823L121.034 182.196ZM130.971 180.652C132.856 180.52 134.649 180.838 136.351 181.604C138.052 182.347 139.43 183.419 140.488 184.821C141.57 186.221 142.172 187.791 142.293 189.529C142.418 191.316 142.104 192.974 141.349 194.503C140.595 196.032 139.44 197.281 137.884 198.251C136.328 199.221 134.473 199.781 132.319 199.932C130.14 200.084 128.213 199.788 126.537 199.044C124.861 198.3 123.545 197.236 122.587 195.852C121.652 194.441 121.121 192.83 120.994 191.018C120.871 189.256 121.198 187.609 121.977 186.078C122.78 184.546 123.96 183.295 125.516 182.325C127.071 181.355 128.89 180.798 130.971 180.652ZM133.291 199.052C133.927 199.007 134.391 198.434 134.683 197.331C134.974 196.203 135.057 194.758 134.934 192.996C134.86 191.943 134.71 190.859 134.485 189.743C134.179 188.19 133.773 186.779 133.266 185.51C132.759 184.242 132.21 183.247 131.618 182.526C131.051 181.803 130.511 181.459 129.996 181.495C129.36 181.54 128.897 182.126 128.606 183.253C128.316 184.38 128.233 185.825 128.356 187.588C128.428 188.616 128.578 189.701 128.805 190.841C129.11 192.394 129.516 193.805 130.023 195.073C130.555 196.34 131.104 197.335 131.671 198.058C132.237 198.757 132.777 199.088 133.291 199.052ZM156.877 179.542C157.951 179.073 158.929 178.808 159.81 178.746C160.961 178.666 161.948 178.88 162.77 179.388C163.618 179.895 164.202 180.69 164.524 181.775C164.625 182.161 164.687 182.526 164.711 182.869C164.793 184.044 164.443 185.015 163.66 185.784C162.876 186.527 161.945 186.937 160.868 187.012C159.938 187.077 159.099 186.865 158.351 186.376C157.602 185.863 157.117 185.085 156.896 184.043C156.535 182.395 155.95 181.599 155.143 181.656C154.677 181.688 154.192 181.956 153.686 182.459C153.18 182.962 152.727 183.522 152.327 184.141L153.198 196.59C153.246 197.275 153.515 197.613 154.007 197.603L154.925 197.539L154.95 197.906L144.448 198.641L144.422 198.273L145.34 198.209C145.83 198.175 146.049 197.791 145.997 197.056L145.127 184.607C145.06 183.652 144.598 183.205 143.742 183.265L143.34 183.33L143.32 183.036C147.52 181.881 150.369 180.76 151.867 179.671L152.027 179.844L152.281 183.48C152.749 182.783 153.4 182.061 154.233 181.313C155.066 180.566 155.948 179.976 156.877 179.542ZM189.217 195.51L184.884 195.813C183.292 195.924 182.031 195.656 181.1 195.008C180.194 194.357 179.547 193.554 179.16 192.597C178.774 191.64 178.418 190.422 178.093 188.944C177.876 187.951 177.662 187.179 177.451 186.628C177.265 186.075 176.99 185.651 176.625 185.357C176.282 185.036 175.82 184.933 175.238 185.048L175.933 195C175.981 195.685 176.251 196.023 176.742 196.013L177.66 195.949L177.686 196.316L167.183 197.051L167.158 196.684L168.076 196.619C168.565 196.585 168.785 196.201 168.733 195.466L167.157 172.919C167.09 171.964 166.64 171.515 165.808 171.574L165.406 171.639L165.386 171.345C169.584 170.166 172.421 169.045 173.897 167.982L174.056 168.155L175.209 184.644C176.26 184.546 177.254 184.157 178.191 183.476C179.125 182.771 179.87 181.981 180.423 181.106C180.977 180.231 181.234 179.499 181.193 178.912C181.174 178.642 181.073 178.44 180.892 178.305C180.708 178.146 180.458 178.077 180.139 178.1L179.662 178.133L179.634 177.729L184.665 177.377L184.693 177.781L183.775 177.845C183.383 177.873 183.028 178.07 182.709 178.437C182.413 178.777 182.034 179.333 181.571 180.103C181.397 180.435 181.088 180.936 180.643 181.607C179.702 182.928 178.647 183.85 177.478 184.375C179.535 184.231 181.153 184.499 182.332 185.179C183.511 185.859 184.345 186.699 184.833 187.698C185.321 188.697 185.766 189.958 186.168 191.48C186.507 192.809 186.844 193.769 187.181 194.361C187.542 194.951 188.102 195.219 188.861 195.166L189.217 195.51ZM197.653 181.229C198.271 181.629 199.343 182.181 200.868 182.887C202.472 183.66 203.787 184.343 204.812 184.936C205.836 185.504 206.733 186.191 207.503 186.999C208.273 187.806 208.691 188.687 208.758 189.642C208.807 190.696 208.405 191.634 207.552 192.457C206.724 193.277 205.589 193.935 204.148 194.429C202.731 194.922 201.165 195.228 199.452 195.348C196.979 195.521 194.952 195.38 193.37 194.924C191.787 194.445 190.843 193.613 190.539 192.429C190.469 192.138 190.429 191.92 190.419 191.773C190.356 190.867 190.598 190.112 191.146 189.508C191.717 188.877 192.468 188.53 193.398 188.465C194.353 188.398 195.103 188.567 195.648 188.972C196.191 189.352 196.482 189.823 196.522 190.387C196.559 190.925 196.382 191.38 195.99 191.752C195.643 192.072 195.482 192.415 195.508 192.782C195.546 193.321 195.911 193.787 196.602 194.182C197.293 194.552 198.165 194.712 199.219 194.663C200.053 194.629 200.772 194.358 201.376 193.848C201.979 193.314 202.257 192.716 202.21 192.055C202.164 191.394 201.777 190.782 201.049 190.218C200.476 189.766 199.821 189.369 199.083 189.027C198.344 188.66 197.457 188.279 196.42 187.884C195.029 187.342 193.9 186.843 193.031 186.387C192.187 185.929 191.457 185.341 190.841 184.621C190.225 183.901 189.88 183.015 189.807 181.963C189.738 180.983 190.093 180.073 190.87 179.231C191.671 178.363 192.74 177.649 194.079 177.088C195.442 176.525 196.882 176.191 198.4 176.085C199.918 175.979 201.525 176.1 203.223 176.449C204.168 176.604 204.813 176.67 205.155 176.646C205.547 176.618 205.896 176.508 206.202 176.314L206.511 176.514L205.52 179.757L204.743 182.357L204.376 182.383C204.117 180.802 203.531 179.453 202.617 178.336C201.7 177.195 200.459 176.679 198.892 176.788C198.133 176.841 197.5 177.107 196.992 177.585C196.484 178.064 196.252 178.621 196.297 179.258C196.35 180.017 196.802 180.674 197.653 181.229Z" fill="#303030"/>
<path d="M223.762 191.065L222.97 179.734L229.412 179.283L229.505 180.611L224.536 180.958L224.822 185.053L229.792 184.706L229.884 186.033L224.915 186.381L225.235 190.962L223.762 191.065ZM232.397 181.677C232.063 181.701 231.78 181.612 231.549 181.411C231.318 181.21 231.192 180.948 231.169 180.624C231.146 180.301 231.235 180.023 231.436 179.792C231.636 179.551 231.903 179.418 232.238 179.395C232.562 179.372 232.839 179.467 233.071 179.678C233.302 179.879 233.429 180.141 233.451 180.465C233.474 180.789 233.385 181.066 233.184 181.297C232.983 181.528 232.721 181.654 232.397 181.677ZM232.296 190.468L231.775 183.006L233.183 182.907L233.705 190.369L232.296 190.468ZM236.138 190.199L235.616 182.737L237.024 182.639L237.12 184.015C237.291 183.515 237.588 183.109 238.011 182.797C238.445 182.485 238.98 182.307 239.617 182.262C241.473 182.132 242.472 183.087 242.615 185.127L242.936 189.724L241.528 189.822L241.249 185.84C241.191 184.999 240.996 184.389 240.666 184.011C240.347 183.632 239.858 183.465 239.2 183.511C238.52 183.559 238.012 183.817 237.676 184.285C237.351 184.752 237.215 185.374 237.27 186.151L237.546 190.101L236.138 190.199ZM250.228 177.828L251.636 177.729L252.429 189.06L251.037 189.157L250.945 187.846C250.739 188.316 250.403 188.708 249.937 189.023C249.471 189.327 248.957 189.498 248.395 189.537C247.241 189.618 246.309 189.314 245.599 188.627C244.9 187.938 244.511 187.022 244.431 185.878C244.352 184.745 244.621 183.783 245.238 182.991C245.865 182.199 246.746 181.764 247.879 181.684C248.462 181.644 248.994 181.742 249.477 181.979C249.96 182.217 250.337 182.559 250.606 183.006L250.552 182.229L250.536 182.231L250.228 177.828ZM248.501 188.261C249.289 188.206 249.887 187.909 250.294 187.371C250.711 186.822 250.893 186.174 250.841 185.43C250.788 184.675 250.517 184.059 250.029 183.584C249.55 183.097 248.917 182.881 248.129 182.936C247.374 182.988 246.787 183.284 246.369 183.823C245.951 184.351 245.769 185.004 245.823 185.781C245.877 186.558 246.148 187.179 246.636 187.643C247.124 188.108 247.746 188.314 248.501 188.261ZM260.615 188.488L257.342 181.218L258.879 181.11L261.056 186.423L262.489 180.858L263.994 180.753L266.188 186.065L267.604 180.5L269.158 180.392L266.912 188.047L265.714 188.131L263.355 182.538L261.813 188.404L260.615 188.488ZM273.961 187.75C272.774 187.833 271.803 187.526 271.05 186.831C270.296 186.124 269.879 185.21 269.801 184.088C269.722 182.966 270.008 182.008 270.657 181.214C271.306 180.42 272.225 179.982 273.412 179.899C274.588 179.817 275.553 180.129 276.307 180.835C277.072 181.53 277.493 182.433 277.57 183.545C277.649 184.667 277.358 185.631 276.699 186.436C276.05 187.229 275.137 187.667 273.961 187.75ZM271.991 185.87C272.479 186.335 273.106 186.541 273.872 186.487C274.639 186.433 275.226 186.143 275.633 185.616C276.04 185.078 276.217 184.42 276.162 183.643C276.109 182.877 275.843 182.261 275.366 181.796C274.888 181.319 274.266 181.108 273.5 181.162C272.734 181.215 272.142 181.511 271.724 182.05C271.316 182.578 271.14 183.23 271.194 184.007C271.248 184.773 271.513 185.394 271.991 185.87ZM279.656 187.156L279.134 179.694L280.542 179.596L280.661 181.295C280.76 180.692 281.004 180.225 281.392 179.894C281.781 179.552 282.223 179.364 282.719 179.329C283.011 179.309 283.239 179.315 283.404 179.347L283.494 180.642C283.33 180.621 283.097 180.621 282.795 180.642C282.093 180.691 281.573 181.009 281.235 181.597C280.907 182.183 280.774 182.914 280.835 183.788L281.064 187.058L279.656 187.156ZM291.506 178.829L288.132 182.692L292.028 186.291L290.166 186.421L286.667 183.136L286.913 186.649L285.504 186.747L284.712 175.416L286.12 175.318L286.629 182.586L289.693 178.956L291.506 178.829ZM295.646 186.233C294.707 186.299 293.936 186.12 293.331 185.696C292.737 185.26 292.416 184.702 292.368 184.022L293.761 183.925C293.787 184.303 293.971 184.604 294.312 184.83C294.652 185.045 295.092 185.133 295.632 185.096C296.052 185.066 296.38 184.946 296.615 184.734C296.849 184.522 296.955 184.249 296.932 183.915C296.895 183.386 296.629 183.079 296.135 182.995L294.108 182.616C293.019 182.399 292.438 181.767 292.365 180.721C292.322 180.106 292.546 179.58 293.036 179.145C293.525 178.699 294.185 178.446 295.016 178.388C295.923 178.325 296.639 178.486 297.165 178.872C297.7 179.247 297.992 179.769 298.039 180.438L296.647 180.535C296.622 180.179 296.467 179.908 296.183 179.722C295.898 179.525 295.513 179.443 295.027 179.477C294.639 179.504 294.321 179.619 294.075 179.82C293.839 180.01 293.732 180.256 293.753 180.559C293.788 181.066 294.086 181.365 294.645 181.456L296.543 181.844C297.081 181.947 297.509 182.167 297.825 182.502C298.141 182.838 298.315 183.233 298.347 183.686C298.397 184.398 298.183 184.988 297.706 185.455C297.228 185.911 296.542 186.171 295.646 186.233ZM304.019 177.759C305.088 177.684 305.982 177.99 306.702 178.677C307.422 179.353 307.822 180.274 307.904 181.44C307.984 182.584 307.704 183.547 307.065 184.329C306.426 185.111 305.566 185.539 304.487 185.615C303.915 185.655 303.377 185.557 302.873 185.321C302.379 185.085 301.997 184.743 301.727 184.295L302.06 189.054L300.652 189.153L299.889 178.243L301.297 178.144L301.389 179.455C301.594 178.975 301.93 178.583 302.396 178.279C302.874 177.974 303.415 177.801 304.019 177.759ZM304.205 184.366C304.928 184.315 305.504 184.026 305.933 183.497C306.363 182.968 306.55 182.315 306.496 181.538C306.441 180.761 306.165 180.141 305.666 179.677C305.167 179.202 304.555 178.99 303.832 179.04C303.088 179.093 302.495 179.383 302.055 179.913C301.626 180.442 301.439 181.1 301.494 181.888C301.548 182.665 301.825 183.285 302.324 183.749C302.833 184.212 303.46 184.418 304.205 184.366ZM313.08 185.014C311.925 185.095 310.993 184.791 310.283 184.104C309.584 183.415 309.195 182.499 309.115 181.355C309.036 180.222 309.305 179.26 309.922 178.468C310.549 177.676 311.43 177.24 312.563 177.161C313.146 177.12 313.679 177.219 314.161 177.456C314.644 177.693 315.021 178.036 315.291 178.483L315.199 177.172L316.591 177.075L317.113 184.537L315.721 184.634L315.629 183.323C315.423 183.793 315.087 184.185 314.621 184.5C314.155 184.803 313.641 184.975 313.08 185.014ZM313.186 183.738C313.973 183.683 314.571 183.386 314.978 182.848C315.395 182.298 315.577 181.651 315.525 180.907C315.472 180.151 315.201 179.536 314.713 179.06C314.234 178.573 313.601 178.357 312.813 178.412C312.058 178.465 311.471 178.761 311.053 179.3C310.635 179.828 310.453 180.481 310.507 181.258C310.561 182.035 310.833 182.655 311.321 183.12C311.808 183.585 312.43 183.791 313.186 183.738ZM322.659 184.344C321.526 184.423 320.6 184.13 319.881 183.465C319.162 182.789 318.761 181.862 318.679 180.686C318.596 179.51 318.865 178.542 319.484 177.783C320.103 177.014 320.978 176.589 322.111 176.51C323.115 176.44 323.942 176.637 324.593 177.101C325.242 177.554 325.64 178.199 325.785 179.034L324.377 179.133C324.112 178.143 323.387 177.689 322.2 177.772C321.477 177.823 320.927 178.1 320.55 178.603C320.172 179.096 320.013 179.758 320.071 180.589C320.129 181.42 320.379 182.058 320.823 182.504C321.265 182.94 321.848 183.132 322.571 183.082C323.747 182.999 324.404 182.466 324.541 181.48L325.949 181.381C325.921 182.218 325.617 182.907 325.036 183.446C324.455 183.975 323.663 184.274 322.659 184.344ZM334.372 179.15C334.386 179.355 334.39 179.636 334.382 179.995L328.603 180.399C328.664 181.11 328.919 181.656 329.369 182.037C329.817 182.407 330.398 182.567 331.11 182.517C332.103 182.448 332.735 182.035 333.008 181.278L334.416 181.18C334.335 181.88 333.996 182.467 333.401 182.942C332.805 183.418 332.07 183.686 331.196 183.747C330.052 183.827 329.116 183.54 328.387 182.886C327.668 182.221 327.266 181.284 327.182 180.075C327.099 178.888 327.367 177.915 327.986 177.156C328.605 176.397 329.471 175.979 330.582 175.901C331.64 175.827 332.515 176.091 333.208 176.694C333.911 177.295 334.299 178.114 334.372 179.15ZM328.528 179.314L332.963 179.004C332.917 178.346 332.686 177.842 332.271 177.491C331.867 177.14 331.325 176.988 330.645 177.035C329.976 177.082 329.45 177.314 329.067 177.731C328.695 178.148 328.515 178.675 328.528 179.314ZM339.006 183.201C338.067 183.267 337.296 183.088 336.691 182.664C336.097 182.228 335.776 181.67 335.728 180.99L337.12 180.893C337.147 181.271 337.331 181.572 337.672 181.798C338.012 182.013 338.452 182.101 338.991 182.064C339.412 182.034 339.74 181.914 339.975 181.702C340.209 181.49 340.315 181.217 340.292 180.883C340.255 180.354 339.989 180.047 339.495 179.963L337.468 179.584C336.379 179.367 335.798 178.735 335.725 177.689C335.682 177.074 335.906 176.548 336.396 176.113C336.885 175.667 337.545 175.414 338.376 175.356C339.283 175.293 339.999 175.454 340.524 175.84C341.06 176.215 341.352 176.737 341.398 177.406L340.006 177.503C339.981 177.147 339.827 176.876 339.543 176.69C339.258 176.493 338.873 176.411 338.387 176.445C337.999 176.472 337.681 176.587 337.435 176.788C337.199 176.978 337.092 177.224 337.113 177.527C337.148 178.034 337.446 178.333 338.005 178.424L339.903 178.812C340.441 178.915 340.869 179.135 341.185 179.47C341.501 179.806 341.675 180.201 341.707 180.654C341.757 181.366 341.543 181.956 341.066 182.423C340.588 182.879 339.902 183.139 339.006 183.201ZM352.685 174.551L354.093 174.452L354.625 182.06C354.707 183.236 354.43 184.156 353.793 184.819C353.226 185.4 352.431 185.727 351.405 185.799C350.326 185.874 349.466 185.674 348.826 185.198C348.243 184.773 347.918 184.15 347.85 183.331L349.274 183.231C349.399 184.242 350.076 184.704 351.307 184.618C352.688 184.522 353.322 183.669 353.21 182.062L353.112 180.669C352.688 181.729 351.86 182.302 350.63 182.388C349.691 182.454 348.964 182.217 348.45 181.679C347.934 181.129 347.642 180.363 347.573 179.381L347.262 174.93L348.67 174.832L348.961 178.992C349.012 179.715 349.191 180.261 349.499 180.629C349.816 180.987 350.321 181.141 351.011 181.093C351.691 181.045 352.198 180.766 352.53 180.255C352.863 179.733 353.003 179.11 352.953 178.387L352.685 174.551ZM360.348 181.709C359.161 181.792 358.191 181.485 357.438 180.79C356.683 180.084 356.267 179.169 356.189 178.047C356.11 176.925 356.395 175.967 357.045 175.173C357.694 174.379 358.612 173.941 359.799 173.858C360.976 173.776 361.941 174.088 362.695 174.794C363.459 175.489 363.88 176.392 363.958 177.504C364.037 178.626 363.746 179.59 363.087 180.395C362.437 181.189 361.525 181.627 360.348 181.709ZM358.379 179.829C358.867 180.294 359.494 180.5 360.26 180.446C361.026 180.393 361.613 180.102 362.021 179.575C362.428 179.037 362.604 178.379 362.55 177.602C362.496 176.836 362.231 176.22 361.754 175.755C361.276 175.278 360.654 175.067 359.888 175.121C359.122 175.174 358.53 175.471 358.112 176.009C357.704 176.537 357.527 177.189 357.582 177.966C357.635 178.732 357.901 179.353 358.379 179.829ZM368.809 181.117C367.945 181.178 367.237 180.967 366.682 180.485C366.138 179.992 365.832 179.249 365.762 178.256L365.441 173.659L366.849 173.56L367.147 177.818C367.248 179.274 367.904 179.96 369.112 179.876C369.825 179.826 370.337 179.563 370.651 179.085C370.975 178.596 371.114 178.023 371.068 177.364L370.782 173.285L372.191 173.187L372.712 180.649L371.304 180.747L371.209 179.388C371.037 179.877 370.74 180.277 370.317 180.589C369.905 180.9 369.402 181.076 368.809 181.117ZM379.227 180.193L378.434 168.863L379.843 168.764L380.635 180.095L379.227 180.193ZM383.169 171.134C382.834 171.158 382.552 171.069 382.321 170.868C382.09 170.667 381.963 170.405 381.94 170.081C381.918 169.758 382.007 169.48 382.208 169.249C382.408 169.008 382.675 168.875 383.009 168.852C383.333 168.829 383.611 168.924 383.843 169.135C384.073 169.336 384.2 169.598 384.223 169.922C384.245 170.246 384.156 170.523 383.956 170.754C383.755 170.985 383.493 171.112 383.169 171.134ZM383.068 179.925L382.546 172.463L383.954 172.364L384.476 179.826L383.068 179.925ZM392.911 171.738L389.537 175.601L393.433 179.2L391.571 179.33L388.072 176.045L388.317 179.558L386.909 179.656L386.117 168.325L387.525 168.227L388.033 175.495L391.098 171.865L392.911 171.738ZM400.637 174.516C400.651 174.721 400.654 175.003 400.647 175.361L394.868 175.765C394.929 176.477 395.184 177.023 395.633 177.403C396.082 177.773 396.663 177.933 397.375 177.883C398.368 177.814 399 177.401 399.273 176.645L400.681 176.546C400.6 177.246 400.261 177.833 399.666 178.309C399.07 178.784 398.335 179.052 397.461 179.114C396.317 179.194 395.381 178.907 394.652 178.253C393.933 177.587 393.531 176.65 393.447 175.442C393.364 174.255 393.632 173.282 394.251 172.523C394.87 171.764 395.736 171.345 396.847 171.268C397.905 171.194 398.78 171.458 399.473 172.06C400.176 172.661 400.564 173.48 400.637 174.516ZM394.792 174.681L399.228 174.371C399.182 173.712 398.951 173.208 398.536 172.857C398.132 172.506 397.59 172.354 396.91 172.402C396.241 172.449 395.715 172.68 395.332 173.098C394.96 173.514 394.78 174.042 394.792 174.681ZM403.07 180.478C402.854 180.493 402.669 180.49 402.516 180.468L402.468 179.788C402.599 179.801 402.8 179.798 403.07 179.779C403.512 179.748 403.801 179.543 403.938 179.165C404.062 178.929 404.112 178.632 404.087 178.276C403.959 178.459 403.744 178.56 403.441 178.582C403.128 178.603 402.862 178.519 402.643 178.328C402.424 178.138 402.302 177.875 402.279 177.54C402.255 177.206 402.344 176.923 402.545 176.692C402.756 176.461 403.029 176.333 403.364 176.31C403.752 176.283 404.104 176.421 404.418 176.724C404.742 177.016 404.924 177.459 404.966 178.052C405.013 178.732 404.868 179.295 404.531 179.742C404.204 180.187 403.717 180.433 403.07 180.478ZM414.94 170.002C416.008 169.928 416.903 170.234 417.623 170.921C418.343 171.597 418.743 172.518 418.825 173.683C418.905 174.827 418.625 175.79 417.986 176.572C417.347 177.354 416.487 177.783 415.408 177.859C414.836 177.899 414.298 177.801 413.794 177.565C413.3 177.328 412.918 176.986 412.648 176.539L412.981 181.298L411.573 181.396L410.81 170.486L412.218 170.388L412.31 171.699C412.515 171.218 412.851 170.826 413.317 170.522C413.795 170.218 414.336 170.045 414.94 170.002ZM415.126 176.61C415.849 176.559 416.425 176.269 416.854 175.741C417.283 175.212 417.471 174.559 417.417 173.782C417.362 173.005 417.086 172.384 416.587 171.92C416.088 171.446 415.476 171.234 414.753 171.284C414.009 171.336 413.416 171.627 412.976 172.157C412.547 172.685 412.36 173.344 412.415 174.132C412.469 174.909 412.746 175.529 413.244 175.993C413.754 176.456 414.381 176.662 415.126 176.61ZM424.001 177.258C422.846 177.339 421.914 177.035 421.204 176.347C420.505 175.659 420.116 174.742 420.036 173.599C419.957 172.466 420.226 171.503 420.843 170.712C421.47 169.92 422.351 169.484 423.484 169.405C424.067 169.364 424.599 169.462 425.082 169.7C425.565 169.937 425.942 170.279 426.211 170.727L426.12 169.416L427.512 169.318L428.034 176.781L426.642 176.878L426.55 175.567C426.344 176.037 426.008 176.429 425.542 176.743C425.076 177.047 424.562 177.219 424.001 177.258ZM424.106 175.982C424.894 175.927 425.492 175.63 425.899 175.092C426.316 174.542 426.498 173.895 426.446 173.15C426.393 172.395 426.122 171.78 425.634 171.304C425.155 170.817 424.522 170.601 423.734 170.656C422.979 170.709 422.392 171.005 421.974 171.544C421.556 172.072 421.374 172.724 421.428 173.501C421.482 174.278 421.754 174.899 422.241 175.364C422.729 175.828 423.351 176.034 424.106 175.982ZM435.279 168.775L436.687 168.677L437.219 176.285C437.301 177.461 437.024 178.38 436.387 179.043C435.82 179.625 435.025 179.952 433.999 180.023C432.92 180.099 432.06 179.899 431.42 179.423C430.837 178.997 430.512 178.375 430.443 177.555L431.868 177.456C431.993 178.466 432.67 178.929 433.901 178.843C435.282 178.746 435.916 177.894 435.804 176.286L435.706 174.894C435.282 175.954 434.454 176.527 433.224 176.613C432.285 176.678 431.558 176.442 431.044 175.903C430.528 175.354 430.236 174.588 430.167 173.606L429.856 169.155L431.264 169.056L431.555 173.216C431.606 173.939 431.785 174.485 432.093 174.854C432.41 175.211 432.915 175.366 433.605 175.317C434.285 175.27 434.791 174.99 435.124 174.479C435.457 173.957 435.597 173.335 435.547 172.612L435.279 168.775ZM447.345 167.736C448.414 167.662 449.308 167.968 450.029 168.655C450.748 169.331 451.149 170.252 451.23 171.417C451.31 172.561 451.03 173.524 450.391 174.306C449.752 175.088 448.893 175.517 447.813 175.593C447.242 175.633 446.703 175.535 446.199 175.299C445.705 175.062 445.323 174.72 445.054 174.273L445.386 179.032L443.978 179.13L443.215 168.22L444.623 168.122L444.715 169.433C444.92 168.952 445.256 168.56 445.723 168.256C446.2 167.952 446.741 167.779 447.345 167.736ZM447.531 174.344C448.254 174.293 448.83 174.003 449.259 173.475C449.689 172.946 449.876 172.293 449.822 171.516C449.768 170.739 449.491 170.118 448.992 169.654C448.493 169.18 447.882 168.968 447.159 169.018C446.414 169.07 445.822 169.361 445.382 169.891C444.952 170.419 444.765 171.078 444.82 171.866C444.875 172.643 445.151 173.263 445.65 173.727C446.159 174.19 446.786 174.396 447.531 174.344ZM459.63 170.391C459.644 170.596 459.648 170.877 459.64 171.236L453.862 171.64C453.922 172.351 454.177 172.897 454.627 173.278C455.076 173.648 455.656 173.808 456.368 173.758C457.361 173.689 457.994 173.276 458.266 172.519L459.674 172.421C459.593 173.121 459.255 173.708 458.659 174.184C458.063 174.659 457.328 174.927 456.454 174.988C455.31 175.068 454.374 174.781 453.645 174.128C452.926 173.462 452.525 172.525 452.44 171.316C452.357 170.129 452.625 169.156 453.245 168.397C453.864 167.638 454.729 167.22 455.841 167.142C456.898 167.068 457.773 167.332 458.466 167.935C459.17 168.536 459.558 169.355 459.63 170.391ZM453.786 170.555L458.221 170.245C458.175 169.587 457.945 169.083 457.53 168.732C457.126 168.381 456.584 168.229 455.904 168.276C455.235 168.323 454.709 168.555 454.326 168.972C453.954 169.389 453.774 169.916 453.786 170.555ZM461.742 174.423L461.22 166.961L462.628 166.863L462.747 168.562C462.846 167.959 463.09 167.492 463.479 167.161C463.867 166.82 464.309 166.631 464.805 166.597C465.097 166.576 465.325 166.582 465.49 166.614L465.58 167.909C465.416 167.888 465.183 167.888 464.881 167.909C464.18 167.958 463.66 168.276 463.321 168.864C462.993 169.451 462.86 170.181 462.921 171.055L463.15 174.325L461.742 174.423ZM471.685 173.728L471.163 166.266L472.571 166.168L472.666 167.527C472.786 167.074 473.03 166.689 473.398 166.37C473.766 166.041 474.23 165.856 474.791 165.817C476.075 165.727 476.911 166.206 477.299 167.252C477.439 166.776 477.715 166.372 478.125 166.039C478.536 165.707 479.021 165.521 479.583 165.482C481.374 165.357 482.338 166.271 482.474 168.224L482.805 172.951L481.397 173.049L481.085 168.598C480.993 167.27 480.407 166.644 479.328 166.72C478.108 166.805 477.558 167.7 477.677 169.405L477.949 173.29L476.541 173.389L476.236 169.034C476.139 167.642 475.556 166.984 474.488 167.058C473.905 167.099 473.467 167.347 473.173 167.801C472.879 168.244 472.762 168.892 472.821 169.745L473.093 173.63L471.685 173.728ZM485.254 163.996C484.919 164.019 484.636 163.93 484.405 163.73C484.174 163.529 484.048 163.267 484.025 162.943C484.002 162.619 484.091 162.342 484.292 162.111C484.492 161.869 484.759 161.737 485.094 161.713C485.418 161.691 485.695 161.785 485.927 161.997C486.158 162.197 486.285 162.46 486.307 162.783C486.33 163.107 486.241 163.384 486.04 163.615C485.84 163.846 485.577 163.973 485.254 163.996ZM485.153 172.786L484.631 165.324L486.039 165.226L486.561 172.688L485.153 172.786ZM488.994 172.518L488.472 165.056L489.88 164.957L489.976 166.333C490.147 165.833 490.444 165.427 490.867 165.116C491.301 164.804 491.836 164.625 492.473 164.581C494.329 164.451 495.328 165.406 495.471 167.445L495.792 172.042L494.384 172.141L494.106 168.159C494.047 167.317 493.852 166.707 493.522 166.329C493.203 165.95 492.714 165.784 492.056 165.83C491.376 165.877 490.868 166.135 490.532 166.603C490.207 167.071 490.071 167.693 490.126 168.47L490.402 172.419L488.994 172.518ZM500.912 171.88C500.048 171.94 499.34 171.729 498.785 171.248C498.241 170.754 497.934 170.011 497.865 169.018L497.544 164.421L498.952 164.323L499.249 168.58C499.351 170.037 500.007 170.723 501.215 170.638C501.927 170.589 502.44 170.325 502.754 169.848C503.078 169.359 503.216 168.785 503.17 168.127L502.885 164.048L504.293 163.949L504.815 171.411L503.407 171.51L503.312 170.15C503.14 170.639 502.843 171.04 502.42 171.351C502.008 171.662 501.505 171.838 500.912 171.88ZM510.277 169.842C510.665 169.815 510.977 169.766 511.21 169.696L511.297 170.942C510.979 171.04 510.566 171.107 510.059 171.142C509.832 171.158 509.632 171.161 509.458 171.152C509.294 171.142 509.096 171.096 508.863 171.015C508.629 170.933 508.431 170.812 508.268 170.65C508.104 170.477 507.957 170.232 507.826 169.916C507.695 169.589 507.613 169.193 507.58 168.729L507.314 164.926L505.971 165.019L505.888 163.838L507.232 163.744L507.067 161.381L508.475 161.282L508.64 163.645L510.518 163.514L510.6 164.696L508.723 164.827L508.967 168.323C509.013 168.982 509.14 169.407 509.349 169.598C509.558 169.789 509.867 169.871 510.277 169.842ZM519.24 166.222C519.254 166.427 519.258 166.709 519.25 167.068L513.472 167.472C513.532 168.183 513.787 168.729 514.237 169.11C514.686 169.48 515.266 169.64 515.978 169.59C516.971 169.52 517.604 169.107 517.876 168.351L519.284 168.253C519.203 168.952 518.865 169.54 518.269 170.015C517.673 170.491 516.938 170.759 516.064 170.82C514.92 170.9 513.984 170.613 513.255 169.959C512.536 169.294 512.135 168.357 512.05 167.148C511.967 165.961 512.235 164.988 512.854 164.229C513.474 163.47 514.339 163.052 515.451 162.974C516.508 162.9 517.383 163.164 518.076 163.766C518.78 164.368 519.168 165.186 519.24 166.222ZM513.396 166.387L517.831 166.077C517.785 165.419 517.554 164.914 517.14 164.564C516.735 164.212 516.193 164.061 515.514 164.108C514.845 164.155 514.319 164.387 513.936 164.804C513.564 165.22 513.384 165.748 513.396 166.387ZM521.673 172.185C521.457 172.2 521.273 172.196 521.119 172.174L521.072 171.495C521.203 171.507 521.403 171.504 521.673 171.485C522.115 171.454 522.405 171.25 522.541 170.871C522.665 170.635 522.715 170.339 522.69 169.983C522.562 170.165 522.347 170.267 522.045 170.288C521.732 170.31 521.466 170.225 521.246 170.035C521.027 169.844 520.905 169.581 520.882 169.247C520.859 168.912 520.947 168.63 521.148 168.399C521.36 168.167 521.633 168.04 521.967 168.016C522.356 167.989 522.707 168.127 523.021 168.43C523.345 168.722 523.528 169.165 523.569 169.758C523.617 170.438 523.472 171.001 523.134 171.448C522.808 171.894 522.321 172.139 521.673 172.185ZM536.265 165.032C536.279 165.237 536.282 165.519 536.275 165.877L530.496 166.281C530.557 166.993 530.812 167.539 531.261 167.919C531.71 168.289 532.291 168.449 533.003 168.399C533.996 168.33 534.628 167.917 534.901 167.161L536.309 167.062C536.228 167.762 535.889 168.349 535.294 168.825C534.698 169.3 533.963 169.568 533.089 169.63C531.945 169.71 531.009 169.423 530.28 168.769C529.561 168.103 529.159 167.166 529.075 165.958C528.992 164.771 529.26 163.798 529.879 163.039C530.498 162.28 531.364 161.861 532.475 161.783C533.533 161.71 534.408 161.974 535.101 162.576C535.804 163.177 536.192 163.996 536.265 165.032ZM530.42 165.197L534.856 164.886C534.81 164.228 534.579 163.724 534.164 163.373C533.76 163.022 533.218 162.87 532.538 162.918C531.869 162.964 531.343 163.196 530.96 163.614C530.588 164.03 530.408 164.558 530.42 165.197ZM541.608 169.034C540.453 169.115 539.521 168.811 538.812 168.123C538.113 167.435 537.723 166.519 537.643 165.375C537.564 164.242 537.833 163.279 538.45 162.488C539.078 161.696 539.958 161.26 541.091 161.181C541.674 161.14 542.207 161.239 542.69 161.476C543.173 161.713 543.549 162.056 543.819 162.503L543.727 161.192L545.119 161.095L545.641 168.557L544.249 168.654L544.157 167.343C543.952 167.813 543.616 168.205 543.15 168.519C542.683 168.823 542.169 168.995 541.608 169.034ZM541.714 167.758C542.502 167.703 543.099 167.406 543.506 166.868C543.923 166.318 544.106 165.671 544.053 164.926C544.001 164.171 543.73 163.556 543.241 163.08C542.763 162.593 542.129 162.377 541.342 162.432C540.586 162.485 540 162.781 539.582 163.32C539.163 163.848 538.981 164.5 539.036 165.277C539.09 166.054 539.361 166.675 539.849 167.14C540.337 167.605 540.959 167.811 541.714 167.758ZM550.589 168.406C549.65 168.472 548.878 168.292 548.274 167.868C547.68 167.433 547.359 166.875 547.311 166.195L548.703 166.098C548.73 166.476 548.913 166.777 549.254 167.003C549.595 167.217 550.035 167.306 550.574 167.268C550.995 167.239 551.323 167.118 551.558 166.907C551.792 166.695 551.898 166.422 551.874 166.088C551.837 165.559 551.572 165.252 551.078 165.167L549.051 164.788C547.962 164.572 547.381 163.94 547.308 162.893C547.265 162.278 547.488 161.753 547.979 161.317C548.468 160.871 549.128 160.619 549.959 160.561C550.865 160.498 551.581 160.659 552.107 161.045C552.643 161.42 552.934 161.941 552.981 162.611L551.589 162.708C551.564 162.352 551.41 162.081 551.126 161.894C550.841 161.697 550.456 161.616 549.97 161.65C549.581 161.677 549.264 161.791 549.018 161.993C548.782 162.183 548.674 162.429 548.696 162.731C548.731 163.238 549.028 163.538 549.588 163.629L551.486 164.016C552.024 164.12 552.452 164.339 552.768 164.675C553.084 165.011 553.258 165.405 553.29 165.858C553.34 166.571 553.126 167.16 552.649 167.627C552.171 168.084 551.484 168.343 550.589 168.406ZM560.173 160.042L561.582 159.943L562.114 167.551C562.196 168.727 561.919 169.647 561.282 170.309C560.715 170.891 559.919 171.218 558.894 171.29C557.815 171.365 556.955 171.165 556.315 170.689C555.732 170.264 555.406 169.641 555.338 168.822L556.763 168.722C556.888 169.733 557.565 170.195 558.795 170.109C560.177 170.013 560.811 169.16 560.699 167.553L560.601 166.16C560.176 167.22 559.349 167.793 558.119 167.879C557.18 167.945 556.453 167.708 555.938 167.17C555.423 166.62 555.131 165.854 555.062 164.872L554.751 160.421L556.159 160.323L556.45 164.483C556.5 165.206 556.68 165.752 556.987 166.12C557.305 166.478 557.809 166.632 558.5 166.584C559.18 166.536 559.686 166.257 560.019 165.746C560.351 165.224 560.492 164.601 560.442 163.878L560.173 160.042ZM572.24 159.003C573.309 158.928 574.203 159.234 574.923 159.921C575.643 160.598 576.043 161.518 576.125 162.684C576.205 163.828 575.925 164.791 575.286 165.573C574.647 166.355 573.787 166.784 572.708 166.859C572.136 166.899 571.598 166.801 571.094 166.565C570.6 166.329 570.218 165.987 569.948 165.539L570.281 170.298L568.873 170.397L568.11 159.487L569.518 159.388L569.61 160.7C569.815 160.219 570.151 159.827 570.617 159.523C571.095 159.218 571.636 159.045 572.24 159.003ZM572.426 165.61C573.149 165.56 573.725 165.27 574.154 164.741C574.583 164.212 574.771 163.559 574.717 162.782C574.662 162.005 574.386 161.385 573.887 160.921C573.388 160.446 572.776 160.234 572.053 160.285C571.309 160.337 570.716 160.628 570.276 161.157C569.847 161.686 569.66 162.344 569.715 163.132C569.769 163.909 570.046 164.529 570.545 164.993C571.054 165.457 571.681 165.662 572.426 165.61ZM584.525 161.657C584.539 161.862 584.543 162.144 584.535 162.502L578.756 162.906C578.817 163.618 579.072 164.164 579.522 164.545C579.97 164.914 580.551 165.074 581.263 165.025C582.256 164.955 582.888 164.542 583.161 163.786L584.569 163.687C584.488 164.387 584.149 164.975 583.554 165.45C582.958 165.925 582.223 166.194 581.349 166.255C580.205 166.335 579.269 166.048 578.54 165.394C577.821 164.729 577.419 163.792 577.335 162.583C577.252 161.396 577.52 160.423 578.139 159.664C578.758 158.905 579.624 158.487 580.735 158.409C581.793 158.335 582.668 158.599 583.361 159.201C584.064 159.803 584.452 160.621 584.525 161.657ZM578.681 161.822L583.116 161.512C583.07 160.854 582.839 160.349 582.424 159.999C582.02 159.647 581.478 159.495 580.798 159.543C580.129 159.59 579.603 159.822 579.22 160.239C578.848 160.655 578.668 161.183 578.681 161.822ZM589.868 165.659C588.713 165.74 587.781 165.436 587.072 164.749C586.373 164.06 585.984 163.144 585.904 162C585.824 160.867 586.093 159.905 586.71 159.113C587.338 158.321 588.218 157.886 589.352 157.806C589.934 157.766 590.467 157.864 590.95 158.101C591.433 158.339 591.809 158.681 592.079 159.128L591.987 157.817L593.379 157.72L593.901 165.182L592.509 165.279L592.418 163.968C592.212 164.438 591.876 164.83 591.41 165.145C590.943 165.448 590.429 165.62 589.868 165.659ZM589.974 164.383C590.762 164.328 591.359 164.031 591.766 163.493C592.183 162.944 592.366 162.296 592.314 161.552C592.261 160.796 591.99 160.181 591.501 159.705C591.023 159.218 590.389 159.002 589.602 159.058C588.846 159.11 588.26 159.406 587.842 159.945C587.423 160.473 587.241 161.126 587.296 161.903C587.35 162.68 587.621 163.3 588.109 163.765C588.597 164.23 589.219 164.436 589.974 164.383ZM598.849 165.031C597.91 165.097 597.138 164.918 596.534 164.494C595.94 164.058 595.619 163.5 595.571 162.82L596.963 162.723C596.99 163.101 597.173 163.402 597.515 163.628C597.855 163.843 598.295 163.931 598.834 163.894C599.255 163.864 599.583 163.744 599.818 163.532C600.052 163.32 600.158 163.047 600.134 162.713C600.098 162.184 599.832 161.877 599.338 161.793L597.311 161.414C596.222 161.197 595.641 160.565 595.568 159.519C595.525 158.904 595.749 158.378 596.239 157.943C596.728 157.497 597.388 157.244 598.219 157.186C599.125 157.123 599.842 157.284 600.367 157.67C600.903 158.045 601.195 158.567 601.241 159.236L599.849 159.333C599.824 158.977 599.67 158.706 599.386 158.52C599.101 158.323 598.716 158.241 598.23 158.275C597.842 158.302 597.524 158.417 597.278 158.618C597.042 158.808 596.935 159.054 596.956 159.357C596.991 159.864 597.289 160.163 597.848 160.254L599.746 160.642C600.284 160.745 600.712 160.965 601.028 161.3C601.344 161.636 601.518 162.031 601.55 162.484C601.6 163.196 601.386 163.786 600.909 164.253C600.431 164.709 599.745 164.969 598.849 165.031ZM608.433 156.667L609.842 156.569L610.374 164.176C610.456 165.353 610.179 166.272 609.542 166.935C608.975 167.517 608.179 167.843 607.154 167.915C606.075 167.991 605.215 167.79 604.575 167.315C603.992 166.889 603.666 166.267 603.598 165.447L605.023 165.348C605.148 166.358 605.825 166.821 607.055 166.735C608.437 166.638 609.071 165.786 608.959 164.178L608.861 162.786C608.437 163.846 607.609 164.419 606.379 164.505C605.44 164.57 604.713 164.334 604.199 163.795C603.683 163.245 603.391 162.48 603.322 161.498L603.011 157.046L604.419 156.948L604.71 161.108C604.761 161.831 604.94 162.377 605.248 162.746C605.565 163.103 606.069 163.258 606.76 163.209C607.44 163.162 607.946 162.882 608.279 162.371C608.611 161.849 608.752 161.226 608.702 160.503L608.433 156.667Z" fill="#303030"/>
</svg>
