<svg width="414" height="322" viewBox="0 0 414 322" fill="none" xmlns="http://www.w3.org/2000/svg">
<rect x="-92.9949" y="67.2576" width="966.413" height="75.6111" transform="rotate(4.38961 -92.9949 67.2576)" fill="#00ABE7" fill-opacity="0.1"/>
<g opacity="0.1">
<path d="M-27.3648 97.0872C-27.8098 97.0531 -28.0562 97.3475 -28.104 97.9704L-29.7025 118.795C-29.7504 119.418 -29.5518 119.746 -29.1068 119.781L-28.2725 119.845L-28.2981 120.178L-37.8427 119.446L-37.817 119.112L-36.9827 119.176C-36.5361 119.188 -36.288 118.871 -36.2384 118.226L-35.4673 108.181L-40.5066 107.794L-41.2828 117.906C-41.3289 118.507 -41.1303 118.835 -40.6871 118.892L-39.8528 118.956L-39.8784 119.289L-49.4229 118.557L-49.3973 118.223L-48.563 118.287C-48.118 118.321 -47.8699 118.005 -47.8187 117.337L-46.2304 96.6461C-46.1792 95.9787 -46.376 95.6279 -46.821 95.5937L-47.6553 95.5297L-47.6297 95.1959L-38.0851 95.9286L-38.1108 96.2623L-38.9451 96.1983C-39.3917 96.1864 -39.6381 96.4808 -39.6843 97.0815L-40.4605 107.193L-35.4212 107.58L-34.6501 97.5351C-34.6006 96.8899 -34.7975 96.5391 -35.2407 96.4826L-36.075 96.4186L-36.0494 96.0849L-26.5049 96.8176L-26.5305 97.1513L-27.3648 97.0872ZM-15.9759 103.903C-14.2628 104.035 -12.6917 104.558 -11.2625 105.474C-9.83163 106.367 -8.73359 107.514 -7.96838 108.915C-7.18092 110.319 -6.84781 111.81 -6.96907 113.39C-7.09375 115.014 -7.59667 116.464 -8.47783 117.739C-9.35899 119.014 -10.5637 119.984 -12.0918 120.65C-13.62 121.316 -15.363 121.574 -17.3209 121.424C-19.301 121.272 -20.9953 120.75 -22.404 119.859C-23.8126 118.967 -24.8558 117.835 -25.5338 116.463C-26.1877 115.07 -26.4515 113.55 -26.3252 111.904C-26.2022 110.302 -25.689 108.864 -24.7856 107.591C-23.8599 106.319 -22.633 105.35 -21.1048 104.684C-19.5767 104.018 -17.867 103.758 -15.9759 103.903ZM-16.3301 120.761C-15.7516 120.806 -15.258 120.351 -14.8491 119.398C-14.4385 118.422 -14.1717 117.134 -14.0488 115.532C-13.9753 114.575 -13.9661 113.58 -14.021 112.546C-14.0897 111.109 -14.2679 109.786 -14.5556 108.578C-14.8433 107.369 -15.2054 106.402 -15.6419 105.674C-16.0562 104.949 -16.4969 104.568 -16.9642 104.532C-17.5426 104.488 -18.0371 104.953 -18.4477 105.929C-18.8583 106.905 -19.1251 108.193 -19.248 109.795C-19.3198 110.73 -19.329 111.725 -19.2758 112.781C-19.2071 114.218 -19.0289 115.541 -18.7412 116.749C-18.4313 117.959 -18.0691 118.927 -17.6549 119.653C-17.2389 120.356 -16.7973 120.725 -16.3301 120.761ZM23.1805 107.681L22.3128 107.614C21.8662 107.603 21.5419 107.891 21.34 108.48L16.6906 121.819C16.6256 122.083 16.5897 122.259 16.5829 122.348C16.559 122.659 16.6078 122.898 16.7293 123.064C16.8748 123.21 17.0357 123.3 17.212 123.336L17.7459 123.377L17.8204 123.719L16.3187 123.603L13.8157 123.411L12.3807 123.301C11.4942 123.188 10.7976 122.933 10.291 122.536C9.78432 122.139 9.43936 121.386 9.25606 120.275L7.95599 113.159L5.24381 120.94C5.18907 121.07 5.1523 121.258 5.13351 121.503C5.11131 121.792 5.1721 122.02 5.31589 122.188C5.45967 122.356 5.60943 122.446 5.76517 122.457L6.29913 122.498L6.37363 122.84L4.83849 122.722L2.36892 122.532L0.900529 122.42C0.0345507 122.331 -0.651756 122.088 -1.15839 121.691C-1.64107 121.274 -1.98518 120.509 -2.19073 119.396L-4.56731 106.625C-4.71289 105.898 -4.99705 105.518 -5.41976 105.486L-6.25408 105.422L-6.32858 105.08L3.21597 105.813L3.29047 106.154L2.45616 106.09C2.12243 106.065 1.94191 106.23 1.91458 106.586C1.90775 106.675 1.91975 106.81 1.95059 106.991L4.57899 121.292L7.7633 112.171C7.21692 109.376 6.92402 107.798 6.8846 107.437C6.7801 106.758 6.49424 106.4 6.02702 106.364L5.19271 106.3L5.11821 105.959L14.6961 106.694L14.7373 107.033L13.9029 106.969C13.5898 106.967 13.4195 107.144 13.3922 107.5C13.3802 107.656 13.382 107.779 13.3974 107.87L16.0258 122.171L20.801 108.506C20.8625 108.286 20.8967 108.132 20.9036 108.043C20.9292 107.71 20.7871 107.52 20.4773 107.474L19.643 107.41L19.7354 107.081L23.2729 107.353L23.1805 107.681ZM36.3635 107.787C35.5403 107.724 34.8617 107.38 34.3277 106.758C33.7953 106.113 33.5608 105.378 33.6239 104.555C33.6871 103.732 34.0302 103.053 34.653 102.519C35.2776 101.963 36.0015 101.716 36.8247 101.78C37.6479 101.843 38.3256 102.197 38.858 102.842C39.4143 103.467 39.6608 104.191 39.5976 105.014C39.5344 105.837 39.1794 106.526 38.5326 107.08C37.9098 107.614 37.1867 107.85 36.3635 107.787ZM38.1425 123.969C38.0947 124.592 38.2924 124.932 38.7357 124.988L39.57 125.052L39.5444 125.386L29.9998 124.653L30.0255 124.32L30.8598 124.384C31.3047 124.418 31.5528 124.101 31.6041 123.434L32.4725 112.121C32.5084 111.653 32.3894 111.309 32.1155 111.086C31.8417 110.864 31.4925 110.747 31.0681 110.737L31.0886 110.47C32.2455 110.559 33.6112 110.406 35.1856 110.013C36.76 109.619 38.0948 109.139 39.19 108.574L39.3107 108.751L38.1425 123.969ZM51.9597 109.555L51.9315 109.922L50.0627 109.778L48.9099 124.796C48.8621 125.419 49.0487 125.758 49.4697 125.812L50.3374 125.879L50.3117 126.213L44.8746 125.762C44.0086 125.673 43.3668 125.433 42.9491 125.043C42.5555 124.633 42.4005 123.882 42.4841 122.792L43.4243 110.544C43.4619 110.055 43.3429 109.71 43.0673 109.51C42.814 109.311 42.5316 109.2 42.2201 109.176L41.4859 109.12L41.5141 108.753C43.4275 108.9 45.1268 108.482 46.6122 107.499C48.1214 106.496 49.3851 104.903 50.403 102.721L50.5904 102.903L50.0909 109.411L51.9597 109.555ZM89.4694 112.77L88.6017 112.703C88.155 112.691 87.8308 112.98 87.6289 113.568L82.9795 126.908C82.9145 127.171 82.8786 127.347 82.8717 127.436C82.8478 127.748 82.8966 127.987 83.0182 128.153C83.1637 128.298 83.3245 128.389 83.5008 128.425L84.0348 128.466L84.1093 128.807L82.6075 128.692L80.1046 128.5L78.6696 128.39C77.783 128.277 77.0865 128.022 76.5798 127.625C76.0732 127.228 75.7282 126.474 75.5449 125.363L74.2448 118.248L71.5327 126.029C71.4779 126.159 71.4412 126.346 71.4224 126.591C71.4002 126.88 71.461 127.109 71.6047 127.277C71.7485 127.444 71.8983 127.534 72.054 127.546L72.588 127.587L72.6625 127.928L71.1274 127.811L68.6578 127.621L67.1894 127.508C66.3234 127.419 65.6371 127.177 65.1305 126.78C64.6478 126.362 64.3037 125.597 64.0981 124.485L61.7216 111.714C61.576 110.987 61.2918 110.607 60.8691 110.574L60.0348 110.51L59.9603 110.169L69.5048 110.901L69.5793 111.243L68.745 111.179C68.4113 111.153 68.2308 111.318 68.2034 111.674C68.1966 111.763 68.2086 111.899 68.2394 112.08L70.8678 126.381L74.0522 117.259C73.5058 114.465 73.2129 112.887 73.1735 112.526C73.069 111.846 72.7831 111.489 72.3159 111.453L71.4816 111.389L71.4071 111.047L80.985 111.783L81.0261 112.122L80.1918 112.057C79.8786 112.056 79.7084 112.233 79.681 112.589C79.6691 112.745 79.6708 112.868 79.6862 112.959L82.3146 127.259L87.0898 113.594C87.1514 113.375 87.1856 113.221 87.1924 113.132C87.218 112.798 87.076 112.608 86.7662 112.562L85.9319 112.498L86.0243 112.17L89.5617 112.441L89.4694 112.77ZM98.6119 112.699C100.325 112.831 101.896 113.354 103.325 114.27C104.756 115.163 105.854 116.31 106.619 117.712C107.407 119.115 107.74 120.606 107.619 122.186C107.494 123.81 106.991 125.26 106.11 126.535C105.229 127.81 104.024 128.78 102.496 129.446C100.968 130.112 99.2248 130.37 97.267 130.22C95.2868 130.068 93.5925 129.546 92.1839 128.655C90.7753 127.763 89.732 126.632 89.054 125.259C88.4001 123.866 88.1363 122.346 88.2627 120.7C88.3856 119.098 88.8988 117.661 89.8022 116.387C90.7279 115.115 91.9548 114.147 93.483 113.481C95.0111 112.815 96.7208 112.554 98.6119 112.699ZM98.2577 129.558C98.8362 129.602 99.3299 129.147 99.7387 128.194C100.149 127.219 100.416 125.93 100.539 124.328C100.612 123.371 100.622 122.376 100.567 121.342C100.498 119.905 100.32 118.582 100.032 117.374C99.7445 116.166 99.3824 115.198 98.9459 114.471C98.5316 113.745 98.0909 113.364 97.6237 113.328C97.0452 113.284 96.5507 113.75 96.1401 114.725C95.7295 115.701 95.4628 116.989 95.3398 118.591C95.2681 119.526 95.2588 120.521 95.312 121.577C95.3807 123.014 95.5589 124.337 95.8466 125.546C96.1566 126.755 96.5187 127.723 96.9329 128.449C97.3489 129.152 97.7905 129.522 98.2577 129.558ZM122.061 115.137C123.09 114.858 124.005 114.749 124.806 114.811C125.851 114.891 126.71 115.214 127.383 115.781C128.078 116.349 128.498 117.142 128.644 118.16C128.683 118.521 128.691 118.858 128.667 119.169C128.585 120.237 128.141 121.065 127.335 121.652C126.531 122.217 125.639 122.461 124.66 122.386C123.815 122.321 123.088 122.019 122.481 121.48C121.875 120.919 121.542 120.155 121.482 119.188C121.376 117.658 120.955 116.865 120.221 116.809C119.798 116.776 119.326 116.953 118.804 117.338C118.282 117.723 117.801 118.167 117.359 118.67L116.491 129.984C116.443 130.607 116.641 130.946 117.084 131.003L117.918 131.067L117.892 131.4L108.348 130.668L108.374 130.334L109.208 130.398C109.653 130.432 109.901 130.116 109.952 129.448L110.821 118.135C110.887 117.267 110.531 116.803 109.752 116.744L109.383 116.749L109.403 116.482C113.334 116 116.046 115.369 117.538 114.589L117.659 114.766L117.405 118.07C117.919 117.505 118.6 116.942 119.448 116.38C120.297 115.819 121.168 115.404 122.061 115.137ZM149.033 133.791L145.095 133.489C143.649 133.378 142.55 132.969 141.799 132.262C141.07 131.557 140.594 130.749 140.374 129.836C140.153 128.924 139.994 127.782 139.898 126.409C139.835 125.487 139.745 124.764 139.628 124.24C139.534 123.718 139.342 123.301 139.053 122.988C138.788 122.654 138.385 122.5 137.846 122.526L137.152 131.57C137.104 132.193 137.302 132.532 137.745 132.589L138.58 132.653L138.554 132.986L129.009 132.254L129.035 131.92L129.869 131.984C130.314 132.018 130.562 131.702 130.614 131.034L132.187 110.543C132.253 109.676 131.908 109.213 131.152 109.155L130.782 109.16L130.803 108.893C134.735 108.389 137.436 107.757 138.904 106.997L139.025 107.174L137.875 122.159C138.833 122.21 139.778 121.991 140.711 121.504C141.645 120.993 142.42 120.381 143.034 119.668C143.648 118.954 143.976 118.33 144.017 117.796C144.036 117.551 143.972 117.356 143.827 117.211C143.683 117.043 143.467 116.948 143.177 116.926L142.744 116.893L142.772 116.526L147.344 116.877L147.316 117.244L146.481 117.18C146.125 117.152 145.78 117.282 145.444 117.57C145.133 117.837 144.718 118.286 144.199 118.918C143.999 119.194 143.654 119.603 143.165 120.148C142.143 121.211 141.072 121.901 139.951 122.217C141.82 122.361 143.24 122.817 144.21 123.585C145.181 124.353 145.819 125.219 146.126 126.182C146.432 127.146 146.665 128.339 146.825 129.761C146.953 131.002 147.13 131.91 147.354 132.487C147.6 133.065 148.069 133.381 148.758 133.434L149.033 133.791ZM158.515 122.065C159.018 122.506 159.909 123.145 161.188 123.982C162.528 124.89 163.62 125.679 164.464 126.348C165.309 126.995 166.025 127.732 166.61 128.561C167.196 129.389 167.455 130.237 167.388 131.104C167.293 132.059 166.807 132.85 165.931 133.477C165.077 134.105 163.969 134.546 162.606 134.799C161.266 135.054 159.818 135.122 158.26 135.003C156.013 134.83 154.209 134.434 152.846 133.815C151.486 133.173 150.747 132.3 150.63 131.194C150.606 130.924 150.6 130.722 150.61 130.589C150.673 129.765 150.991 129.118 151.564 128.648C152.162 128.156 152.883 127.943 153.728 128.008C154.596 128.075 155.248 128.326 155.685 128.763C156.123 129.177 156.322 129.64 156.283 130.151C156.245 130.641 156.026 131.027 155.623 131.309C155.269 131.55 155.079 131.838 155.054 132.172C155.016 132.661 155.282 133.129 155.852 133.576C156.424 134 157.187 134.26 158.142 134.356C158.897 134.436 159.58 134.287 160.191 133.909C160.803 133.508 161.133 133.008 161.179 132.407C161.225 131.806 160.958 131.204 160.378 130.6C159.922 130.117 159.386 129.673 158.768 129.268C158.152 128.84 157.404 128.38 156.524 127.887C155.345 127.215 154.395 126.616 153.674 126.091C152.976 125.567 152.397 124.941 151.939 124.212C151.48 123.483 151.287 122.64 151.361 121.683C151.429 120.793 151.869 120.021 152.68 119.367C153.515 118.693 154.571 118.192 155.85 117.865C157.15 117.54 158.49 117.43 159.87 117.536C161.249 117.642 162.679 117.964 164.16 118.503C164.99 118.768 165.56 118.913 165.872 118.937C166.228 118.964 166.556 118.911 166.858 118.777L167.109 118.998L165.788 121.784L164.743 124.02L164.409 123.994C164.387 122.538 164.038 121.247 163.364 120.121C162.691 118.972 161.643 118.344 160.219 118.234C159.529 118.181 158.924 118.336 158.404 118.699C157.884 119.062 157.602 119.533 157.557 120.111C157.504 120.801 157.824 121.452 158.515 122.065Z" fill="#303030"/>
<path d="M183.603 134.601L184.393 124.304L190.248 124.753L190.156 125.96L185.64 125.613L185.354 129.334L189.87 129.681L189.777 130.887L185.261 130.541L184.942 134.704L183.603 134.601ZM192.616 127.302C192.312 127.279 192.069 127.162 191.888 126.951C191.707 126.74 191.628 126.487 191.65 126.193C191.673 125.898 191.79 125.661 192.001 125.48C192.213 125.289 192.471 125.205 192.775 125.228C193.069 125.251 193.306 125.373 193.487 125.594C193.668 125.805 193.747 126.058 193.724 126.352C193.702 126.646 193.585 126.884 193.374 127.065C193.163 127.246 192.91 127.325 192.616 127.302ZM191.359 135.196L191.879 128.415L193.159 128.513L192.638 135.295L191.359 135.196ZM194.849 135.464L195.37 128.683L196.65 128.781L196.554 130.031C196.774 129.604 197.095 129.279 197.517 129.055C197.948 128.831 198.453 128.742 199.032 128.786C200.718 128.916 201.491 129.907 201.348 131.761L201.028 135.938L199.748 135.84L200.026 132.222C200.084 131.457 199.99 130.882 199.744 130.498C199.507 130.115 199.089 129.901 198.491 129.855C197.873 129.807 197.382 129.972 197.018 130.348C196.663 130.725 196.459 131.267 196.405 131.973L196.129 135.562L194.849 135.464ZM209.165 126.205L210.444 126.304L209.654 136.601L208.389 136.504L208.48 135.312C208.233 135.707 207.879 136.016 207.418 136.237C206.958 136.448 206.473 136.534 205.963 136.495C204.914 136.414 204.115 136.018 203.568 135.305C203.031 134.593 202.803 133.717 202.882 132.678C202.961 131.648 203.331 130.818 203.991 130.188C204.661 129.559 205.51 129.284 206.54 129.363C207.07 129.403 207.536 129.563 207.939 129.84C208.342 130.118 208.635 130.475 208.818 130.914L208.872 130.208L208.858 130.207L209.165 126.205ZM206.228 135.361C206.943 135.416 207.52 135.228 207.958 134.798C208.406 134.359 208.656 133.801 208.708 133.125C208.76 132.438 208.598 131.849 208.222 131.356C207.856 130.855 207.315 130.576 206.599 130.521C205.913 130.469 205.346 130.657 204.898 131.086C204.452 131.506 204.202 132.069 204.147 132.775C204.093 133.481 204.255 134.075 204.632 134.558C205.009 135.041 205.541 135.308 206.228 135.361ZM217.094 137.172L215.114 130.198L216.511 130.306L217.764 135.374L219.791 130.558L221.159 130.663L222.428 135.732L224.44 130.914L225.852 131.023L222.816 137.611L221.727 137.527L220.347 132.183L218.182 137.255L217.094 137.172ZM229.196 138.278C228.117 138.196 227.285 137.791 226.7 137.066C226.115 136.33 225.862 135.453 225.94 134.433C226.018 133.413 226.402 132.589 227.091 131.961C227.781 131.334 228.665 131.061 229.744 131.144C230.812 131.226 231.639 131.635 232.224 132.37C232.819 133.096 233.078 133.965 233.001 134.975C232.922 135.995 232.533 136.823 231.833 137.46C231.144 138.088 230.265 138.36 229.196 138.278ZM227.674 136.327C228.051 136.809 228.588 137.078 229.284 137.131C229.98 137.184 230.547 137.001 230.983 136.581C231.421 136.151 231.667 135.583 231.721 134.877C231.774 134.18 231.617 133.591 231.25 133.109C230.883 132.617 230.352 132.345 229.655 132.291C228.959 132.238 228.387 132.426 227.94 132.855C227.503 133.275 227.258 133.839 227.204 134.545C227.15 135.241 227.307 135.835 227.674 136.327ZM234.397 138.5L234.918 131.719L236.197 131.817L236.079 133.361C236.248 132.832 236.529 132.444 236.923 132.198C237.317 131.942 237.74 131.832 238.191 131.866C238.456 131.887 238.66 131.922 238.805 131.973L238.714 133.149C238.569 133.109 238.36 133.078 238.085 133.057C237.448 133.008 236.938 133.225 236.555 133.709C236.183 134.193 235.966 134.833 235.905 135.627L235.677 138.598L234.397 138.5ZM246.161 132.582L242.614 135.609L245.64 139.363L243.949 139.233L241.237 135.814L240.992 139.006L239.712 138.908L240.503 128.611L241.783 128.709L241.276 135.314L244.514 132.455L246.161 132.582ZM248.903 139.791C248.05 139.726 247.379 139.462 246.892 139.001C246.415 138.53 246.201 137.986 246.248 137.368L247.513 137.465C247.487 137.808 247.612 138.104 247.889 138.352C248.166 138.59 248.55 138.728 249.041 138.766C249.423 138.795 249.734 138.73 249.973 138.571C250.212 138.412 250.343 138.18 250.367 137.876C250.404 137.396 250.206 137.085 249.773 136.943L247.999 136.333C247.049 135.994 246.61 135.349 246.683 134.397C246.726 133.838 246.997 133.396 247.495 133.069C247.995 132.732 248.622 132.593 249.377 132.651C250.201 132.714 250.824 132.954 251.245 133.372C251.678 133.78 251.87 134.288 251.824 134.896L250.559 134.799C250.584 134.475 250.481 134.211 250.25 134.005C250.02 133.79 249.684 133.666 249.243 133.632C248.889 133.605 248.589 133.666 248.341 133.814C248.103 133.954 247.974 134.161 247.953 134.436C247.917 134.897 248.145 135.205 248.636 135.361L250.292 135.962C250.763 136.126 251.118 136.38 251.358 136.724C251.598 137.068 251.702 137.446 251.67 137.858C251.621 138.505 251.35 139.007 250.859 139.364C250.369 139.711 249.717 139.854 248.903 139.791ZM257.559 133.279C258.53 133.354 259.293 133.748 259.85 134.461C260.408 135.165 260.646 136.046 260.565 137.105C260.485 138.145 260.106 138.974 259.427 139.593C258.748 140.211 257.918 140.483 256.938 140.408C256.418 140.368 255.947 140.209 255.524 139.929C255.111 139.651 254.813 139.293 254.63 138.855L254.298 143.179L253.018 143.081L253.779 133.167L255.059 133.265L254.968 134.456C255.216 134.051 255.57 133.743 256.03 133.532C256.5 133.321 257.01 133.237 257.559 133.279ZM256.849 139.247C257.506 139.297 258.063 139.113 258.519 138.694C258.975 138.276 259.231 137.713 259.285 137.007C259.339 136.301 259.173 135.706 258.786 135.223C258.399 134.73 257.878 134.458 257.221 134.407C256.544 134.355 255.973 134.538 255.506 134.956C255.05 135.375 254.794 135.942 254.739 136.658C254.685 137.364 254.852 137.959 255.239 138.443C255.636 138.927 256.172 139.195 256.849 139.247ZM264.746 141.007C263.697 140.927 262.898 140.53 262.351 139.817C261.814 139.105 261.585 138.23 261.665 137.19C261.744 136.16 262.114 135.33 262.774 134.7C263.444 134.071 264.293 133.796 265.323 133.875C265.853 133.916 266.319 134.075 266.722 134.352C267.125 134.63 267.418 134.988 267.601 135.426L267.692 134.235L268.958 134.332L268.437 141.113L267.172 141.016L267.263 139.824C267.016 140.22 266.662 140.528 266.201 140.749C265.741 140.96 265.256 141.046 264.746 141.007ZM265.011 139.873C265.726 139.928 266.303 139.741 266.741 139.311C267.189 138.872 267.439 138.314 267.49 137.637C267.543 136.951 267.381 136.361 267.005 135.869C266.639 135.367 266.098 135.089 265.382 135.034C264.696 134.981 264.129 135.169 263.681 135.599C263.235 136.018 262.985 136.581 262.93 137.287C262.876 137.993 263.038 138.588 263.415 139.07C263.792 139.553 264.324 139.821 265.011 139.873ZM273.452 141.676C272.422 141.597 271.628 141.21 271.07 140.516C270.512 139.812 270.274 138.926 270.356 137.857C270.438 136.788 270.808 135.953 271.466 135.353C272.124 134.743 272.968 134.477 273.998 134.556C274.91 134.626 275.628 134.913 276.152 135.417C276.676 135.911 276.948 136.543 276.968 137.314L275.688 137.216C275.581 136.29 274.989 135.786 273.91 135.703C273.253 135.653 272.722 135.829 272.316 136.232C271.911 136.625 271.679 137.199 271.621 137.954C271.563 138.709 271.704 139.317 272.044 139.777C272.384 140.227 272.883 140.478 273.54 140.528C274.609 140.61 275.27 140.217 275.524 139.349L276.804 139.447C276.668 140.196 276.303 140.775 275.709 141.183C275.116 141.581 274.364 141.746 273.452 141.676ZM284.676 138.557C284.662 138.743 284.627 138.997 284.573 139.318L279.322 138.915C279.282 139.563 279.439 140.088 279.793 140.49C280.147 140.882 280.648 141.103 281.295 141.153C282.198 141.222 282.821 140.935 283.167 140.291L284.447 140.389C284.281 141.007 283.898 141.491 283.3 141.84C282.701 142.188 282.004 142.332 281.21 142.271C280.17 142.191 279.366 141.809 278.797 141.124C278.239 140.43 278.002 139.534 278.086 138.436C278.169 137.357 278.539 136.517 279.197 135.917C279.854 135.316 280.688 135.055 281.698 135.132C282.66 135.206 283.412 135.56 283.955 136.193C284.508 136.828 284.748 137.615 284.676 138.557ZM279.397 137.93L283.428 138.239C283.474 137.641 283.333 137.157 283.007 136.786C282.69 136.417 282.223 136.208 281.605 136.161C280.997 136.114 280.493 136.253 280.093 136.577C279.703 136.903 279.471 137.353 279.397 137.93ZM295.136 136.341L296.416 136.439L295.885 143.353C295.803 144.422 295.432 145.212 294.771 145.724C294.184 146.172 293.425 146.36 292.493 146.289C291.513 146.214 290.766 145.92 290.253 145.407C289.785 144.947 289.575 144.344 289.622 143.598L290.917 143.697C290.895 144.622 291.443 145.128 292.561 145.214C293.816 145.31 294.5 144.628 294.612 143.167L294.709 141.902C294.187 142.799 293.366 143.204 292.248 143.118C291.395 143.053 290.773 142.744 290.381 142.191C289.99 141.628 289.829 140.901 289.898 140.008L290.208 135.963L291.488 136.061L291.198 139.842C291.147 140.499 291.236 141.014 291.464 141.386C291.702 141.75 292.135 141.956 292.763 142.004C293.381 142.051 293.873 141.867 294.241 141.451C294.609 141.026 294.818 140.485 294.868 139.828L295.136 136.341ZM301.08 143.796C300.001 143.714 299.169 143.309 298.584 142.584C297.999 141.848 297.746 140.971 297.824 139.951C297.902 138.931 298.286 138.107 298.975 137.479C299.665 136.852 300.549 136.579 301.628 136.662C302.697 136.744 303.523 137.153 304.108 137.888C304.703 138.615 304.962 139.483 304.885 140.493C304.807 141.513 304.417 142.341 303.717 142.978C303.028 143.606 302.149 143.878 301.08 143.796ZM299.558 141.845C299.935 142.327 300.472 142.596 301.168 142.649C301.864 142.702 302.431 142.519 302.868 142.099C303.305 141.669 303.551 141.101 303.605 140.395C303.658 139.698 303.501 139.109 303.134 138.627C302.767 138.135 302.236 137.863 301.54 137.809C300.843 137.756 300.272 137.944 299.824 138.373C299.388 138.793 299.142 139.357 299.088 140.063C299.034 140.759 299.191 141.353 299.558 141.845ZM308.768 144.387C307.984 144.326 307.374 144.043 306.94 143.536C306.516 143.02 306.338 142.311 306.408 141.409L306.728 137.231L308.008 137.329L307.711 141.198C307.609 142.522 308.108 143.226 309.206 143.31C309.853 143.36 310.35 143.191 310.695 142.803C311.051 142.406 311.252 141.909 311.298 141.311L311.583 137.604L312.862 137.702L312.342 144.483L311.062 144.385L311.157 143.149C310.937 143.567 310.617 143.887 310.195 144.111C309.783 144.336 309.308 144.428 308.768 144.387ZM318.262 144.938L319.052 134.641L320.332 134.739L319.542 145.036L318.262 144.938ZM323.01 137.312C322.706 137.289 322.463 137.171 322.282 136.96C322.101 136.749 322.022 136.496 322.044 136.202C322.067 135.908 322.184 135.67 322.395 135.489C322.607 135.298 322.865 135.215 323.169 135.238C323.463 135.26 323.7 135.382 323.881 135.603C324.062 135.814 324.141 136.067 324.119 136.361C324.096 136.656 323.979 136.893 323.768 137.074C323.557 137.255 323.304 137.335 323.01 137.312ZM321.753 145.206L322.273 138.424L323.553 138.523L323.033 145.304L321.753 145.206ZM331.692 139.147L328.145 142.175L331.172 145.929L329.48 145.799L326.768 142.38L326.523 145.572L325.244 145.474L326.034 135.177L327.314 135.275L326.807 141.88L330.045 139.021L331.692 139.147ZM338.273 142.671C338.259 142.857 338.225 143.111 338.17 143.433L332.919 143.03C332.879 143.678 333.036 144.203 333.39 144.605C333.744 144.997 334.245 145.218 334.893 145.267C335.795 145.337 336.419 145.049 336.764 144.405L338.044 144.503C337.878 145.122 337.495 145.605 336.897 145.954C336.298 146.303 335.601 146.446 334.807 146.385C333.767 146.306 332.963 145.923 332.394 145.238C331.836 144.544 331.599 143.648 331.683 142.55C331.766 141.471 332.136 140.632 332.794 140.031C333.452 139.43 334.285 139.169 335.296 139.246C336.257 139.32 337.009 139.674 337.552 140.307C338.105 140.942 338.345 141.73 338.273 142.671ZM332.994 142.044L337.025 142.353C337.071 141.755 336.931 141.271 336.604 140.901C336.287 140.531 335.82 140.322 335.202 140.275C334.594 140.228 334.09 140.367 333.69 140.692C333.3 141.017 333.068 141.468 332.994 142.044ZM339.671 148.357C339.475 148.342 339.309 148.314 339.174 148.274L339.221 147.656C339.338 147.685 339.518 147.709 339.763 147.728C340.166 147.759 340.453 147.613 340.626 147.291C340.769 147.095 340.853 146.835 340.878 146.511C340.738 146.658 340.531 146.721 340.257 146.7C339.972 146.678 339.744 146.567 339.572 146.366C339.4 146.166 339.326 145.914 339.349 145.61C339.372 145.306 339.49 145.063 339.701 144.882C339.922 144.702 340.184 144.623 340.488 144.646C340.841 144.674 341.139 144.844 341.381 145.159C341.634 145.464 341.74 145.887 341.698 146.426C341.651 147.044 341.446 147.531 341.083 147.888C340.73 148.246 340.259 148.402 339.671 148.357ZM351.738 140.509C352.709 140.583 353.473 140.977 354.029 141.691C354.587 142.394 354.825 143.276 354.744 144.335C354.664 145.375 354.285 146.204 353.606 146.822C352.927 147.441 352.097 147.713 351.117 147.637C350.597 147.597 350.126 147.438 349.703 147.159C349.291 146.881 348.993 146.522 348.809 146.084L348.477 150.409L347.197 150.311L347.959 140.396L349.238 140.494L349.147 141.686C349.395 141.281 349.749 140.973 350.209 140.761C350.679 140.551 351.189 140.466 351.738 140.509ZM351.028 146.476C351.685 146.527 352.242 146.343 352.698 145.924C353.155 145.505 353.41 144.943 353.464 144.237C353.518 143.531 353.352 142.936 352.965 142.452C352.578 141.959 352.057 141.687 351.4 141.637C350.723 141.585 350.152 141.768 349.686 142.186C349.229 142.605 348.974 143.172 348.919 143.888C348.864 144.594 349.031 145.189 349.418 145.672C349.815 146.156 350.352 146.425 351.028 146.476ZM358.925 148.237C357.876 148.156 357.078 147.76 356.531 147.047C355.993 146.335 355.765 145.459 355.844 144.419C355.923 143.39 356.293 142.56 356.953 141.93C357.623 141.301 358.472 141.026 359.502 141.105C360.032 141.145 360.498 141.304 360.901 141.582C361.304 141.859 361.597 142.217 361.78 142.656L361.872 141.464L363.137 141.561L362.616 148.343L361.351 148.245L361.443 147.054C361.195 147.449 360.841 147.757 360.38 147.979C359.92 148.19 359.435 148.276 358.925 148.237ZM359.19 147.103C359.906 147.158 360.482 146.97 360.92 146.54C361.368 146.101 361.618 145.543 361.67 144.867C361.722 144.18 361.56 143.591 361.184 143.098C360.818 142.597 360.277 142.318 359.561 142.263C358.875 142.211 358.308 142.399 357.861 142.828C357.414 143.248 357.164 143.811 357.109 144.517C357.055 145.223 357.217 145.817 357.594 146.3C357.971 146.783 358.503 147.05 359.19 147.103ZM370.195 142.103L371.475 142.201L370.944 149.115C370.862 150.184 370.491 150.974 369.83 151.486C369.243 151.934 368.484 152.122 367.552 152.051C366.571 151.975 365.825 151.681 365.312 151.169C364.844 150.708 364.634 150.105 364.681 149.359L365.975 149.459C365.954 150.384 366.502 150.89 367.62 150.976C368.875 151.072 369.559 150.39 369.671 148.929L369.768 147.663C369.245 148.56 368.425 148.966 367.307 148.88C366.454 148.815 365.832 148.506 365.44 147.953C365.049 147.39 364.888 146.662 364.956 145.77L365.267 141.725L366.547 141.823L366.257 145.603C366.206 146.261 366.295 146.775 366.523 147.148C366.761 147.512 367.194 147.717 367.822 147.766C368.44 147.813 368.932 147.629 369.3 147.213C369.668 146.788 369.877 146.246 369.927 145.589L370.195 142.103ZM381.187 142.769C382.158 142.844 382.922 143.238 383.478 143.951C384.036 144.655 384.274 145.536 384.193 146.596C384.113 147.635 383.734 148.464 383.055 149.083C382.376 149.702 381.546 149.973 380.566 149.898C380.046 149.858 379.575 149.699 379.152 149.42C378.74 149.141 378.442 148.783 378.258 148.345L377.926 152.67L376.646 152.571L377.407 142.657L378.687 142.755L378.596 143.946C378.844 143.541 379.198 143.233 379.658 143.022C380.128 142.811 380.638 142.727 381.187 142.769ZM380.477 148.737C381.134 148.787 381.691 148.603 382.147 148.185C382.604 147.766 382.859 147.203 382.913 146.497C382.967 145.791 382.801 145.197 382.414 144.713C382.027 144.22 381.506 143.948 380.849 143.897C380.172 143.845 379.601 144.029 379.134 144.447C378.678 144.865 378.423 145.433 378.368 146.148C378.313 146.855 378.48 147.449 378.867 147.933C379.264 148.417 379.8 148.685 380.477 148.737ZM391.885 146.787C391.87 146.973 391.836 147.227 391.782 147.548L386.53 147.145C386.49 147.793 386.647 148.318 387.001 148.72C387.356 149.112 387.857 149.333 388.504 149.383C389.406 149.452 390.03 149.165 390.375 148.52L391.655 148.619C391.489 149.237 391.107 149.721 390.508 150.069C389.909 150.418 389.212 150.562 388.418 150.501C387.379 150.421 386.574 150.039 386.006 149.354C385.447 148.66 385.21 147.764 385.294 146.665C385.377 145.587 385.748 144.747 386.405 144.146C387.063 143.546 387.897 143.284 388.907 143.362C389.868 143.436 390.62 143.789 391.163 144.423C391.716 145.057 391.957 145.845 391.885 146.787ZM386.606 146.159L390.636 146.469C390.682 145.871 390.542 145.386 390.215 145.016C389.898 144.646 389.431 144.438 388.813 144.39C388.205 144.344 387.701 144.483 387.302 144.807C386.912 145.132 386.68 145.583 386.606 146.159ZM393.249 150.694L393.77 143.913L395.049 144.011L394.931 145.556C395.1 145.026 395.381 144.638 395.775 144.392C396.169 144.136 396.592 144.026 397.043 144.06C397.308 144.081 397.512 144.116 397.656 144.167L397.566 145.343C397.421 145.303 397.212 145.272 396.937 145.251C396.3 145.202 395.79 145.419 395.407 145.903C395.035 146.387 394.818 147.027 394.757 147.821L394.529 150.792L393.249 150.694ZM402.285 151.388L402.805 144.606L404.085 144.705L403.99 145.94C404.158 145.549 404.429 145.234 404.803 144.996C405.177 144.749 405.619 144.645 406.129 144.684C407.296 144.773 407.984 145.315 408.194 146.307C408.383 145.898 408.685 145.571 409.098 145.326C409.511 145.082 409.973 144.979 410.483 145.018C412.111 145.143 412.857 146.093 412.72 147.868L412.391 152.163L411.111 152.065L411.421 148.02C411.514 146.814 411.07 146.173 410.089 146.098C408.981 146.013 408.368 146.745 408.249 148.294L407.978 151.825L406.698 151.726L407.002 147.769C407.099 146.504 406.662 145.835 405.691 145.76C405.161 145.719 404.734 145.884 404.41 146.254C404.087 146.613 403.895 147.181 403.836 147.955L403.565 151.486L402.285 151.388ZM415.781 144.433C415.477 144.41 415.235 144.293 415.053 144.082C414.872 143.87 414.793 143.618 414.816 143.324C414.838 143.029 414.955 142.792 415.166 142.611C415.378 142.42 415.636 142.336 415.94 142.359C416.234 142.382 416.472 142.504 416.652 142.725C416.833 142.936 416.912 143.189 416.89 143.483C416.867 143.777 416.75 144.015 416.539 144.196C416.328 144.377 416.075 144.456 415.781 144.433ZM414.524 152.327L415.045 145.546L416.324 145.644L415.804 152.425L414.524 152.327ZM418.015 152.595L418.535 145.814L419.815 145.912L419.719 147.162C419.939 146.735 420.26 146.41 420.682 146.186C421.113 145.962 421.618 145.873 422.197 145.917C423.884 146.047 424.656 147.038 424.514 148.892L424.193 153.069L422.913 152.971L423.191 149.353C423.25 148.588 423.156 148.013 422.909 147.629C422.672 147.246 422.255 147.032 421.656 146.986C421.039 146.938 420.547 147.103 420.183 147.479C419.829 147.856 419.624 148.398 419.57 149.104L419.295 152.693L418.015 152.595ZM428.82 153.602C428.035 153.542 427.425 153.258 426.991 152.752C426.567 152.236 426.389 151.527 426.459 150.624L426.779 146.447L428.059 146.545L427.762 150.414C427.661 151.738 428.159 152.442 429.257 152.526C429.905 152.576 430.401 152.407 430.746 152.019C431.102 151.622 431.303 151.124 431.349 150.526L431.634 146.819L432.913 146.918L432.393 153.699L431.113 153.601L431.208 152.365C430.989 152.782 430.668 153.103 430.246 153.327C429.835 153.552 429.359 153.644 428.82 153.602ZM437.514 153.012C437.867 153.039 438.153 153.036 438.373 153.004L438.286 154.136C437.986 154.183 437.606 154.188 437.145 154.152C436.939 154.137 436.759 154.113 436.603 154.081C436.458 154.05 436.285 153.983 436.086 153.879C435.887 153.775 435.725 153.639 435.599 153.472C435.475 153.294 435.375 153.055 435.299 152.753C435.225 152.442 435.204 152.075 435.236 151.653L435.501 148.196L434.28 148.103L434.363 147.029L435.584 147.122L435.749 144.975L437.028 145.073L436.863 147.221L438.57 147.352L438.487 148.426L436.781 148.295L436.537 151.472C436.491 152.07 436.549 152.469 436.712 152.669C436.874 152.869 437.141 152.983 437.514 153.012ZM446.056 150.945C446.042 151.131 446.008 151.385 445.953 151.706L440.702 151.303C440.662 151.951 440.819 152.476 441.173 152.878C441.527 153.271 442.028 153.492 442.676 153.541C443.578 153.61 444.202 153.323 444.547 152.679L445.827 152.777C445.661 153.396 445.279 153.879 444.68 154.228C444.081 154.576 443.384 154.72 442.59 154.659C441.55 154.579 440.746 154.197 440.177 153.512C439.619 152.818 439.382 151.922 439.466 150.824C439.549 149.745 439.919 148.905 440.577 148.305C441.235 147.704 442.069 147.443 443.079 147.52C444.04 147.594 444.792 147.948 445.335 148.581C445.888 149.216 446.128 150.003 446.056 150.945ZM440.778 150.318L444.808 150.627C444.854 150.029 444.714 149.545 444.387 149.174C444.07 148.805 443.603 148.596 442.985 148.549C442.377 148.502 441.873 148.641 441.473 148.965C441.083 149.291 440.851 149.741 440.778 150.318ZM447.454 156.631C447.258 156.616 447.092 156.588 446.957 156.548L447.005 155.93C447.121 155.959 447.301 155.983 447.547 156.001C447.949 156.032 448.236 155.887 448.409 155.565C448.552 155.368 448.636 155.109 448.661 154.785C448.521 154.932 448.314 154.995 448.04 154.974C447.755 154.952 447.527 154.841 447.355 154.64C447.183 154.44 447.109 154.187 447.132 153.883C447.155 153.579 447.273 153.337 447.484 153.156C447.705 152.975 447.967 152.897 448.271 152.92C448.624 152.947 448.922 153.118 449.164 153.433C449.417 153.738 449.523 154.161 449.481 154.7C449.434 155.318 449.229 155.805 448.866 156.162C448.513 156.52 448.042 156.676 447.454 156.631ZM461.528 152.133C461.513 152.319 461.479 152.573 461.425 152.894L456.173 152.491C456.133 153.139 456.29 153.664 456.644 154.066C456.999 154.458 457.5 154.679 458.147 154.729C459.049 154.798 459.673 154.511 460.019 153.866L461.298 153.965C461.132 154.583 460.75 155.067 460.151 155.415C459.552 155.764 458.856 155.908 458.061 155.847C457.022 155.767 456.218 155.385 455.649 154.7C455.09 154.006 454.853 153.11 454.938 152.011C455.02 150.933 455.391 150.093 456.048 149.492C456.706 148.892 457.54 148.63 458.55 148.708C459.511 148.782 460.263 149.135 460.807 149.769C461.36 150.403 461.6 151.191 461.528 152.133ZM456.249 151.505L460.28 151.815C460.326 151.217 460.185 150.732 459.858 150.362C459.542 149.992 459.074 149.784 458.456 149.736C457.848 149.69 457.344 149.829 456.945 150.153C456.555 150.478 456.323 150.929 456.249 151.505ZM465.803 156.441C464.754 156.361 463.956 155.964 463.409 155.251C462.871 154.539 462.643 153.663 462.723 152.624C462.802 151.594 463.171 150.764 463.831 150.134C464.501 149.505 465.351 149.23 466.38 149.309C466.91 149.35 467.376 149.509 467.779 149.786C468.182 150.064 468.475 150.422 468.658 150.86L468.75 149.668L470.015 149.766L469.494 156.547L468.229 156.45L468.321 155.258C468.073 155.654 467.719 155.962 467.258 156.183C466.798 156.394 466.313 156.48 465.803 156.441ZM466.068 155.307C466.784 155.362 467.36 155.175 467.798 154.745C468.246 154.306 468.496 153.748 468.548 153.071C468.6 152.385 468.439 151.795 468.062 151.302C467.696 150.801 467.155 150.523 466.439 150.468C465.753 150.415 465.186 150.603 464.739 151.033C464.292 151.452 464.042 152.015 463.988 152.721C463.933 153.427 464.095 154.021 464.472 154.504C464.849 154.987 465.381 155.255 466.068 155.307ZM473.965 157.068C473.111 157.002 472.441 156.739 471.954 156.277C471.477 155.806 471.262 155.262 471.31 154.644L472.575 154.741C472.548 155.085 472.674 155.38 472.951 155.628C473.228 155.867 473.612 156.005 474.103 156.042C474.485 156.072 474.796 156.007 475.035 155.848C475.274 155.688 475.405 155.457 475.429 155.153C475.465 154.672 475.267 154.361 474.834 154.219L473.061 153.61C472.111 153.27 471.672 152.625 471.745 151.674C471.788 151.115 472.058 150.672 472.557 150.345C473.056 150.009 473.684 149.87 474.439 149.928C475.263 149.991 475.885 150.231 476.307 150.648C476.739 151.056 476.932 151.564 476.885 152.172L475.62 152.075C475.645 151.751 475.542 151.487 475.311 151.282C475.081 151.067 474.746 150.943 474.304 150.909C473.951 150.882 473.651 150.942 473.402 151.091C473.165 151.231 473.036 151.438 473.014 151.712C472.979 152.173 473.207 152.482 473.698 152.638L475.354 153.238C475.824 153.403 476.18 153.657 476.42 154.001C476.66 154.345 476.764 154.723 476.732 155.135C476.682 155.782 476.412 156.284 475.921 156.641C475.431 156.988 474.779 157.13 473.965 157.068ZM483.695 150.816L484.975 150.914L484.444 157.828C484.362 158.897 483.991 159.687 483.33 160.198C482.743 160.647 481.984 160.835 481.053 160.763C480.072 160.688 479.325 160.394 478.812 159.881C478.344 159.421 478.134 158.818 478.181 158.072L479.476 158.171C479.454 159.097 480.002 159.603 481.12 159.688C482.376 159.785 483.059 159.102 483.171 157.641L483.269 156.376C482.746 157.273 481.926 157.679 480.808 157.593C479.955 157.527 479.332 157.218 478.941 156.665C478.55 156.103 478.389 155.375 478.457 154.483L478.768 150.437L480.047 150.536L479.757 154.316C479.707 154.973 479.795 155.488 480.023 155.861C480.262 156.224 480.695 156.43 481.322 156.478C481.94 156.526 482.433 156.342 482.8 155.926C483.168 155.5 483.377 154.959 483.428 154.302L483.695 150.816ZM494.687 151.482C495.658 151.556 496.422 151.95 496.979 152.664C497.536 153.368 497.775 154.249 497.693 155.308C497.613 156.348 497.234 157.177 496.555 157.796C495.877 158.414 495.047 158.686 494.066 158.611C493.546 158.571 493.075 158.411 492.653 158.132C492.24 157.854 491.942 157.496 491.759 157.057L491.427 161.382L490.147 161.284L490.908 151.369L492.188 151.468L492.096 152.659C492.344 152.254 492.699 151.946 493.159 151.735C493.629 151.524 494.138 151.44 494.687 151.482ZM493.978 157.45C494.635 157.5 495.191 157.316 495.648 156.897C496.104 156.479 496.359 155.916 496.413 155.21C496.468 154.504 496.301 153.909 495.914 153.426C495.528 152.932 495.006 152.661 494.349 152.61C493.672 152.558 493.101 152.741 492.635 153.159C492.179 153.578 491.923 154.145 491.868 154.861C491.814 155.567 491.98 156.162 492.367 156.645C492.764 157.13 493.301 157.398 493.978 157.45ZM505.385 155.499C505.371 155.686 505.336 155.939 505.282 156.261L500.031 155.858C499.991 156.506 500.148 157.031 500.502 157.433C500.856 157.825 501.357 158.046 502.004 158.096C502.907 158.165 503.53 157.877 503.876 157.233L505.156 157.331C504.99 157.95 504.607 158.433 504.009 158.782C503.41 159.131 502.713 159.274 501.919 159.213C500.879 159.134 500.075 158.751 499.506 158.066C498.948 157.373 498.711 156.476 498.795 155.378C498.878 154.299 499.248 153.46 499.906 152.859C500.563 152.259 501.397 151.997 502.407 152.075C503.369 152.148 504.121 152.502 504.664 153.136C505.217 153.77 505.457 154.558 505.385 155.499ZM500.106 154.872L504.137 155.181C504.183 154.583 504.042 154.099 503.716 153.729C503.399 153.359 502.932 153.151 502.314 153.103C501.706 153.056 501.202 153.195 500.802 153.52C500.412 153.845 500.18 154.296 500.106 154.872ZM509.661 159.808C508.611 159.727 507.813 159.331 507.266 158.618C506.729 157.906 506.5 157.03 506.58 155.99C506.659 154.961 507.028 154.131 507.688 153.501C508.358 152.872 509.208 152.597 510.238 152.676C510.767 152.716 511.233 152.875 511.636 153.153C512.039 153.43 512.332 153.788 512.516 154.227L512.607 153.035L513.872 153.132L513.352 159.914L512.087 159.816L512.178 158.625C511.931 159.02 511.576 159.328 511.116 159.55C510.655 159.761 510.17 159.847 509.661 159.808ZM509.925 158.674C510.641 158.729 511.218 158.541 511.655 158.111C512.103 157.672 512.353 157.114 512.405 156.438C512.458 155.751 512.296 155.162 511.919 154.669C511.553 154.168 511.013 153.889 510.297 153.834C509.61 153.782 509.043 153.97 508.596 154.399C508.15 154.819 507.899 155.381 507.845 156.088C507.791 156.794 507.952 157.388 508.33 157.871C508.707 158.354 509.239 158.621 509.925 158.674ZM517.822 160.434C516.969 160.369 516.299 160.105 515.811 159.644C515.334 159.173 515.12 158.629 515.167 158.011L516.432 158.108C516.406 158.451 516.531 158.747 516.808 158.995C517.086 159.233 517.47 159.371 517.96 159.409C518.342 159.438 518.653 159.374 518.892 159.214C519.131 159.055 519.263 158.823 519.286 158.519C519.323 158.039 519.125 157.728 518.692 157.586L516.918 156.976C515.968 156.637 515.529 155.992 515.602 155.041C515.645 154.482 515.916 154.039 516.414 153.712C516.914 153.376 517.541 153.236 518.296 153.294C519.12 153.357 519.743 153.598 520.164 154.015C520.597 154.423 520.79 154.931 520.743 155.539L519.478 155.442C519.503 155.118 519.4 154.854 519.169 154.649C518.939 154.434 518.603 154.309 518.162 154.275C517.809 154.248 517.508 154.309 517.26 154.458C517.022 154.597 516.893 154.804 516.872 155.079C516.836 155.54 517.064 155.848 517.555 156.004L519.211 156.605C519.682 156.769 520.037 157.023 520.277 157.367C520.517 157.711 520.621 158.089 520.589 158.501C520.54 159.148 520.269 159.65 519.778 160.007C519.288 160.354 518.636 160.497 517.822 160.434ZM527.553 154.182L528.833 154.281L528.302 161.194C528.22 162.263 527.848 163.054 527.188 163.565C526.601 164.013 525.842 164.202 524.91 164.13C523.929 164.055 523.182 163.761 522.669 163.248C522.202 162.788 521.991 162.185 522.039 161.439L523.333 161.538C523.312 162.464 523.86 162.969 524.978 163.055C526.233 163.151 526.917 162.469 527.029 161.008L527.126 159.743C526.603 160.64 525.783 161.045 524.665 160.96C523.812 160.894 523.189 160.585 522.798 160.032C522.407 159.469 522.246 158.742 522.314 157.849L522.625 153.804L523.905 153.902L523.614 157.683C523.564 158.34 523.653 158.855 523.881 159.227C524.119 159.591 524.552 159.797 525.18 159.845C525.798 159.892 526.29 159.708 526.657 159.292C527.025 158.867 527.235 158.326 527.285 157.669L527.553 154.182Z" fill="#303030"/>
</g>
<rect x="-82.9535" y="147.179" width="966.413" height="75.6111" transform="rotate(-4 -82.9535 147.179)" fill="#303030"/>
<path d="M-13.6734 167.114C-14.1186 167.145 -14.3194 167.472 -14.2759 168.096L-12.8189 188.93C-12.7754 189.554 -12.531 189.85 -12.0858 189.819L-11.2511 189.76L-11.2277 190.094L-20.777 190.762L-20.8004 190.428L-19.9656 190.37C-19.522 190.316 -19.3228 189.967 -19.3679 189.321L-20.0707 179.271L-25.1124 179.624L-24.405 189.741C-24.363 190.342 -24.1186 190.638 -23.6718 190.629L-22.8371 190.57L-22.8138 190.904L-32.3631 191.572L-32.3864 191.238L-31.5517 191.18C-31.1065 191.149 -30.9073 190.799 -30.954 190.132L-32.4015 169.43C-32.4482 168.762 -32.6942 168.444 -33.1394 168.475L-33.9741 168.534L-33.9974 168.2L-24.4481 167.532L-24.4248 167.866L-25.2595 167.924C-25.7031 167.978 -25.9039 168.305 -25.8619 168.906L-25.1545 179.023L-20.1127 178.67L-20.8155 168.62C-20.8606 167.974 -21.1066 167.656 -21.5533 167.665L-22.388 167.723L-22.4114 167.39L-12.8621 166.722L-12.8387 167.056L-13.6734 167.114ZM-1.41197 172.195C0.302007 172.076 1.93271 172.364 3.48013 173.061C5.02599 173.736 6.27968 174.711 7.24119 175.986C8.22496 177.259 8.7721 178.686 8.88262 180.266C8.99624 181.891 8.71021 183.399 8.02452 184.789C7.33883 186.179 6.28867 187.315 4.87402 188.197C3.45937 189.078 1.77263 189.588 -0.186203 189.725C-2.1673 189.863 -3.91964 189.594 -5.44325 188.918C-6.96685 188.242 -8.16411 187.274 -9.03503 186.015C-9.88525 184.733 -10.3679 183.268 -10.4831 181.62C-10.5952 180.018 -10.2973 178.521 -9.58931 177.129C-8.8591 175.736 -7.78667 174.598 -6.37203 173.717C-4.95738 172.835 -3.30403 172.328 -1.41197 172.195ZM0.69733 188.925C1.27608 188.884 1.69815 188.363 1.96356 187.36C2.2274 186.335 2.30329 185.021 2.19122 183.418C2.12429 182.461 1.98825 181.475 1.78309 180.461C1.5054 179.049 1.1361 177.766 0.675188 176.613C0.214281 175.459 -0.285154 174.555 -0.823115 173.899C-1.33882 173.242 -1.83039 172.929 -2.29784 172.962C-2.87659 173.002 -3.29788 173.535 -3.56173 174.56C-3.82558 175.585 -3.90147 176.899 -3.7894 178.502C-3.72402 179.437 -3.58798 180.423 -3.38127 181.459C-3.10357 182.872 -2.73427 184.154 -2.27336 185.308C-1.7902 186.459 -1.29076 187.364 -0.775062 188.021C-0.260917 188.656 0.229881 188.957 0.69733 188.925ZM37.8767 170.22L37.0085 170.28C36.5649 170.334 36.2862 170.667 36.1724 171.278L33.519 185.153C33.4931 185.424 33.4833 185.603 33.4896 185.692C33.5113 186.004 33.5945 186.233 33.7389 186.379C33.9041 186.502 34.0765 186.568 34.2561 186.578L34.7903 186.541L34.9138 186.868L33.4113 186.973L30.9071 187.148L29.4714 187.248C28.5779 187.266 27.8516 187.115 27.2925 186.797C26.7333 186.478 26.2821 185.782 25.9387 184.71L23.6143 177.86L22.0665 185.954C22.0313 186.091 22.0223 186.282 22.0394 186.527C22.0596 186.816 22.1531 187.033 22.3198 187.178C22.4865 187.323 22.6478 187.39 22.8036 187.379L23.3378 187.342L23.4613 187.669L21.9254 187.776L19.4546 187.949L17.9855 188.051C17.1158 188.09 16.4014 187.95 15.8423 187.631C15.3039 187.288 14.8518 186.582 14.4862 185.511L10.2717 173.224C10.0216 172.525 9.68504 172.191 9.26211 172.221L8.42738 172.279L8.30386 171.952L17.8532 171.284L17.9767 171.611L17.142 171.67C16.8081 171.693 16.6536 171.883 16.6785 172.239C16.6847 172.328 16.7163 172.46 16.7733 172.635L21.4601 186.399L23.2795 176.911C22.3312 174.226 21.8112 172.708 21.7196 172.356C21.517 171.699 21.1821 171.387 20.7146 171.42L19.8799 171.478L19.7564 171.151L29.3391 170.481L29.4292 170.81L28.5945 170.869C28.2844 170.913 28.1418 171.113 28.1667 171.469C28.1776 171.625 28.1973 171.747 28.2258 171.834L32.9126 185.598L35.6429 171.383C35.6718 171.157 35.6832 170.999 35.6769 170.91C35.6536 170.577 35.4853 170.409 35.1721 170.409L34.3374 170.467L34.3808 170.129L37.9201 169.881L37.8767 170.22ZM50.934 168.401C50.1104 168.458 49.389 168.218 48.7698 167.68C48.149 167.119 47.8098 166.427 47.7522 165.604C47.6946 164.78 47.935 164.059 48.4733 163.439C49.01 162.798 49.6901 162.448 50.5137 162.391C51.3373 162.333 52.0595 162.585 52.6803 163.145C53.3218 163.682 53.6713 164.362 53.7289 165.186C53.7865 166.009 53.5358 166.743 52.9768 167.386C52.4386 168.005 51.7576 168.343 50.934 168.401ZM55.0551 184.151C55.0987 184.774 55.3438 185.081 55.7906 185.072L56.6253 185.014L56.6487 185.348L47.0993 186.016L47.076 185.682L47.9107 185.623C48.3559 185.592 48.5552 185.243 48.5085 184.575L47.717 173.256C47.6843 172.789 47.5162 172.465 47.2129 172.285C46.9095 172.105 46.5471 172.04 46.1257 172.092L46.107 171.825C47.2645 171.744 48.5933 171.394 50.0934 170.775C51.5935 170.155 52.8441 169.486 53.8452 168.768L53.9904 168.925L55.0551 184.151ZM66.6212 167.874L66.6469 168.242L64.7771 168.372L65.8278 183.397C65.8714 184.021 66.1054 184.329 66.5299 184.321L67.398 184.261L67.4214 184.595L61.9766 184.942C61.1069 184.98 60.437 184.837 59.9669 184.512C59.5175 184.163 59.2547 183.443 59.1784 182.353L58.3216 170.099C58.2873 169.609 58.1193 169.285 57.8175 169.127C57.5379 168.968 57.2423 168.899 56.9307 168.921L56.1961 168.972L56.1704 168.605C58.0847 168.471 59.7049 167.81 61.031 166.621C62.3778 165.408 63.3955 163.649 64.0842 161.341L64.2962 161.494L64.7514 168.005L66.6212 167.874ZM104.199 165.582L103.33 165.643C102.887 165.696 102.608 166.029 102.494 166.641L99.8409 180.516C99.8151 180.786 99.8053 180.966 99.8115 181.055C99.8333 181.366 99.9164 181.595 100.061 181.742C100.226 181.864 100.398 181.931 100.578 181.94L101.112 181.903L101.236 182.23L99.7333 182.335L97.2291 182.51L95.7933 182.611C94.8998 182.628 94.1735 182.478 93.6144 182.159C93.0553 181.84 92.604 181.145 92.2606 180.073L89.9362 173.223L88.3884 181.317C88.3532 181.453 88.3442 181.644 88.3613 181.889C88.3816 182.178 88.475 182.395 88.6417 182.54C88.8084 182.685 88.9697 182.752 89.1255 182.741L89.6598 182.704L89.7833 183.031L88.2474 183.138L85.7766 183.311L84.3074 183.414C83.4378 183.452 82.7234 183.312 82.1642 182.993C81.6258 182.651 81.1738 181.944 80.8081 180.874L76.5936 168.586C76.3435 167.888 76.007 167.553 75.584 167.583L74.7493 167.641L74.6258 167.315L84.1751 166.647L84.2986 166.974L83.4639 167.032C83.13 167.055 82.9755 167.245 83.0004 167.601C83.0066 167.69 83.0382 167.822 83.0952 167.997L87.782 181.762L89.6014 172.273C88.6531 169.588 88.1332 168.07 88.0415 167.718C87.839 167.062 87.504 166.75 87.0365 166.782L86.2018 166.841L86.0783 166.514L95.661 165.844L95.7511 166.173L94.9164 166.231C94.6063 166.275 94.4637 166.475 94.4886 166.831C94.4995 166.987 94.5192 167.109 94.5477 167.196L99.2345 180.961L101.965 166.745C101.994 166.519 102.005 166.362 101.999 166.273C101.976 165.939 101.807 165.772 101.494 165.771L100.659 165.83L100.703 165.491L104.242 165.244L104.199 165.582ZM113.233 164.179C114.947 164.059 116.578 164.347 118.125 165.044C119.671 165.719 120.925 166.694 121.886 167.969C122.87 169.242 123.417 170.669 123.528 172.25C123.641 173.874 123.355 175.382 122.67 176.772C121.984 178.162 120.934 179.298 119.519 180.18C118.104 181.062 116.418 181.571 114.459 181.708C112.478 181.847 110.725 181.578 109.202 180.901C107.678 180.225 106.481 179.257 105.61 177.998C104.76 176.716 104.277 175.251 104.162 173.604C104.05 172.001 104.348 170.504 105.056 169.112C105.786 167.719 106.858 166.582 108.273 165.7C109.688 164.818 111.341 164.311 113.233 164.179ZM115.342 180.908C115.921 180.868 116.343 180.346 116.609 179.343C116.872 178.318 116.948 177.004 116.836 175.402C116.769 174.444 116.633 173.459 116.428 172.444C116.15 171.032 115.781 169.749 115.32 168.596C114.859 167.443 114.36 166.538 113.822 165.882C113.306 165.225 112.815 164.913 112.347 164.945C111.768 164.986 111.347 165.518 111.083 166.543C110.819 167.568 110.744 168.882 110.856 170.485C110.921 171.42 111.057 172.406 111.264 173.443C111.541 174.855 111.911 176.138 112.372 177.291C112.855 178.443 113.354 179.347 113.87 180.004C114.384 180.64 114.875 180.941 115.342 180.908ZM136.787 163.169C137.764 162.743 138.653 162.502 139.454 162.446C140.501 162.373 141.398 162.567 142.146 163.029C142.916 163.49 143.448 164.213 143.74 165.199C143.832 165.551 143.889 165.882 143.911 166.194C143.985 167.262 143.667 168.146 142.955 168.844C142.242 169.521 141.396 169.893 140.416 169.961C139.57 170.02 138.808 169.828 138.128 169.383C137.446 168.916 137.006 168.209 136.805 167.261C136.477 165.763 135.945 165.04 135.211 165.091C134.788 165.121 134.346 165.364 133.886 165.821C133.426 166.278 133.014 166.788 132.651 167.35L133.442 178.669C133.486 179.293 133.731 179.6 134.178 179.591L135.012 179.533L135.036 179.866L125.487 180.534L125.463 180.2L126.298 180.142C126.743 180.111 126.942 179.761 126.896 179.094L126.104 167.775C126.043 166.907 125.624 166.5 124.844 166.554L124.48 166.613L124.461 166.346C128.28 165.296 130.87 164.276 132.232 163.286L132.378 163.444L132.609 166.749C133.034 166.116 133.626 165.459 134.384 164.78C135.141 164.101 135.943 163.564 136.787 163.169ZM166.192 177.688L162.252 177.963C160.805 178.065 159.658 177.82 158.812 177.231C157.988 176.64 157.4 175.909 157.048 175.039C156.697 174.169 156.373 173.062 156.078 171.718C155.88 170.815 155.686 170.113 155.494 169.612C155.325 169.109 155.074 168.724 154.742 168.456C154.431 168.165 154.011 168.071 153.481 168.175L154.114 177.224C154.158 177.847 154.403 178.154 154.85 178.145L155.684 178.087L155.708 178.421L146.158 179.089L146.135 178.755L146.97 178.696C147.415 178.665 147.614 178.316 147.567 177.648L146.134 157.147C146.073 156.279 145.664 155.871 144.908 155.924L144.543 155.983L144.524 155.716C148.341 154.644 150.92 153.625 152.262 152.659L152.407 152.816L153.456 167.808C154.411 167.719 155.315 167.365 156.166 166.746C157.016 166.105 157.693 165.387 158.196 164.591C158.7 163.795 158.933 163.13 158.896 162.596C158.879 162.351 158.788 162.167 158.622 162.045C158.456 161.9 158.228 161.838 157.938 161.858L157.504 161.888L157.479 161.521L162.053 161.201L162.079 161.568L161.244 161.627C160.888 161.652 160.565 161.831 160.275 162.164C160.006 162.474 159.661 162.979 159.24 163.679C159.082 163.981 158.801 164.437 158.396 165.047C157.541 166.247 156.582 167.086 155.519 167.563C157.389 167.432 158.86 167.676 159.932 168.295C161.004 168.913 161.762 169.677 162.206 170.585C162.65 171.493 163.054 172.64 163.419 174.023C163.727 175.232 164.035 176.105 164.341 176.643C164.669 177.179 165.178 177.423 165.868 177.375L166.192 177.688ZM173.862 164.704C174.424 165.067 175.398 165.569 176.785 166.21C178.244 166.914 179.439 167.535 180.372 168.073C181.302 168.59 182.118 169.215 182.818 169.949C183.518 170.683 183.898 171.484 183.959 172.352C184.004 173.311 183.638 174.164 182.863 174.912C182.11 175.658 181.078 176.255 179.767 176.705C178.479 177.153 177.056 177.431 175.497 177.54C173.249 177.698 171.406 177.569 169.968 177.155C168.528 176.719 167.67 175.963 167.393 174.886C167.33 174.622 167.294 174.423 167.285 174.29C167.227 173.466 167.447 172.78 167.946 172.23C168.465 171.657 169.147 171.341 169.993 171.282C170.861 171.221 171.543 171.375 172.039 171.743C172.533 172.089 172.797 172.517 172.833 173.029C172.867 173.519 172.706 173.933 172.35 174.271C172.034 174.562 171.889 174.874 171.912 175.208C171.946 175.697 172.278 176.121 172.907 176.48C173.534 176.817 174.327 176.962 175.286 176.918C176.044 176.887 176.698 176.64 177.247 176.177C177.795 175.691 178.048 175.148 178.006 174.547C177.964 173.946 177.612 173.389 176.949 172.876C176.429 172.465 175.833 172.104 175.163 171.793C174.491 171.46 173.683 171.113 172.741 170.754C171.477 170.261 170.449 169.807 169.66 169.393C168.893 168.977 168.229 168.441 167.669 167.787C167.108 167.133 166.795 166.327 166.728 165.37C166.666 164.48 166.988 163.652 167.695 162.887C168.423 162.098 169.395 161.448 170.612 160.938C171.851 160.426 173.161 160.122 174.541 160.026C175.921 159.929 177.383 160.04 178.926 160.357C179.786 160.498 180.372 160.558 180.683 160.536C181.039 160.511 181.357 160.41 181.635 160.234L181.916 160.416L181.015 163.364L180.308 165.729L179.974 165.752C179.74 164.315 179.206 163.088 178.375 162.073C177.542 161.035 176.413 160.566 174.988 160.666C174.298 160.714 173.723 160.955 173.261 161.39C172.799 161.825 172.589 162.332 172.629 162.911C172.677 163.601 173.088 164.198 173.862 164.704Z" fill="white"/>
<path d="M197.349 173.666L196.629 163.364L202.486 162.954L202.571 164.161L198.052 164.477L198.313 168.201L202.831 167.885L202.915 169.092L198.397 169.408L198.688 173.573L197.349 173.666ZM205.2 165.131C204.896 165.152 204.639 165.072 204.429 164.889C204.219 164.707 204.104 164.468 204.083 164.174C204.063 163.879 204.144 163.627 204.326 163.417C204.508 163.198 204.751 163.077 205.055 163.056C205.349 163.035 205.602 163.121 205.813 163.313C206.023 163.496 206.138 163.734 206.158 164.029C206.179 164.323 206.098 164.575 205.916 164.785C205.733 164.995 205.495 165.11 205.2 165.131ZM205.108 173.124L204.634 166.339L205.914 166.249L206.389 173.034L205.108 173.124ZM208.601 172.879L208.126 166.095L209.407 166.005L209.494 167.256C209.65 166.802 209.92 166.433 210.304 166.149C210.699 165.866 211.185 165.703 211.764 165.663C213.452 165.545 214.36 166.413 214.49 168.267L214.782 172.447L213.502 172.537L213.249 168.916C213.195 168.151 213.018 167.596 212.718 167.253C212.428 166.908 211.984 166.757 211.385 166.799C210.767 166.842 210.305 167.076 210 167.502C209.704 167.927 209.581 168.492 209.63 169.199L209.881 172.79L208.601 172.879ZM221.412 161.631L222.693 161.542L223.413 171.844L222.147 171.932L222.064 170.74C221.877 171.167 221.572 171.524 221.148 171.81C220.723 172.086 220.256 172.242 219.746 172.278C218.696 172.351 217.849 172.075 217.203 171.45C216.568 170.824 216.214 169.991 216.141 168.951C216.069 167.92 216.314 167.046 216.875 166.326C217.446 165.606 218.246 165.21 219.276 165.138C219.806 165.101 220.291 165.19 220.73 165.406C221.169 165.621 221.511 165.933 221.756 166.34L221.707 165.633L221.692 165.634L221.412 161.631ZM219.842 171.117C220.559 171.067 221.102 170.798 221.472 170.308C221.851 169.808 222.017 169.22 221.969 168.543C221.921 167.856 221.675 167.297 221.231 166.864C220.796 166.422 220.22 166.225 219.504 166.275C218.817 166.323 218.284 166.592 217.904 167.082C217.523 167.562 217.358 168.156 217.407 168.862C217.456 169.569 217.703 170.133 218.147 170.556C218.59 170.978 219.156 171.165 219.842 171.117ZM230.856 171.323L227.88 164.713L229.278 164.616L231.258 169.446L232.56 164.386L233.929 164.29L235.923 169.12L237.211 164.061L238.624 163.962L236.581 170.923L235.492 170.999L233.347 165.914L231.945 171.247L230.856 171.323ZM242.99 170.652C241.911 170.728 241.029 170.449 240.344 169.817C239.658 169.175 239.28 168.343 239.208 167.323C239.137 166.302 239.396 165.431 239.987 164.71C240.577 163.988 241.412 163.59 242.491 163.514C243.561 163.439 244.438 163.723 245.124 164.365C245.819 164.997 246.202 165.818 246.273 166.829C246.344 167.849 246.08 168.726 245.48 169.458C244.89 170.179 244.06 170.577 242.99 170.652ZM241.2 168.944C241.643 169.366 242.214 169.553 242.91 169.504C243.607 169.456 244.14 169.191 244.511 168.712C244.881 168.223 245.042 167.625 244.992 166.918C244.943 166.222 244.702 165.662 244.268 165.239C243.834 164.806 243.268 164.613 242.572 164.662C241.875 164.711 241.337 164.98 240.957 165.47C240.586 165.95 240.426 166.543 240.475 167.249C240.524 167.946 240.765 168.511 241.2 168.944ZM248.168 170.113L247.694 163.328L248.974 163.238L249.082 164.784C249.172 164.235 249.394 163.81 249.748 163.51C250.101 163.199 250.503 163.028 250.954 162.996C251.219 162.978 251.426 162.983 251.576 163.012L251.659 164.189C251.509 164.17 251.297 164.17 251.023 164.19C250.385 164.234 249.912 164.524 249.604 165.058C249.307 165.591 249.185 166.255 249.241 167.05L249.449 170.023L248.168 170.113ZM258.943 162.541L255.876 166.054L259.417 169.326L257.725 169.444L254.543 166.458L254.767 169.651L253.486 169.741L252.766 159.439L254.046 159.349L254.508 165.957L257.295 162.657L258.943 162.541ZM262.707 169.273C261.854 169.333 261.152 169.17 260.603 168.785C260.062 168.389 259.77 167.882 259.727 167.263L260.993 167.175C261.017 167.518 261.184 167.793 261.494 167.998C261.804 168.193 262.204 168.273 262.694 168.239C263.077 168.212 263.375 168.103 263.588 167.91C263.801 167.718 263.897 167.47 263.876 167.166C263.843 166.685 263.601 166.406 263.152 166.329L261.309 165.984C260.319 165.787 259.791 165.213 259.724 164.261C259.685 163.702 259.888 163.225 260.334 162.829C260.779 162.423 261.379 162.193 262.135 162.141C262.959 162.083 263.61 162.23 264.088 162.581C264.575 162.921 264.84 163.396 264.883 164.004L263.617 164.093C263.594 163.769 263.454 163.522 263.196 163.353C262.936 163.174 262.586 163.1 262.145 163.131C261.791 163.156 261.503 163.26 261.279 163.443C261.064 163.616 260.967 163.839 260.986 164.114C261.018 164.575 261.289 164.847 261.797 164.93L263.523 165.282C264.012 165.376 264.401 165.576 264.689 165.881C264.976 166.187 265.134 166.545 265.163 166.957C265.208 167.605 265.014 168.141 264.58 168.566C264.146 168.981 263.522 169.217 262.707 169.273ZM270.32 161.568C271.292 161.5 272.105 161.779 272.76 162.403C273.414 163.018 273.778 163.855 273.852 164.915C273.925 165.955 273.671 166.831 273.09 167.542C272.508 168.253 271.727 168.643 270.746 168.711C270.226 168.748 269.737 168.659 269.278 168.444C268.829 168.229 268.482 167.918 268.237 167.511L268.539 171.838L267.259 171.928L266.565 162.008L267.845 161.919L267.929 163.111C268.115 162.674 268.421 162.317 268.845 162.041C269.279 161.764 269.771 161.607 270.32 161.568ZM270.489 167.576C271.146 167.53 271.67 167.266 272.061 166.786C272.451 166.305 272.621 165.711 272.572 165.005C272.523 164.298 272.271 163.734 271.818 163.312C271.364 162.881 270.808 162.688 270.15 162.734C269.473 162.781 268.935 163.045 268.535 163.527C268.144 164.008 267.974 164.606 268.024 165.323C268.074 166.029 268.325 166.593 268.779 167.015C269.242 167.436 269.812 167.623 270.489 167.576ZM278.558 168.165C277.508 168.238 276.661 167.963 276.016 167.337C275.38 166.711 275.026 165.878 274.954 164.838C274.882 163.808 275.126 162.933 275.687 162.213C276.258 161.493 277.058 161.097 278.089 161.025C278.618 160.988 279.103 161.077 279.542 161.293C279.981 161.509 280.323 161.82 280.568 162.227L280.485 161.035L281.751 160.946L282.225 167.731L280.96 167.82L280.876 166.628C280.689 167.055 280.384 167.411 279.96 167.697C279.536 167.973 279.068 168.129 278.558 168.165ZM278.655 167.005C279.371 166.955 279.914 166.685 280.284 166.196C280.663 165.696 280.829 165.108 280.782 164.431C280.734 163.744 280.488 163.184 280.043 162.752C279.608 162.309 279.032 162.113 278.316 162.163C277.629 162.211 277.096 162.48 276.716 162.97C276.335 163.45 276.17 164.043 276.219 164.75C276.269 165.456 276.515 166.02 276.959 166.443C277.403 166.866 277.968 167.053 278.655 167.005ZM287.268 167.556C286.238 167.628 285.396 167.362 284.743 166.757C284.088 166.142 283.724 165.3 283.649 164.23C283.574 163.161 283.818 162.281 284.381 161.591C284.944 160.891 285.74 160.505 286.77 160.433C287.683 160.369 288.435 160.548 289.026 160.97C289.617 161.382 289.978 161.968 290.11 162.728L288.83 162.818C288.59 161.918 287.93 161.505 286.851 161.581C286.193 161.627 285.693 161.879 285.35 162.336C285.007 162.784 284.862 163.386 284.915 164.142C284.968 164.897 285.195 165.478 285.598 165.883C286.001 166.279 286.531 166.454 287.188 166.408C288.258 166.333 288.855 165.848 288.979 164.952L290.26 164.862C290.234 165.623 289.957 166.249 289.43 166.739C288.901 167.22 288.181 167.492 287.268 167.556ZM297.918 162.833C297.931 163.019 297.934 163.276 297.927 163.601L292.673 163.969C292.728 164.616 292.96 165.112 293.369 165.458C293.777 165.794 294.304 165.94 294.952 165.895C295.855 165.832 296.43 165.456 296.678 164.768L297.958 164.679C297.884 165.315 297.576 165.849 297.035 166.281C296.493 166.714 295.825 166.958 295.03 167.013C293.99 167.086 293.139 166.825 292.476 166.231C291.822 165.625 291.457 164.774 291.38 163.675C291.305 162.595 291.549 161.711 292.112 161.021C292.675 160.33 293.462 159.95 294.472 159.879C295.434 159.812 296.229 160.052 296.859 160.6C297.499 161.147 297.852 161.891 297.918 162.833ZM292.604 162.983L296.636 162.701C296.595 162.102 296.385 161.644 296.008 161.325C295.64 161.005 295.148 160.867 294.529 160.911C293.921 160.953 293.443 161.164 293.095 161.543C292.756 161.922 292.593 162.402 292.604 162.983ZM302.131 166.517C301.278 166.576 300.576 166.413 300.026 166.028C299.486 165.632 299.194 165.125 299.151 164.507L300.417 164.418C300.441 164.762 300.608 165.036 300.918 165.241C301.227 165.436 301.627 165.517 302.118 165.482C302.501 165.456 302.799 165.346 303.012 165.154C303.225 164.961 303.321 164.713 303.3 164.409C303.266 163.928 303.025 163.649 302.576 163.572L300.733 163.228C299.743 163.031 299.215 162.456 299.148 161.505C299.109 160.945 299.312 160.468 299.758 160.072C300.203 159.666 300.803 159.437 301.558 159.384C302.383 159.326 303.034 159.473 303.512 159.824C303.999 160.165 304.264 160.639 304.306 161.247L303.041 161.336C303.018 161.012 302.878 160.766 302.619 160.596C302.36 160.417 302.01 160.343 301.568 160.374C301.215 160.399 300.927 160.503 300.703 160.686C300.488 160.859 300.39 161.083 300.41 161.357C300.442 161.818 300.712 162.09 301.221 162.173L302.946 162.526C303.436 162.62 303.825 162.819 304.112 163.124C304.4 163.43 304.558 163.788 304.587 164.2C304.632 164.848 304.438 165.384 304.004 165.809C303.57 166.224 302.945 166.46 302.131 166.517ZM314.568 158.652L315.849 158.562L316.332 165.479C316.407 166.549 316.155 167.385 315.576 167.987C315.061 168.516 314.337 168.813 313.405 168.878C312.424 168.947 311.642 168.765 311.06 168.333C310.53 167.946 310.234 167.38 310.172 166.635L311.467 166.544C311.581 167.463 312.197 167.883 313.315 167.805C314.571 167.717 315.148 166.942 315.046 165.481L314.957 164.215C314.571 165.178 313.819 165.699 312.7 165.778C311.846 165.837 311.186 165.622 310.718 165.132C310.249 164.633 309.983 163.937 309.921 163.044L309.638 158.996L310.918 158.907L311.183 162.689C311.229 163.347 311.392 163.843 311.671 164.178C311.96 164.503 312.419 164.644 313.047 164.6C313.665 164.557 314.125 164.303 314.428 163.838C314.73 163.363 314.858 162.797 314.812 162.14L314.568 158.652ZM321.536 165.16C320.457 165.235 319.575 164.957 318.89 164.324C318.204 163.682 317.825 162.851 317.754 161.83C317.683 160.81 317.942 159.939 318.533 159.217C319.123 158.496 319.958 158.097 321.037 158.022C322.107 157.947 322.984 158.231 323.67 158.873C324.365 159.505 324.748 160.326 324.818 161.336C324.89 162.357 324.626 163.233 324.026 163.965C323.436 164.687 322.606 165.085 321.536 165.16ZM319.745 163.451C320.189 163.874 320.759 164.06 321.456 164.012C322.153 163.963 322.686 163.699 323.057 163.22C323.427 162.73 323.587 162.132 323.538 161.426C323.489 160.729 323.248 160.169 322.814 159.746C322.38 159.313 321.814 159.121 321.117 159.17C320.421 159.218 319.882 159.488 319.503 159.978C319.132 160.457 318.971 161.05 319.021 161.757C319.069 162.453 319.311 163.018 319.745 163.451ZM329.228 164.622C328.444 164.677 327.799 164.485 327.295 164.047C326.8 163.599 326.522 162.923 326.458 162.02L326.166 157.841L327.447 157.751L327.717 161.622C327.81 162.946 328.406 163.57 329.504 163.493C330.152 163.448 330.618 163.208 330.904 162.774C331.198 162.33 331.324 161.808 331.282 161.21L331.023 157.501L332.303 157.411L332.778 164.196L331.497 164.286L331.411 163.049C331.255 163.494 330.984 163.858 330.6 164.141C330.225 164.424 329.768 164.584 329.228 164.622ZM338.701 163.782L337.98 153.48L339.261 153.39L339.981 163.692L338.701 163.782ZM342.285 155.545C341.981 155.566 341.724 155.486 341.514 155.303C341.304 155.121 341.189 154.882 341.168 154.588C341.148 154.294 341.229 154.041 341.411 153.831C341.593 153.612 341.836 153.491 342.14 153.47C342.434 153.449 342.687 153.535 342.898 153.728C343.107 153.91 343.223 154.148 343.243 154.443C343.264 154.737 343.183 154.989 343 155.199C342.818 155.409 342.58 155.525 342.285 155.545ZM342.193 163.538L341.719 156.753L342.999 156.664L343.474 163.448L342.193 163.538ZM351.143 156.094L348.075 159.607L351.617 162.879L349.924 162.997L346.743 160.01L346.966 163.204L345.686 163.294L344.965 152.991L346.246 152.902L346.708 159.51L349.494 156.209L351.143 156.094ZM358.167 158.62C358.18 158.806 358.183 159.062 358.176 159.388L352.922 159.756C352.977 160.403 353.209 160.899 353.618 161.245C354.026 161.581 354.554 161.727 355.201 161.682C356.104 161.619 356.679 161.243 356.927 160.555L358.207 160.466C358.134 161.102 357.826 161.636 357.284 162.068C356.743 162.501 356.074 162.745 355.28 162.8C354.24 162.873 353.388 162.612 352.726 162.017C352.072 161.412 351.707 160.56 351.63 159.462C351.554 158.382 351.798 157.498 352.361 156.807C352.924 156.117 353.711 155.737 354.722 155.666C355.683 155.599 356.479 155.839 357.109 156.387C357.748 156.934 358.101 157.678 358.167 158.62ZM352.853 158.77L356.886 158.488C356.844 157.889 356.635 157.431 356.257 157.112C355.89 156.792 355.397 156.654 354.779 156.698C354.171 156.74 353.692 156.951 353.344 157.33C353.006 157.709 352.842 158.189 352.853 158.77ZM360.379 164.041C360.183 164.055 360.015 164.051 359.876 164.032L359.833 163.414C359.952 163.425 360.134 163.422 360.379 163.405C360.782 163.377 361.045 163.191 361.168 162.847C361.282 162.632 361.327 162.363 361.304 162.039C361.188 162.205 360.992 162.297 360.717 162.316C360.433 162.336 360.191 162.26 359.991 162.086C359.792 161.913 359.681 161.674 359.66 161.37C359.639 161.066 359.72 160.809 359.902 160.599C360.094 160.388 360.343 160.272 360.647 160.251C361 160.226 361.319 160.352 361.605 160.628C361.899 160.893 362.066 161.295 362.103 161.835C362.147 162.453 362.015 162.965 361.708 163.371C361.411 163.776 360.968 164 360.379 164.041ZM371.172 154.516C372.144 154.448 372.957 154.726 373.612 155.351C374.266 155.966 374.63 156.803 374.704 157.863C374.777 158.903 374.523 159.778 373.941 160.49C373.36 161.201 372.579 161.59 371.598 161.659C371.078 161.695 370.588 161.606 370.13 161.392C369.681 161.177 369.334 160.866 369.088 160.459L369.391 164.786L368.111 164.876L367.417 154.956L368.697 154.867L368.781 156.059C368.967 155.622 369.272 155.265 369.697 154.989C370.131 154.712 370.623 154.554 371.172 154.516ZM371.341 160.523C371.998 160.478 372.522 160.214 372.912 159.733C373.303 159.252 373.473 158.659 373.424 157.952C373.374 157.246 373.123 156.682 372.67 156.26C372.215 155.828 371.66 155.635 371.002 155.681C370.325 155.729 369.787 155.993 369.387 156.475C368.996 156.956 368.826 157.554 368.876 158.27C368.926 158.977 369.177 159.541 369.63 159.963C370.094 160.384 370.664 160.571 371.341 160.523ZM379.41 161.113C378.36 161.186 377.513 160.91 376.868 160.285C376.232 159.659 375.878 158.826 375.805 157.786C375.733 156.756 375.978 155.881 376.539 155.161C377.11 154.441 377.91 154.045 378.94 153.973C379.47 153.936 379.955 154.025 380.394 154.241C380.833 154.457 381.175 154.768 381.42 155.175L381.337 153.983L382.603 153.894L383.077 160.679L381.811 160.767L381.728 159.575C381.541 160.002 381.236 160.359 380.812 160.645C380.388 160.921 379.92 161.077 379.41 161.113ZM379.506 159.952C380.223 159.902 380.766 159.633 381.136 159.143C381.515 158.644 381.681 158.055 381.634 157.378C381.586 156.691 381.339 156.132 380.895 155.7C380.46 155.257 379.884 155.06 379.168 155.11C378.481 155.158 377.948 155.427 377.568 155.917C377.187 156.398 377.022 156.991 377.071 157.697C377.121 158.404 377.367 158.968 377.811 159.391C378.254 159.813 378.82 160.001 379.506 159.952ZM389.664 153.4L390.945 153.311L391.429 160.228C391.503 161.297 391.251 162.133 390.672 162.736C390.157 163.265 389.433 163.562 388.501 163.627C387.52 163.696 386.738 163.514 386.156 163.081C385.626 162.694 385.33 162.128 385.268 161.383L386.563 161.293C386.677 162.212 387.293 162.632 388.411 162.554C389.667 162.466 390.244 161.691 390.142 160.229L390.053 158.964C389.667 159.927 388.915 160.448 387.796 160.526C386.943 160.586 386.282 160.371 385.814 159.881C385.345 159.382 385.08 158.685 385.017 157.792L384.734 153.745L386.014 153.656L386.279 157.438C386.325 158.095 386.488 158.592 386.768 158.927C387.057 159.252 387.515 159.392 388.143 159.349C388.761 159.305 389.222 159.051 389.524 158.586C389.826 158.112 389.954 157.546 389.908 156.888L389.664 153.4ZM400.636 152.456C401.607 152.388 402.42 152.666 403.075 153.291C403.73 153.906 404.094 154.743 404.168 155.803C404.241 156.843 403.986 157.718 403.405 158.429C402.824 159.14 402.043 159.53 401.061 159.599C400.541 159.635 400.052 159.546 399.593 159.332C399.145 159.117 398.797 158.806 398.552 158.399L398.855 162.726L397.574 162.815L396.881 152.896L398.161 152.806L398.244 153.998C398.431 153.561 398.736 153.205 399.16 152.929C399.595 152.652 400.086 152.494 400.636 152.456ZM400.805 158.463C401.462 158.417 401.986 158.154 402.376 157.673C402.766 157.192 402.937 156.599 402.888 155.892C402.838 155.186 402.587 154.621 402.133 154.2C401.679 153.768 401.123 153.575 400.466 153.621C399.789 153.668 399.25 153.933 398.85 154.414C398.46 154.895 398.29 155.494 398.34 156.21C398.389 156.917 398.641 157.481 399.094 157.902C399.557 158.324 400.128 158.511 400.805 158.463ZM411.805 154.869C411.818 155.056 411.821 155.312 411.815 155.638L406.561 156.005C406.616 156.652 406.848 157.148 407.256 157.494C407.664 157.831 408.192 157.976 408.84 157.931C409.742 157.868 410.318 157.492 410.565 156.805L411.846 156.715C411.772 157.351 411.464 157.885 410.922 158.318C410.381 158.75 409.713 158.994 408.918 159.049C407.878 159.122 407.026 158.861 406.364 158.267C405.71 157.662 405.345 156.81 405.268 155.711C405.193 154.632 405.436 153.747 405.999 153.057C406.562 152.367 407.349 151.986 408.36 151.916C409.321 151.848 410.117 152.088 410.747 152.636C411.387 153.183 411.739 153.927 411.805 154.869ZM406.492 155.019L410.524 154.737C410.482 154.138 410.273 153.68 409.896 153.361C409.528 153.042 409.035 152.904 408.417 152.947C407.809 152.989 407.331 153.2 406.983 153.58C406.644 153.958 406.481 154.438 406.492 155.019ZM413.725 158.536L413.251 151.751L414.531 151.662L414.639 153.207C414.729 152.658 414.951 152.234 415.304 151.933C415.657 151.622 416.06 151.451 416.511 151.42C416.776 151.401 416.983 151.406 417.133 151.435L417.215 152.613C417.066 152.593 416.854 152.593 416.58 152.613C415.942 152.657 415.469 152.947 415.161 153.481C414.863 154.014 414.742 154.679 414.798 155.473L415.006 158.446L413.725 158.536ZM422.766 157.904L422.291 151.119L423.572 151.029L423.658 152.266C423.767 151.854 423.989 151.503 424.324 151.213C424.658 150.914 425.08 150.746 425.59 150.711C426.758 150.629 427.518 151.064 427.87 152.015C427.998 151.583 428.248 151.215 428.621 150.913C428.995 150.611 429.436 150.442 429.947 150.406C431.575 150.292 432.452 151.123 432.576 152.899L432.876 157.197L431.596 157.286L431.313 153.239C431.229 152.032 430.696 151.463 429.715 151.532C428.606 151.609 428.106 152.423 428.214 153.973L428.461 157.505L427.181 157.595L426.904 153.636C426.815 152.37 426.286 151.771 425.314 151.839C424.784 151.876 424.386 152.101 424.119 152.514C423.851 152.918 423.745 153.507 423.799 154.282L424.046 157.814L422.766 157.904ZM435.103 149.055C434.799 149.076 434.542 148.995 434.332 148.813C434.122 148.63 434.006 148.392 433.986 148.097C433.965 147.803 434.046 147.551 434.229 147.341C434.411 147.121 434.654 147.001 434.958 146.979C435.252 146.959 435.505 147.045 435.715 147.237C435.925 147.42 436.04 147.658 436.061 147.952C436.082 148.247 436.001 148.499 435.818 148.709C435.636 148.919 435.397 149.034 435.103 149.055ZM435.011 157.047L434.537 150.263L435.817 150.173L436.291 156.958L435.011 157.047ZM438.503 156.803L438.029 150.018L439.309 149.929L439.397 151.18C439.552 150.725 439.822 150.356 440.207 150.073C440.601 149.789 441.088 149.627 441.667 149.587C443.354 149.469 444.263 150.337 444.393 152.191L444.685 156.371L443.404 156.46L443.151 152.84C443.098 152.075 442.921 151.52 442.621 151.176C442.33 150.832 441.886 150.68 441.288 150.722C440.669 150.765 440.208 151 439.902 151.426C439.607 151.85 439.483 152.416 439.533 153.123L439.784 156.714L438.503 156.803ZM449.339 156.223C448.555 156.278 447.91 156.086 447.406 155.648C446.911 155.2 446.633 154.524 446.569 153.621L446.277 149.442L447.558 149.352L447.828 153.223C447.921 154.547 448.517 155.171 449.615 155.094C450.263 155.049 450.729 154.809 451.015 154.375C451.309 153.931 451.435 153.409 451.393 152.811L451.134 149.102L452.414 149.012L452.889 155.797L451.608 155.887L451.522 154.65C451.366 155.095 451.095 155.459 450.711 155.742C450.336 156.025 449.879 156.185 449.339 156.223ZM457.855 154.37C458.208 154.346 458.491 154.301 458.703 154.237L458.782 155.37C458.493 155.46 458.117 155.52 457.656 155.553C457.45 155.567 457.268 155.57 457.11 155.561C456.961 155.552 456.781 155.51 456.569 155.436C456.356 155.362 456.176 155.252 456.028 155.104C455.879 154.947 455.745 154.725 455.626 154.437C455.507 154.14 455.432 153.781 455.403 153.359L455.161 149.9L453.939 149.985L453.864 148.911L455.086 148.826L454.936 146.677L456.216 146.587L456.366 148.736L458.073 148.617L458.149 149.691L456.441 149.81L456.664 152.989C456.706 153.588 456.821 153.974 457.011 154.148C457.201 154.322 457.482 154.396 457.855 154.37ZM466.004 151.079C466.017 151.266 466.02 151.522 466.013 151.848L460.759 152.215C460.814 152.862 461.046 153.358 461.455 153.704C461.863 154.041 462.391 154.186 463.038 154.141C463.941 154.078 464.516 153.702 464.764 153.015L466.044 152.925C465.971 153.561 465.663 154.095 465.121 154.528C464.58 154.96 463.911 155.204 463.117 155.259C462.077 155.332 461.225 155.071 460.562 154.477C459.909 153.872 459.544 153.02 459.467 151.921C459.391 150.842 459.635 149.957 460.198 149.267C460.761 148.577 461.548 148.196 462.559 148.126C463.52 148.058 464.316 148.299 464.946 148.846C465.585 149.393 465.938 150.137 466.004 151.079ZM460.69 151.229L464.723 150.947C464.681 150.348 464.471 149.89 464.094 149.571C463.727 149.252 463.234 149.114 462.616 149.157C462.008 149.199 461.529 149.41 461.181 149.79C460.843 150.168 460.679 150.648 460.69 151.229ZM468.216 156.5C468.02 156.514 467.852 156.511 467.713 156.491L467.67 155.873C467.789 155.884 467.971 155.881 468.216 155.864C468.618 155.836 468.882 155.65 469.005 155.306C469.119 155.091 469.164 154.822 469.141 154.498C469.025 154.664 468.829 154.757 468.554 154.776C468.27 154.796 468.028 154.719 467.828 154.545C467.629 154.372 467.518 154.133 467.497 153.829C467.476 153.525 467.556 153.268 467.739 153.058C467.931 152.847 468.18 152.731 468.484 152.71C468.837 152.685 469.156 152.811 469.442 153.087C469.736 153.352 469.903 153.755 469.94 154.294C469.984 154.912 469.852 155.424 469.545 155.83C469.248 156.236 468.805 156.459 468.216 156.5ZM481.483 149.997C481.496 150.183 481.499 150.439 481.493 150.765L476.238 151.133C476.294 151.779 476.525 152.276 476.934 152.622C477.342 152.958 477.87 153.104 478.518 153.059C479.42 152.995 479.995 152.62 480.243 151.932L481.524 151.843C481.45 152.479 481.142 153.013 480.6 153.445C480.059 153.878 479.391 154.121 478.596 154.177C477.556 154.25 476.704 153.989 476.042 153.394C475.388 152.789 475.023 151.937 474.946 150.838C474.87 149.759 475.114 148.874 475.677 148.184C476.24 147.494 477.027 147.114 478.038 147.043C478.999 146.976 479.795 147.216 480.425 147.764C481.065 148.311 481.417 149.055 481.483 149.997ZM476.169 150.147L480.202 149.865C480.16 149.266 479.951 148.807 479.573 148.489C479.206 148.169 478.713 148.031 478.095 148.074C477.487 148.117 477.009 148.328 476.66 148.707C476.322 149.086 476.158 149.566 476.169 150.147ZM486.342 153.635C485.292 153.709 484.444 153.433 483.799 152.808C483.164 152.182 482.81 151.348 482.737 150.308C482.665 149.278 482.909 148.403 483.47 147.684C484.041 146.964 484.842 146.567 485.872 146.495C486.402 146.458 486.886 146.548 487.325 146.764C487.764 146.979 488.106 147.291 488.352 147.697L488.268 146.505L489.534 146.417L490.009 153.202L488.743 153.29L488.659 152.098C488.472 152.525 488.167 152.882 487.743 153.168C487.319 153.444 486.852 153.6 486.342 153.635ZM486.438 152.475C487.154 152.425 487.697 152.155 488.067 151.666C488.446 151.166 488.612 150.578 488.565 149.901C488.517 149.214 488.271 148.655 487.826 148.222C487.391 147.779 486.816 147.583 486.099 147.633C485.412 147.681 484.879 147.95 484.499 148.44C484.119 148.92 483.953 149.514 484.003 150.22C484.052 150.926 484.299 151.491 484.742 151.913C485.186 152.336 485.751 152.523 486.438 152.475ZM494.507 153.064C493.653 153.124 492.952 152.961 492.402 152.576C491.862 152.18 491.57 151.673 491.527 151.054L492.793 150.966C492.817 151.309 492.984 151.584 493.294 151.789C493.603 151.984 494.003 152.064 494.494 152.03C494.877 152.003 495.175 151.894 495.388 151.701C495.601 151.509 495.697 151.261 495.676 150.957C495.642 150.476 495.401 150.197 494.952 150.12L493.109 149.775C492.119 149.578 491.591 149.004 491.524 148.052C491.485 147.493 491.688 147.016 492.134 146.62C492.579 146.214 493.179 145.984 493.934 145.932C494.758 145.874 495.41 146.021 495.888 146.372C496.375 146.712 496.64 147.187 496.682 147.795L495.417 147.884C495.394 147.56 495.254 147.313 494.995 147.144C494.736 146.965 494.386 146.891 493.944 146.922C493.591 146.947 493.303 147.05 493.079 147.234C492.864 147.407 492.766 147.63 492.786 147.905C492.818 148.366 493.088 148.638 493.597 148.721L495.322 149.073C495.812 149.167 496.201 149.367 496.488 149.672C496.776 149.977 496.934 150.336 496.963 150.748C497.008 151.396 496.814 151.932 496.38 152.357C495.946 152.772 495.321 153.008 494.507 153.064ZM503.222 145.46L504.502 145.37L504.986 152.287C505.06 153.357 504.808 154.193 504.229 154.795C503.714 155.324 502.991 155.621 502.058 155.687C501.077 155.755 500.295 155.573 499.713 155.141C499.183 154.754 498.887 154.188 498.825 153.443L500.12 153.352C500.234 154.271 500.85 154.691 501.969 154.613C503.224 154.525 503.801 153.751 503.699 152.289L503.611 151.023C503.224 151.987 502.472 152.507 501.354 152.586C500.5 152.645 499.839 152.43 499.371 151.94C498.902 151.441 498.637 150.745 498.574 149.852L498.291 145.804L499.572 145.715L499.836 149.497C499.882 150.155 500.045 150.651 500.325 150.986C500.614 151.311 501.072 151.452 501.7 151.408C502.318 151.365 502.779 151.111 503.081 150.646C503.383 150.171 503.511 149.605 503.465 148.948L503.222 145.46ZM514.193 144.515C515.164 144.447 515.978 144.725 516.632 145.35C517.287 145.965 517.651 146.802 517.725 147.862C517.798 148.902 517.544 149.777 516.962 150.489C516.381 151.2 515.6 151.59 514.619 151.658C514.099 151.694 513.609 151.605 513.151 151.391C512.702 151.176 512.355 150.865 512.109 150.458L512.412 154.785L511.131 154.875L510.438 144.955L511.718 144.866L511.801 146.058C511.988 145.621 512.293 145.264 512.718 144.988C513.152 144.711 513.644 144.553 514.193 144.515ZM514.362 150.523C515.019 150.477 515.543 150.213 515.933 149.732C516.324 149.251 516.494 148.658 516.445 147.951C516.395 147.245 516.144 146.681 515.69 146.259C515.236 145.827 514.68 145.634 514.023 145.68C513.346 145.728 512.807 145.992 512.407 146.474C512.017 146.955 511.847 147.553 511.897 148.269C511.946 148.976 512.198 149.54 512.651 149.962C513.115 150.383 513.685 150.57 514.362 150.523ZM525.362 146.928C525.375 147.115 525.379 147.371 525.372 147.697L520.118 148.064C520.173 148.711 520.405 149.208 520.813 149.554C521.221 149.89 521.749 150.035 522.397 149.99C523.299 149.927 523.875 149.552 524.122 148.864L525.403 148.774C525.329 149.411 525.021 149.945 524.48 150.377C523.938 150.809 523.27 151.053 522.475 151.109C521.435 151.181 520.584 150.921 519.921 150.326C519.267 149.721 518.902 148.869 518.825 147.77C518.75 146.691 518.994 145.806 519.557 145.116C520.12 144.426 520.906 144.046 521.917 143.975C522.879 143.908 523.674 144.148 524.304 144.695C524.944 145.242 525.297 145.987 525.362 146.928ZM520.049 147.078L524.081 146.796C524.039 146.198 523.83 145.739 523.453 145.42C523.085 145.101 522.592 144.963 521.974 145.006C521.366 145.049 520.888 145.26 520.54 145.639C520.201 146.017 520.038 146.497 520.049 147.078ZM530.221 150.567C529.171 150.641 528.323 150.365 527.678 149.739C527.043 149.113 526.689 148.28 526.616 147.24C526.544 146.21 526.789 145.335 527.35 144.615C527.92 143.895 528.721 143.499 529.751 143.427C530.281 143.39 530.765 143.479 531.204 143.695C531.643 143.911 531.986 144.222 532.231 144.629L532.148 143.437L533.413 143.348L533.888 150.133L532.622 150.222L532.539 149.03C532.352 149.457 532.046 149.813 531.623 150.099C531.198 150.376 530.731 150.531 530.221 150.567ZM530.317 149.407C531.033 149.357 531.576 149.087 531.947 148.598C532.326 148.098 532.492 147.51 532.444 146.833C532.396 146.146 532.15 145.586 531.706 145.154C531.27 144.711 530.695 144.515 529.979 144.565C529.292 144.613 528.758 144.882 528.379 145.372C527.998 145.852 527.832 146.445 527.882 147.152C527.931 147.858 528.178 148.423 528.621 148.845C529.065 149.268 529.63 149.455 530.317 149.407ZM538.386 149.996C537.533 150.056 536.831 149.893 536.282 149.507C535.741 149.111 535.449 148.604 535.406 147.986L536.672 147.898C536.696 148.241 536.863 148.515 537.173 148.72C537.483 148.916 537.883 148.996 538.373 148.962C538.756 148.935 539.054 148.825 539.267 148.633C539.48 148.441 539.576 148.192 539.555 147.888C539.522 147.407 539.28 147.129 538.831 147.051L536.988 146.707C535.998 146.51 535.47 145.936 535.403 144.984C535.364 144.425 535.567 143.947 536.013 143.551C536.458 143.145 537.058 142.916 537.814 142.863C538.638 142.806 539.289 142.952 539.767 143.303C540.254 143.644 540.519 144.119 540.562 144.727L539.296 144.815C539.273 144.492 539.133 144.245 538.874 144.076C538.615 143.897 538.265 143.823 537.824 143.853C537.47 143.878 537.182 143.982 536.958 144.165C536.743 144.338 536.646 144.562 536.665 144.837C536.697 145.298 536.968 145.57 537.476 145.653L539.202 146.005C539.691 146.099 540.08 146.299 540.368 146.604C540.655 146.909 540.813 147.268 540.842 147.68C540.887 148.327 540.693 148.864 540.259 149.288C539.825 149.703 539.201 149.939 538.386 149.996ZM547.101 142.391L548.381 142.302L548.865 149.219C548.94 150.288 548.688 151.124 548.109 151.727C547.593 152.256 546.87 152.553 545.938 152.618C544.957 152.687 544.175 152.505 543.592 152.072C543.062 151.685 542.767 151.119 542.705 150.374L544 150.284C544.113 151.203 544.729 151.623 545.848 151.545C547.104 151.457 547.681 150.682 547.578 149.22L547.49 147.955C547.104 148.918 546.351 149.439 545.233 149.517C544.379 149.577 543.718 149.362 543.25 148.872C542.782 148.373 542.516 147.676 542.453 146.783L542.17 142.736L543.451 142.647L543.715 146.429C543.761 147.086 543.924 147.583 544.204 147.918C544.493 148.243 544.951 148.383 545.579 148.34C546.197 148.296 546.658 148.042 546.961 147.577C547.263 147.103 547.391 146.537 547.345 145.879L547.101 142.391Z" fill="white"/>
</svg>
